<svg width="52" height="52" viewBox="0 0 52 52" fill="none" xmlns="http://www.w3.org/2000/svg">
<path d="M47.625 19.4375L45 16.8125L47.8125 14L38 4.1875L35.1875 7L32.5 4.3125L34.375 2.375C35.3333 1.41667 36.5208 0.947917 37.9375 0.96875C39.3542 0.989583 40.5417 1.47917 41.5 2.4375L49.5625 10.5C50.5208 11.4583 51 12.6354 51 14.0312C51 15.4271 50.5208 16.6042 49.5625 17.5625L47.625 19.4375ZM17.625 49.5C16.6667 50.4583 15.4896 50.9375 14.0938 50.9375C12.6979 50.9375 11.5208 50.4583 10.5625 49.5L1.625 40.5625C0.916667 39.8384 0.5625 38.9491 0.5625 37.8944C0.5625 36.8398 0.916667 35.9583 1.625 35.25L4.375 32.5L7.0625 35.125L4.25 37.9375L14.0625 47.75L16.875 44.9375L19.5 47.625L17.625 49.5ZM42.4375 30.25L47.75 24.9375L27.0625 4.25L21.75 9.5625L42.4375 30.25ZM24.9375 47.75L30.3125 42.375L9.625 21.6875L4.25 27.0625L24.9375 47.75ZM25.5 32.25L32.3125 25.4375L26.5625 19.6875L19.75 26.5L25.5 32.25ZM27.5625 50.375C26.8569 51.0833 25.9826 51.4375 24.9396 51.4375C23.8965 51.4375 23.0208 51.0833 22.3125 50.375L1.625 29.6875C0.916667 28.9819 0.5625 28.1076 0.5625 27.0646C0.5625 26.0215 0.916667 25.1458 1.625 24.4375L6.9375 19.0625C7.66158 18.3542 8.55094 18 9.60556 18C10.6602 18 11.5417 18.3542 12.25 19.0625L17.0625 23.875L23.9375 17L19.125 12.1875C18.4167 11.4819 18.0625 10.6076 18.0625 9.56456C18.0625 8.52152 18.4167 7.64583 19.125 6.9375L24.4375 1.5625C25.1616 0.854167 26.0509 0.5 27.1056 0.5C28.1602 0.5 29.0417 0.854167 29.75 1.5625L50.4375 22.25C51.1458 22.9741 51.5 23.8634 51.5 24.9181C51.5 25.9727 51.1458 26.8542 50.4375 27.5625L45.0625 32.875C44.3569 33.5833 43.4826 33.9375 42.4396 33.9375C41.3965 33.9375 40.5208 33.5833 39.8125 32.875L35 28.0625L28.125 34.9375L32.9375 39.75C33.6458 40.4741 34 41.3634 34 42.4181C34 43.4727 33.6458 44.3542 32.9375 45.0625L27.5625 50.375Z" fill="#F2F1FB"/>
</svg>
