<svg width="636" height="339" viewBox="0 0 636 339" fill="none" xmlns="http://www.w3.org/2000/svg">
<rect width="636" height="339" rx="5" fill="#03030A"/>
<path d="M243.2 64L255.5 31.8H261.6L273.8 64H268.2L265 55.7H252.05L248.85 64H243.2ZM252.9 51.5H264.1L258.5 36.75L252.9 51.5ZM283.762 64L274.412 40.3H280.062L286.712 58.7L293.362 40.3H298.962L289.662 64H283.762ZM305.06 35.35V30.85H311.01V35.35H305.06ZM305.51 64V44.45H301.91L302.41 40.3H310.96V64H305.51ZM325.718 64.5C324.085 64.5 322.518 64.3833 321.018 64.15C319.551 63.9167 318.335 63.6333 317.368 63.3V58.7C318.501 59.1333 319.751 59.4667 321.118 59.7C322.485 59.9333 323.785 60.05 325.018 60.05C326.885 60.05 328.218 59.8833 329.018 59.55C329.818 59.2167 330.218 58.5667 330.218 57.6C330.218 56.9 329.968 56.35 329.468 55.95C329.001 55.55 328.285 55.1833 327.318 54.85C326.385 54.5167 325.185 54.1167 323.718 53.65C322.318 53.1833 321.101 52.6833 320.068 52.15C319.035 51.5833 318.235 50.8667 317.668 50C317.101 49.1333 316.818 48 316.818 46.6C316.818 44.4333 317.601 42.7667 319.168 41.6C320.735 40.4 323.251 39.8 326.718 39.8C328.085 39.8 329.385 39.9 330.618 40.1C331.851 40.3 332.901 40.55 333.768 40.85V45.4C332.835 45.0333 331.801 44.75 330.668 44.55C329.568 44.35 328.535 44.25 327.568 44.25C325.835 44.25 324.518 44.4 323.618 44.7C322.751 45 322.318 45.6 322.318 46.5C322.318 47.4333 322.768 48.1 323.668 48.5C324.601 48.8667 326.085 49.3833 328.118 50.05C329.985 50.6167 331.468 51.2167 332.568 51.85C333.668 52.4833 334.451 53.25 334.918 54.15C335.418 55.0167 335.668 56.15 335.668 57.55C335.668 59.8833 334.818 61.6333 333.118 62.8C331.418 63.9333 328.951 64.5 325.718 64.5ZM352.129 64.5C347.862 64.5 344.729 63.4333 342.729 61.3C340.762 59.1667 339.779 56.1167 339.779 52.15C339.779 48.1833 340.779 45.1333 342.779 43C344.779 40.8667 347.896 39.8 352.129 39.8C356.396 39.8 359.529 40.8667 361.529 43C363.529 45.1333 364.529 48.1833 364.529 52.15C364.529 56.1167 363.529 59.1667 361.529 61.3C359.562 63.4333 356.429 64.5 352.129 64.5ZM352.129 59.9C354.629 59.9 356.396 59.3 357.429 58.1C358.496 56.8667 359.029 54.8833 359.029 52.15C359.029 49.4167 358.496 47.45 357.429 46.25C356.396 45.05 354.629 44.45 352.129 44.45C349.662 44.45 347.896 45.05 346.829 46.25C345.796 47.45 345.279 49.4167 345.279 52.15C345.279 54.8833 345.796 56.8667 346.829 58.1C347.896 59.3 349.662 59.9 352.129 59.9ZM377.988 64.5C376.354 64.5 374.788 64.3833 373.288 64.15C371.821 63.9167 370.604 63.6333 369.638 63.3V58.7C370.771 59.1333 372.021 59.4667 373.388 59.7C374.754 59.9333 376.054 60.05 377.288 60.05C379.154 60.05 380.488 59.8833 381.288 59.55C382.088 59.2167 382.488 58.5667 382.488 57.6C382.488 56.9 382.238 56.35 381.738 55.95C381.271 55.55 380.554 55.1833 379.588 54.85C378.654 54.5167 377.454 54.1167 375.988 53.65C374.588 53.1833 373.371 52.6833 372.338 52.15C371.304 51.5833 370.504 50.8667 369.938 50C369.371 49.1333 369.088 48 369.088 46.6C369.088 44.4333 369.871 42.7667 371.438 41.6C373.004 40.4 375.521 39.8 378.988 39.8C380.354 39.8 381.654 39.9 382.888 40.1C384.121 40.3 385.171 40.55 386.038 40.85V45.4C385.104 45.0333 384.071 44.75 382.938 44.55C381.838 44.35 380.804 44.25 379.838 44.25C378.104 44.25 376.788 44.4 375.888 44.7C375.021 45 374.588 45.6 374.588 46.5C374.588 47.4333 375.038 48.1 375.938 48.5C376.871 48.8667 378.354 49.3833 380.388 50.05C382.254 50.6167 383.738 51.2167 384.838 51.85C385.938 52.4833 386.721 53.25 387.188 54.15C387.688 55.0167 387.938 56.15 387.938 57.55C387.938 59.8833 387.088 61.6333 385.388 62.8C383.688 63.9333 381.221 64.5 377.988 64.5Z" fill="white"/>
<path d="M46.232 122L53.12 103.968H56.536L63.368 122H60.232L58.44 117.352H51.188L49.396 122H46.232ZM51.664 115H57.936L54.8 106.74L51.664 115ZM73.3826 122V103.968H81.4186C82.7999 103.968 83.9386 104.229 84.8346 104.752C85.7306 105.275 86.3933 105.993 86.8226 106.908C87.2519 107.804 87.4666 108.831 87.4666 109.988C87.4666 111.78 86.9066 113.217 85.7866 114.3C84.6853 115.383 83.1919 115.924 81.3066 115.924H76.4346V122H73.3826ZM76.4346 113.516H80.7466C81.9599 113.516 82.8746 113.199 83.4906 112.564C84.1066 111.929 84.4146 111.071 84.4146 109.988C84.4146 108.831 84.1159 107.935 83.5186 107.3C82.9399 106.665 82.0626 106.348 80.8866 106.348H76.4346V113.516ZM96.5342 122.28C94.1449 122.28 92.3902 121.683 91.2702 120.488C90.1689 119.293 89.6182 117.585 89.6182 115.364C89.6182 113.143 90.1782 111.435 91.2982 110.24C92.4182 109.045 94.1636 108.448 96.5342 108.448C98.9236 108.448 100.678 109.045 101.798 110.24C102.918 111.435 103.478 113.143 103.478 115.364C103.478 117.585 102.918 119.293 101.798 120.488C100.697 121.683 98.9422 122.28 96.5342 122.28ZM96.5342 119.704C97.9342 119.704 98.9236 119.368 99.5022 118.696C100.1 118.005 100.398 116.895 100.398 115.364C100.398 113.833 100.1 112.732 99.5022 112.06C98.9236 111.388 97.9342 111.052 96.5342 111.052C95.1529 111.052 94.1636 111.388 93.5662 112.06C92.9876 112.732 92.6982 113.833 92.6982 115.364C92.6982 116.895 92.9876 118.005 93.5662 118.696C94.1636 119.368 95.1529 119.704 96.5342 119.704ZM108.41 122L104.91 108.728H107.962L110.258 118.388L112.862 110.352V108.728H115.186L118.07 118.388L120.366 108.728H123.39L119.918 122H117.034L114.206 113.32L111.322 122H108.41ZM132.103 122.28C129.788 122.28 127.996 121.711 126.727 120.572C125.457 119.433 124.823 117.688 124.823 115.336C124.823 113.208 125.364 111.528 126.447 110.296C127.529 109.064 129.172 108.448 131.375 108.448C133.391 108.448 134.903 108.98 135.911 110.044C136.937 111.089 137.451 112.443 137.451 114.104V116.568H127.735C127.884 117.856 128.351 118.743 129.135 119.228C129.919 119.713 131.113 119.956 132.719 119.956C133.391 119.956 134.081 119.891 134.791 119.76C135.5 119.629 136.116 119.461 136.639 119.256V121.496C136.041 121.757 135.351 121.953 134.567 122.084C133.801 122.215 132.98 122.28 132.103 122.28ZM127.735 114.58H134.763V113.656C134.763 112.741 134.511 112.032 134.007 111.528C133.503 111.005 132.653 110.744 131.459 110.744C130.04 110.744 129.06 111.052 128.519 111.668C127.996 112.284 127.735 113.255 127.735 114.58ZM140.702 122V108.728H143.502L143.67 110.268C144.304 109.857 145.06 109.484 145.938 109.148C146.815 108.812 147.683 108.579 148.542 108.448V110.772C148.019 110.865 147.45 111.005 146.834 111.192C146.236 111.36 145.667 111.556 145.126 111.78C144.584 111.985 144.127 112.2 143.754 112.424V122H140.702ZM151.044 122V103.968H163.308V106.348H154.096V111.808H162.272V114.16H154.096V122H151.044ZM166.718 105.956V103.436H170.05V105.956H166.718ZM166.97 122V111.052H164.954L165.234 108.728H170.022V122H166.97ZM178.93 122.28C177.511 122.28 176.447 121.907 175.738 121.16C175.047 120.395 174.702 119.359 174.702 118.052V111.108H172.742V108.728H174.702V105.676L177.726 104.752V108.728H181.254L181.058 111.108H177.726V117.884C177.726 118.649 177.903 119.191 178.258 119.508C178.613 119.807 179.191 119.956 179.994 119.956C180.498 119.956 181.03 119.863 181.59 119.676V121.832C180.862 122.131 179.975 122.28 178.93 122.28ZM190.938 122V108.728H193.738L193.878 110.128C194.475 109.661 195.184 109.269 196.006 108.952C196.846 108.616 197.77 108.448 198.778 108.448C200.495 108.448 201.746 108.849 202.53 109.652C203.314 110.455 203.706 111.705 203.706 113.404V122H200.682V113.544C200.682 112.517 200.467 111.799 200.038 111.388C199.627 110.977 198.843 110.772 197.686 110.772C196.995 110.772 196.314 110.912 195.642 111.192C194.988 111.472 194.438 111.836 193.99 112.284V122H190.938ZM215.535 106.964C215.031 106.964 214.527 106.871 214.023 106.684C213.538 106.497 213.062 106.32 212.595 106.152C212.147 105.965 211.708 105.872 211.279 105.872C210.794 105.872 210.346 105.947 209.935 106.096C209.524 106.245 209.16 106.507 208.843 106.88V104.64C209.086 104.379 209.422 104.173 209.851 104.024C210.299 103.875 210.756 103.8 211.223 103.8C211.764 103.8 212.268 103.893 212.735 104.08C213.202 104.248 213.659 104.425 214.107 104.612C214.555 104.799 215.022 104.892 215.507 104.892C216.478 104.892 217.224 104.547 217.747 103.856V106.096C217.56 106.339 217.271 106.544 216.879 106.712C216.487 106.88 216.039 106.964 215.535 106.964ZM211.139 122.28C210.299 122.28 209.515 122.131 208.787 121.832C208.078 121.533 207.508 121.085 207.079 120.488C206.65 119.872 206.435 119.116 206.435 118.22C206.435 116.951 206.864 115.933 207.723 115.168C208.6 114.384 209.944 113.992 211.755 113.992H216.011V113.404C216.011 112.769 215.908 112.265 215.703 111.892C215.516 111.519 215.162 111.248 214.639 111.08C214.135 110.912 213.388 110.828 212.399 110.828C210.831 110.828 209.366 111.061 208.003 111.528V109.26C208.6 109.017 209.328 108.821 210.187 108.672C211.046 108.523 211.97 108.448 212.959 108.448C214.9 108.448 216.375 108.84 217.383 109.624C218.41 110.408 218.923 111.687 218.923 113.46V122H216.319L216.123 120.656C215.582 121.179 214.91 121.58 214.107 121.86C213.323 122.14 212.334 122.28 211.139 122.28ZM211.951 120.096C212.866 120.096 213.659 119.947 214.331 119.648C215.022 119.331 215.582 118.911 216.011 118.388V116.064H211.811C210.915 116.064 210.262 116.241 209.851 116.596C209.459 116.932 209.263 117.455 209.263 118.164C209.263 118.855 209.496 119.349 209.963 119.648C210.43 119.947 211.092 120.096 211.951 120.096ZM228.944 122.28C226.554 122.28 224.8 121.683 223.68 120.488C222.578 119.293 222.028 117.585 222.028 115.364C222.028 113.143 222.588 111.435 223.708 110.24C224.828 109.045 226.573 108.448 228.944 108.448C231.333 108.448 233.088 109.045 234.208 110.24C235.328 111.435 235.888 113.143 235.888 115.364C235.888 117.585 235.328 119.293 234.208 120.488C233.106 121.683 231.352 122.28 228.944 122.28ZM228.944 119.704C230.344 119.704 231.333 119.368 231.912 118.696C232.509 118.005 232.808 116.895 232.808 115.364C232.808 113.833 232.509 112.732 231.912 112.06C231.333 111.388 230.344 111.052 228.944 111.052C227.562 111.052 226.573 111.388 225.976 112.06C225.397 112.732 225.108 113.833 225.108 115.364C225.108 116.895 225.397 118.005 225.976 118.696C226.573 119.368 227.562 119.704 228.944 119.704ZM250.014 122.28C249.174 122.28 248.39 122.131 247.662 121.832C246.953 121.533 246.384 121.085 245.954 120.488C245.525 119.872 245.31 119.116 245.31 118.22C245.31 116.951 245.74 115.933 246.598 115.168C247.476 114.384 248.82 113.992 250.63 113.992H254.886V113.404C254.886 112.769 254.784 112.265 254.578 111.892C254.392 111.519 254.037 111.248 253.514 111.08C253.01 110.912 252.264 110.828 251.274 110.828C249.706 110.828 248.241 111.061 246.878 111.528V109.26C247.476 109.017 248.204 108.821 249.062 108.672C249.921 108.523 250.845 108.448 251.834 108.448C253.776 108.448 255.25 108.84 256.258 109.624C257.285 110.408 257.798 111.687 257.798 113.46V122H255.194L254.998 120.656C254.457 121.179 253.785 121.58 252.982 121.86C252.198 122.14 251.209 122.28 250.014 122.28ZM250.826 120.096C251.741 120.096 252.534 119.947 253.206 119.648C253.897 119.331 254.457 118.911 254.886 118.388V116.064H250.686C249.79 116.064 249.137 116.241 248.726 116.596C248.334 116.932 248.138 117.455 248.138 118.164C248.138 118.855 248.372 119.349 248.838 119.648C249.305 119.947 249.968 120.096 250.826 120.096ZM268.743 122.28C267.772 122.28 266.932 122.149 266.223 121.888C265.513 121.627 264.86 121.225 264.263 120.684L264.095 122H261.463V103.128H264.515V109.596C265.672 108.831 267.063 108.448 268.687 108.448C270.572 108.448 272.056 108.989 273.139 110.072C274.24 111.136 274.791 112.863 274.791 115.252C274.791 117.66 274.249 119.433 273.167 120.572C272.084 121.711 270.609 122.28 268.743 122.28ZM267.931 119.984C269.312 119.984 270.283 119.592 270.843 118.808C271.421 118.024 271.711 116.839 271.711 115.252C271.711 113.609 271.403 112.452 270.787 111.78C270.171 111.108 269.2 110.772 267.875 110.772C266.493 110.772 265.373 111.155 264.515 111.92V118.584C265.392 119.517 266.531 119.984 267.931 119.984ZM278.04 122V108.728H280.84L281.008 110.268C281.642 109.857 282.398 109.484 283.276 109.148C284.153 108.812 285.021 108.579 285.88 108.448V110.772C285.357 110.865 284.788 111.005 284.172 111.192C283.574 111.36 283.005 111.556 282.464 111.78C281.922 111.985 281.465 112.2 281.092 112.424V122H278.04ZM289.502 105.956V103.436H292.834V105.956H289.502ZM289.754 122V111.052H287.738L288.018 108.728H292.806V122H289.754ZM296.647 122V108.728H299.447L299.615 110.268C300.249 109.857 301.005 109.484 301.883 109.148C302.76 108.812 303.628 108.579 304.487 108.448V110.772C303.964 110.865 303.395 111.005 302.779 111.192C302.181 111.36 301.612 111.556 301.071 111.78C300.529 111.985 300.072 112.2 299.699 112.424V122H296.647ZM310.985 107.384L313.085 102.428H315.773L313.421 107.384H310.985ZM310.285 122.28C309.445 122.28 308.661 122.131 307.933 121.832C307.224 121.533 306.655 121.085 306.225 120.488C305.796 119.872 305.581 119.116 305.581 118.22C305.581 116.951 306.011 115.933 306.869 115.168C307.747 114.384 309.091 113.992 310.901 113.992H315.157V113.404C315.157 112.769 315.055 112.265 314.849 111.892C314.663 111.519 314.308 111.248 313.785 111.08C313.281 110.912 312.535 110.828 311.545 110.828C309.977 110.828 308.512 111.061 307.149 111.528V109.26C307.747 109.017 308.475 108.821 309.333 108.672C310.192 108.523 311.116 108.448 312.105 108.448C314.047 108.448 315.521 108.84 316.529 109.624C317.556 110.408 318.069 111.687 318.069 113.46V122H315.465L315.269 120.656C314.728 121.179 314.056 121.58 313.253 121.86C312.469 122.14 311.48 122.28 310.285 122.28ZM311.097 120.096C312.012 120.096 312.805 119.947 313.477 119.648C314.168 119.331 314.728 118.911 315.157 118.388V116.064H310.957C310.061 116.064 309.408 116.241 308.997 116.596C308.605 116.932 308.409 117.455 308.409 118.164C308.409 118.855 308.643 119.349 309.109 119.648C309.576 119.947 310.239 120.096 311.097 120.096ZM46.764 161.048V141.728H49.396L49.564 143.044C50.1613 142.503 50.8147 142.101 51.524 141.84C52.2333 141.579 53.0733 141.448 54.044 141.448C55.948 141.448 57.432 141.971 58.496 143.016C59.56 144.043 60.092 145.751 60.092 148.14C60.092 150.529 59.5413 152.321 58.44 153.516C57.3387 154.692 55.836 155.28 53.932 155.28C52.3267 155.28 50.9547 154.907 49.816 154.16V161.048H46.764ZM53.148 152.984C55.724 152.984 57.012 151.36 57.012 148.112C57.012 146.544 56.7227 145.433 56.144 144.78C55.5653 144.108 54.5947 143.772 53.232 143.772C51.8693 143.772 50.7307 144.239 49.816 145.172V151.808C50.2453 152.163 50.7213 152.452 51.244 152.676C51.7853 152.881 52.42 152.984 53.148 152.984ZM67.4849 155.28C66.6449 155.28 65.8609 155.131 65.1329 154.832C64.4235 154.533 63.8542 154.085 63.4249 153.488C62.9955 152.872 62.7809 152.116 62.7809 151.22C62.7809 149.951 63.2102 148.933 64.0689 148.168C64.9462 147.384 66.2902 146.992 68.1009 146.992H72.3569V146.404C72.3569 145.769 72.2542 145.265 72.0489 144.892C71.8622 144.519 71.5075 144.248 70.9849 144.08C70.4809 143.912 69.7342 143.828 68.7449 143.828C67.1769 143.828 65.7115 144.061 64.3489 144.528V142.26C64.9462 142.017 65.6742 141.821 66.5329 141.672C67.3915 141.523 68.3155 141.448 69.3049 141.448C71.2462 141.448 72.7209 141.84 73.7289 142.624C74.7555 143.408 75.2689 144.687 75.2689 146.46V155H72.6649L72.4689 153.656C71.9275 154.179 71.2555 154.58 70.4529 154.86C69.6689 155.14 68.6795 155.28 67.4849 155.28ZM68.2969 153.096C69.2115 153.096 70.0049 152.947 70.6769 152.648C71.3675 152.331 71.9275 151.911 72.3569 151.388V149.064H68.1569C67.2609 149.064 66.6075 149.241 66.1969 149.596C65.8049 149.932 65.6089 150.455 65.6089 151.164C65.6089 151.855 65.8422 152.349 66.3089 152.648C66.7755 152.947 67.4382 153.096 68.2969 153.096ZM78.9334 155V141.728H81.7334L81.9014 143.268C82.536 142.857 83.292 142.484 84.1694 142.148C85.0467 141.812 85.9147 141.579 86.7734 141.448V143.772C86.2507 143.865 85.6814 144.005 85.0654 144.192C84.468 144.36 83.8987 144.556 83.3574 144.78C82.816 144.985 82.3587 145.2 81.9854 145.424V155H78.9334ZM92.5722 155.28C91.7322 155.28 90.9482 155.131 90.2202 154.832C89.5109 154.533 88.9416 154.085 88.5122 153.488C88.0829 152.872 87.8682 152.116 87.8682 151.22C87.8682 149.951 88.2976 148.933 89.1562 148.168C90.0336 147.384 91.3776 146.992 93.1882 146.992H97.4442V146.404C97.4442 145.769 97.3416 145.265 97.1362 144.892C96.9496 144.519 96.5949 144.248 96.0722 144.08C95.5682 143.912 94.8216 143.828 93.8322 143.828C92.2642 143.828 90.7989 144.061 89.4362 144.528V142.26C90.0336 142.017 90.7616 141.821 91.6202 141.672C92.4789 141.523 93.4029 141.448 94.3922 141.448C96.3336 141.448 97.8082 141.84 98.8162 142.624C99.8429 143.408 100.356 144.687 100.356 146.46V155H97.7522L97.5562 153.656C97.0149 154.179 96.3429 154.58 95.5402 154.86C94.7562 155.14 93.7669 155.28 92.5722 155.28ZM93.3842 153.096C94.2989 153.096 95.0922 152.947 95.7642 152.648C96.4549 152.331 97.0149 151.911 97.4442 151.388V149.064H93.2442C92.3482 149.064 91.6949 149.241 91.2842 149.596C90.8922 149.932 90.6962 150.455 90.6962 151.164C90.6962 151.855 90.9296 152.349 91.3962 152.648C91.8629 152.947 92.5256 153.096 93.3842 153.096ZM117.11 155.28C114.721 155.28 112.966 154.683 111.846 153.488C110.745 152.293 110.194 150.585 110.194 148.364C110.194 146.143 110.754 144.435 111.874 143.24C112.994 142.045 114.739 141.448 117.11 141.448C119.499 141.448 121.254 142.045 122.374 143.24C123.494 144.435 124.054 146.143 124.054 148.364C124.054 150.585 123.494 152.293 122.374 153.488C121.273 154.683 119.518 155.28 117.11 155.28ZM117.11 152.704C118.51 152.704 119.499 152.368 120.078 151.696C120.675 151.005 120.974 149.895 120.974 148.364C120.974 146.833 120.675 145.732 120.078 145.06C119.499 144.388 118.51 144.052 117.11 144.052C115.729 144.052 114.739 144.388 114.142 145.06C113.563 145.732 113.274 146.833 113.274 148.364C113.274 149.895 113.563 151.005 114.142 151.696C114.739 152.368 115.729 152.704 117.11 152.704ZM134.036 161.048V141.728H136.668L136.836 143.044C137.434 142.503 138.087 142.101 138.796 141.84C139.506 141.579 140.346 141.448 141.316 141.448C143.22 141.448 144.704 141.971 145.768 143.016C146.832 144.043 147.365 145.751 147.365 148.14C147.365 150.529 146.814 152.321 145.712 153.516C144.611 154.692 143.108 155.28 141.204 155.28C139.599 155.28 138.227 154.907 137.088 154.16V161.048H134.036ZM140.42 152.984C142.996 152.984 144.284 151.36 144.284 148.112C144.284 146.544 143.995 145.433 143.416 144.78C142.838 144.108 141.867 143.772 140.504 143.772C139.142 143.772 138.003 144.239 137.088 145.172V151.808C137.518 152.163 137.994 152.452 138.516 152.676C139.058 152.881 139.692 152.984 140.42 152.984ZM155.205 140.384L157.305 135.428H159.993L157.641 140.384H155.205ZM155.401 155.28C153.815 155.28 152.592 154.841 151.733 153.964C150.893 153.087 150.473 151.799 150.473 150.1V141.728H153.525V150.1C153.525 151.089 153.768 151.817 154.253 152.284C154.739 152.751 155.485 152.984 156.493 152.984C157.24 152.984 157.931 152.844 158.565 152.564C159.2 152.284 159.751 151.911 160.217 151.444V141.728H163.241V155H160.469L160.329 153.628C159.732 154.095 159.023 154.487 158.201 154.804C157.38 155.121 156.447 155.28 155.401 155.28ZM174.361 155.28C173.39 155.28 172.55 155.149 171.841 154.888C171.132 154.627 170.478 154.225 169.881 153.684L169.713 155H167.081V136.128H170.133V142.596C171.29 141.831 172.681 141.448 174.305 141.448C176.19 141.448 177.674 141.989 178.757 143.072C179.858 144.136 180.409 145.863 180.409 148.252C180.409 150.66 179.868 152.433 178.785 153.572C177.702 154.711 176.228 155.28 174.361 155.28ZM173.549 152.984C174.93 152.984 175.901 152.592 176.461 151.808C177.04 151.024 177.329 149.839 177.329 148.252C177.329 146.609 177.021 145.452 176.405 144.78C175.789 144.108 174.818 143.772 173.493 143.772C172.112 143.772 170.992 144.155 170.133 144.92V151.584C171.01 152.517 172.149 152.984 173.549 152.984ZM186.962 155.28C185.879 155.28 185.058 155.019 184.498 154.496C183.938 153.955 183.658 153.068 183.658 151.836V136.128H186.71V151.556C186.71 152.079 186.803 152.433 186.99 152.62C187.176 152.807 187.456 152.9 187.83 152.9C188.278 152.9 188.707 152.844 189.118 152.732V154.944C188.763 155.075 188.418 155.159 188.082 155.196C187.764 155.252 187.391 155.28 186.962 155.28ZM191.921 138.956V136.436H195.253V138.956H191.921ZM192.173 155V144.052H190.157L190.437 141.728H195.225V155H192.173ZM205.589 155.28C203.256 155.28 201.492 154.692 200.297 153.516C199.103 152.321 198.505 150.604 198.505 148.364C198.505 146.031 199.159 144.295 200.465 143.156C201.791 142.017 203.555 141.448 205.757 141.448C206.672 141.448 207.437 141.513 208.053 141.644C208.688 141.775 209.295 141.98 209.873 142.26V144.528C208.903 144.043 207.727 143.8 206.345 143.8C204.815 143.8 203.639 144.145 202.817 144.836C201.996 145.508 201.585 146.684 201.585 148.364C201.585 149.951 201.949 151.117 202.677 151.864C203.405 152.592 204.609 152.956 206.289 152.956C207.615 152.956 208.819 152.704 209.901 152.2V154.524C209.285 154.767 208.623 154.953 207.913 155.084C207.223 155.215 206.448 155.28 205.589 155.28ZM218.963 155.28C216.574 155.28 214.819 154.683 213.699 153.488C212.598 152.293 212.047 150.585 212.047 148.364C212.047 146.143 212.607 144.435 213.727 143.24C214.847 142.045 216.592 141.448 218.963 141.448C221.352 141.448 223.107 142.045 224.227 143.24C225.347 144.435 225.907 146.143 225.907 148.364C225.907 150.585 225.347 152.293 224.227 153.488C223.126 154.683 221.371 155.28 218.963 155.28ZM218.963 152.704C220.363 152.704 221.352 152.368 221.931 151.696C222.528 151.005 222.827 149.895 222.827 148.364C222.827 146.833 222.528 145.732 221.931 145.06C221.352 144.388 220.363 144.052 218.963 144.052C217.582 144.052 216.592 144.388 215.995 145.06C215.416 145.732 215.127 146.833 215.127 148.364C215.127 149.895 215.416 151.005 215.995 151.696C216.592 152.368 217.582 152.704 218.963 152.704ZM235.89 155V141.728H238.69L238.83 143.128C239.427 142.661 240.136 142.269 240.958 141.952C241.798 141.616 242.722 141.448 243.73 141.448C245.447 141.448 246.698 141.849 247.482 142.652C248.266 143.455 248.658 144.705 248.658 146.404V155H245.634V146.544C245.634 145.517 245.419 144.799 244.99 144.388C244.579 143.977 243.795 143.772 242.638 143.772C241.947 143.772 241.266 143.912 240.594 144.192C239.94 144.472 239.39 144.836 238.942 145.284V155H235.89ZM258.44 155.28C256.051 155.28 254.296 154.683 253.176 153.488C252.075 152.293 251.524 150.585 251.524 148.364C251.524 146.143 252.084 144.435 253.204 143.24C254.324 142.045 256.069 141.448 258.44 141.448C260.829 141.448 262.584 142.045 263.704 143.24C264.824 144.435 265.384 146.143 265.384 148.364C265.384 150.585 264.824 152.293 263.704 153.488C262.603 154.683 260.848 155.28 258.44 155.28ZM258.44 152.704C259.84 152.704 260.829 152.368 261.408 151.696C262.005 151.005 262.304 149.895 262.304 148.364C262.304 146.833 262.005 145.732 261.408 145.06C260.829 144.388 259.84 144.052 258.44 144.052C257.059 144.052 256.069 144.388 255.472 145.06C254.893 145.732 254.604 146.833 254.604 148.364C254.604 149.895 254.893 151.005 255.472 151.696C256.069 152.368 257.059 152.704 258.44 152.704ZM46.764 194.048V174.728H49.396L49.564 176.044C50.1613 175.503 50.8147 175.101 51.524 174.84C52.2333 174.579 53.0733 174.448 54.044 174.448C55.948 174.448 57.432 174.971 58.496 176.016C59.56 177.043 60.092 178.751 60.092 181.14C60.092 183.529 59.5413 185.321 58.44 186.516C57.3387 187.692 55.836 188.28 53.932 188.28C52.3267 188.28 50.9547 187.907 49.816 187.16V194.048H46.764ZM53.148 185.984C55.724 185.984 57.012 184.36 57.012 181.112C57.012 179.544 56.7227 178.433 56.144 177.78C55.5653 177.108 54.5947 176.772 53.232 176.772C51.8693 176.772 50.7307 177.239 49.816 178.172V184.808C50.2453 185.163 50.7213 185.452 51.244 185.676C51.7853 185.881 52.42 185.984 53.148 185.984ZM63.3409 188V174.728H66.1409L66.3089 176.268C66.9435 175.857 67.6995 175.484 68.5769 175.148C69.4542 174.812 70.3222 174.579 71.1809 174.448V176.772C70.6582 176.865 70.0889 177.005 69.4729 177.192C68.8755 177.36 68.3062 177.556 67.7649 177.78C67.2235 177.985 66.7662 178.2 66.3929 178.424V188H63.3409ZM78.1485 173.384L80.2485 168.428H82.9365L80.5845 173.384H78.1485ZM79.4925 188.28C77.1032 188.28 75.3485 187.683 74.2285 186.488C73.1272 185.293 72.5765 183.585 72.5765 181.364C72.5765 179.143 73.1365 177.435 74.2565 176.24C75.3765 175.045 77.1218 174.448 79.4925 174.448C81.8818 174.448 83.6365 175.045 84.7565 176.24C85.8765 177.435 86.4365 179.143 86.4365 181.364C86.4365 183.585 85.8765 185.293 84.7565 186.488C83.6552 187.683 81.9005 188.28 79.4925 188.28ZM79.4925 185.704C80.8925 185.704 81.8818 185.368 82.4605 184.696C83.0578 184.005 83.3565 182.895 83.3565 181.364C83.3565 179.833 83.0578 178.732 82.4605 178.06C81.8818 177.388 80.8925 177.052 79.4925 177.052C78.1112 177.052 77.1218 177.388 76.5245 178.06C75.9458 178.732 75.6565 179.833 75.6565 181.364C75.6565 182.895 75.9458 184.005 76.5245 184.696C77.1218 185.368 78.1112 185.704 79.4925 185.704ZM87.5042 188L92.5722 181.252L87.7002 174.728H90.9762L94.2242 179.152L97.4722 174.728H100.748L95.9042 181.252L100.944 188H97.6402L94.2242 183.38L90.8082 188H87.5042ZM103.965 171.956V169.436H107.297V171.956H103.965ZM104.217 188V177.052H102.201L102.481 174.728H107.269V188H104.217ZM111.109 188V174.728H113.909L114.049 176.128C114.703 175.605 115.421 175.195 116.205 174.896C116.989 174.597 117.829 174.448 118.725 174.448C119.677 174.448 120.415 174.607 120.937 174.924C121.479 175.223 121.889 175.643 122.169 176.184C122.785 175.68 123.495 175.269 124.297 174.952C125.1 174.616 126.061 174.448 127.181 174.448C128.712 174.448 129.841 174.84 130.569 175.624C131.297 176.408 131.661 177.612 131.661 179.236V188H128.665V179.544C128.665 178.517 128.451 177.799 128.021 177.388C127.592 176.977 126.892 176.772 125.921 176.772C125.287 176.772 124.68 176.884 124.101 177.108C123.541 177.332 123.056 177.668 122.645 178.116C122.701 178.321 122.739 178.536 122.757 178.76C122.776 178.984 122.785 179.227 122.785 179.488V188H119.957V179.572C119.957 178.601 119.789 177.892 119.453 177.444C119.117 176.996 118.483 176.772 117.549 176.772C116.896 176.772 116.271 176.931 115.673 177.248C115.095 177.547 114.572 177.911 114.105 178.34V188H111.109ZM141.452 188.28C139.063 188.28 137.308 187.683 136.188 186.488C135.087 185.293 134.536 183.585 134.536 181.364C134.536 179.143 135.096 177.435 136.216 176.24C137.336 175.045 139.082 174.448 141.452 174.448C143.842 174.448 145.596 175.045 146.716 176.24C147.836 177.435 148.396 179.143 148.396 181.364C148.396 183.585 147.836 185.293 146.716 186.488C145.615 187.683 143.86 188.28 141.452 188.28ZM141.452 185.704C142.852 185.704 143.842 185.368 144.42 184.696C145.018 184.005 145.316 182.895 145.316 181.364C145.316 179.833 145.018 178.732 144.42 178.06C143.842 177.388 142.852 177.052 141.452 177.052C140.071 177.052 139.082 177.388 138.484 178.06C137.906 178.732 137.616 179.833 137.616 181.364C137.616 182.895 137.906 184.005 138.484 184.696C139.082 185.368 140.071 185.704 141.452 185.704ZM162.803 188.28C161.888 188.28 161.011 188.215 160.171 188.084C159.35 187.953 158.668 187.795 158.127 187.608V185.032C158.762 185.275 159.462 185.461 160.227 185.592C160.992 185.723 161.72 185.788 162.411 185.788C163.456 185.788 164.203 185.695 164.651 185.508C165.099 185.321 165.323 184.957 165.323 184.416C165.323 184.024 165.183 183.716 164.903 183.492C164.642 183.268 164.24 183.063 163.699 182.876C163.176 182.689 162.504 182.465 161.683 182.204C160.899 181.943 160.218 181.663 159.639 181.364C159.06 181.047 158.612 180.645 158.295 180.16C157.978 179.675 157.819 179.04 157.819 178.256C157.819 177.043 158.258 176.109 159.135 175.456C160.012 174.784 161.422 174.448 163.363 174.448C164.128 174.448 164.856 174.504 165.547 174.616C166.238 174.728 166.826 174.868 167.311 175.036V177.584C166.788 177.379 166.21 177.22 165.575 177.108C164.959 176.996 164.38 176.94 163.839 176.94C162.868 176.94 162.131 177.024 161.627 177.192C161.142 177.36 160.899 177.696 160.899 178.2C160.899 178.723 161.151 179.096 161.655 179.32C162.178 179.525 163.008 179.815 164.147 180.188C165.192 180.505 166.023 180.841 166.639 181.196C167.255 181.551 167.694 181.98 167.955 182.484C168.235 182.969 168.375 183.604 168.375 184.388C168.375 185.695 167.899 186.675 166.947 187.328C165.995 187.963 164.614 188.28 162.803 188.28ZM176.081 173.384L178.181 168.428H180.869L178.517 173.384H176.081ZM175.381 188.28C174.541 188.28 173.757 188.131 173.029 187.832C172.32 187.533 171.75 187.085 171.321 186.488C170.892 185.872 170.677 185.116 170.677 184.22C170.677 182.951 171.106 181.933 171.965 181.168C172.842 180.384 174.186 179.992 175.997 179.992H180.253V179.404C180.253 178.769 180.15 178.265 179.945 177.892C179.758 177.519 179.404 177.248 178.881 177.08C178.377 176.912 177.63 176.828 176.641 176.828C175.073 176.828 173.608 177.061 172.245 177.528V175.26C172.842 175.017 173.57 174.821 174.429 174.672C175.288 174.523 176.212 174.448 177.201 174.448C179.142 174.448 180.617 174.84 181.625 175.624C182.652 176.408 183.165 177.687 183.165 179.46V188H180.561L180.365 186.656C179.824 187.179 179.152 187.58 178.349 187.86C177.565 188.14 176.576 188.28 175.381 188.28ZM176.193 186.096C177.108 186.096 177.901 185.947 178.573 185.648C179.264 185.331 179.824 184.911 180.253 184.388V182.064H176.053C175.157 182.064 174.504 182.241 174.093 182.596C173.701 182.932 173.505 183.455 173.505 184.164C173.505 184.855 173.738 185.349 174.205 185.648C174.672 185.947 175.334 186.096 176.193 186.096ZM194.164 188.28C193.194 188.28 192.354 188.149 191.644 187.888C190.935 187.627 190.282 187.225 189.684 186.684L189.516 188H186.884V169.128H189.936V175.596C191.094 174.831 192.484 174.448 194.108 174.448C195.994 174.448 197.478 174.989 198.56 176.072C199.662 177.136 200.212 178.863 200.212 181.252C200.212 183.66 199.671 185.433 198.588 186.572C197.506 187.711 196.031 188.28 194.164 188.28ZM193.352 185.984C194.734 185.984 195.704 185.592 196.264 184.808C196.843 184.024 197.132 182.839 197.132 181.252C197.132 179.609 196.824 178.452 196.208 177.78C195.592 177.108 194.622 176.772 193.296 176.772C191.915 176.772 190.795 177.155 189.936 177.92V184.584C190.814 185.517 191.952 185.984 193.352 185.984ZM207.605 188.28C206.765 188.28 205.981 188.131 205.253 187.832C204.544 187.533 203.975 187.085 203.545 186.488C203.116 185.872 202.901 185.116 202.901 184.22C202.901 182.951 203.331 181.933 204.189 181.168C205.067 180.384 206.411 179.992 208.221 179.992H212.477V179.404C212.477 178.769 212.375 178.265 212.169 177.892C211.983 177.519 211.628 177.248 211.105 177.08C210.601 176.912 209.855 176.828 208.865 176.828C207.297 176.828 205.832 177.061 204.469 177.528V175.26C205.067 175.017 205.795 174.821 206.653 174.672C207.512 174.523 208.436 174.448 209.425 174.448C211.367 174.448 212.841 174.84 213.849 175.624C214.876 176.408 215.389 177.687 215.389 179.46V188H212.785L212.589 186.656C212.048 187.179 211.376 187.58 210.573 187.86C209.789 188.14 208.8 188.28 207.605 188.28ZM208.417 186.096C209.332 186.096 210.125 185.947 210.797 185.648C211.488 185.331 212.048 184.911 212.477 184.388V182.064H208.277C207.381 182.064 206.728 182.241 206.317 182.596C205.925 182.932 205.729 183.455 205.729 184.164C205.729 184.855 205.963 185.349 206.429 185.648C206.896 185.947 207.559 186.096 208.417 186.096ZM224.542 188.28C223.347 188.28 222.292 188.075 221.378 187.664C220.463 187.253 219.754 186.572 219.25 185.62C218.746 184.668 218.494 183.389 218.494 181.784C218.494 180.197 218.764 178.863 219.306 177.78C219.847 176.679 220.594 175.848 221.546 175.288C222.516 174.728 223.608 174.448 224.822 174.448C225.624 174.448 226.334 174.541 226.95 174.728C227.584 174.915 228.191 175.204 228.77 175.596V169.128H231.822V188H229.218L229.022 186.684C228.424 187.225 227.771 187.627 227.062 187.888C226.352 188.149 225.512 188.28 224.542 188.28ZM225.354 185.984C226.716 185.984 227.855 185.517 228.77 184.584V177.948C227.892 177.164 226.791 176.772 225.466 176.772C224.178 176.772 223.207 177.201 222.554 178.06C221.9 178.919 221.574 180.169 221.574 181.812C221.574 183.399 221.872 184.491 222.47 185.088C223.086 185.685 224.047 185.984 225.354 185.984ZM241.713 188.28C239.324 188.28 237.569 187.683 236.449 186.488C235.348 185.293 234.797 183.585 234.797 181.364C234.797 179.143 235.357 177.435 236.477 176.24C237.597 175.045 239.342 174.448 241.713 174.448C244.102 174.448 245.857 175.045 246.977 176.24C248.097 177.435 248.657 179.143 248.657 181.364C248.657 183.585 248.097 185.293 246.977 186.488C245.876 187.683 244.121 188.28 241.713 188.28ZM241.713 185.704C243.113 185.704 244.102 185.368 244.681 184.696C245.278 184.005 245.577 182.895 245.577 181.364C245.577 179.833 245.278 178.732 244.681 178.06C244.102 177.388 243.113 177.052 241.713 177.052C240.332 177.052 239.342 177.388 238.745 178.06C238.166 178.732 237.877 179.833 237.877 181.364C237.877 182.895 238.166 184.005 238.745 184.696C239.342 185.368 240.332 185.704 241.713 185.704ZM251.347 188V185.62H253.923V188H251.347Z" fill="white"/>
<path d="M46.764 235V216.968H49.816V232.648H59.056V235H46.764ZM61.8906 218.956V216.436H65.2226V218.956H61.8906ZM62.1426 235V224.052H60.1266L60.4066 221.728H65.1946V235H62.1426ZM69.0349 235V221.728H71.8349L71.9749 223.128C72.6283 222.605 73.3469 222.195 74.1309 221.896C74.9149 221.597 75.7549 221.448 76.6509 221.448C77.6029 221.448 78.3403 221.607 78.8629 221.924C79.4043 222.223 79.8149 222.643 80.0949 223.184C80.7109 222.68 81.4203 222.269 82.2229 221.952C83.0256 221.616 83.9869 221.448 85.1069 221.448C86.6376 221.448 87.7669 221.84 88.4949 222.624C89.2229 223.408 89.5869 224.612 89.5869 226.236V235H86.5909V226.544C86.5909 225.517 86.3763 224.799 85.9469 224.388C85.5176 223.977 84.8176 223.772 83.8469 223.772C83.2123 223.772 82.6056 223.884 82.0269 224.108C81.4669 224.332 80.9816 224.668 80.5709 225.116C80.6269 225.321 80.6643 225.536 80.6829 225.76C80.7016 225.984 80.7109 226.227 80.7109 226.488V235H77.8829V226.572C77.8829 225.601 77.7149 224.892 77.3789 224.444C77.0429 223.996 76.4083 223.772 75.4749 223.772C74.8216 223.772 74.1963 223.931 73.5989 224.248C73.0203 224.547 72.4976 224.911 72.0309 225.34V235H69.0349ZM93.2954 241.048V221.728H95.9274L96.0954 223.044C96.6927 222.503 97.3461 222.101 98.0554 221.84C98.7647 221.579 99.6047 221.448 100.575 221.448C102.479 221.448 103.963 221.971 105.027 223.016C106.091 224.043 106.623 225.751 106.623 228.14C106.623 230.529 106.073 232.321 104.971 233.516C103.87 234.692 102.367 235.28 100.463 235.28C98.8581 235.28 97.4861 234.907 96.3474 234.16V241.048H93.2954ZM99.6794 232.984C102.255 232.984 103.543 231.36 103.543 228.112C103.543 226.544 103.254 225.433 102.675 224.78C102.097 224.108 101.126 223.772 99.7634 223.772C98.4007 223.772 97.2621 224.239 96.3474 225.172V231.808C96.7767 232.163 97.2527 232.452 97.7754 232.676C98.3167 232.881 98.9514 232.984 99.6794 232.984ZM114.016 235.28C113.176 235.28 112.392 235.131 111.664 234.832C110.955 234.533 110.386 234.085 109.956 233.488C109.527 232.872 109.312 232.116 109.312 231.22C109.312 229.951 109.742 228.933 110.6 228.168C111.478 227.384 112.822 226.992 114.632 226.992H118.888V226.404C118.888 225.769 118.786 225.265 118.58 224.892C118.394 224.519 118.039 224.248 117.516 224.08C117.012 223.912 116.266 223.828 115.276 223.828C113.708 223.828 112.243 224.061 110.88 224.528V222.26C111.478 222.017 112.206 221.821 113.064 221.672C113.923 221.523 114.847 221.448 115.836 221.448C117.778 221.448 119.252 221.84 120.26 222.624C121.287 223.408 121.8 224.687 121.8 226.46V235H119.196L119 233.656C118.459 234.179 117.787 234.58 116.984 234.86C116.2 235.14 115.211 235.28 114.016 235.28ZM114.828 233.096C115.743 233.096 116.536 232.947 117.208 232.648C117.899 232.331 118.459 231.911 118.888 231.388V229.064H114.688C113.792 229.064 113.139 229.241 112.728 229.596C112.336 229.932 112.14 230.455 112.14 231.164C112.14 231.855 112.374 232.349 112.84 232.648C113.307 232.947 113.97 233.096 114.828 233.096ZM125.465 235V221.728H128.265L128.433 223.268C129.067 222.857 129.823 222.484 130.701 222.148C131.578 221.812 132.446 221.579 133.305 221.448V223.772C132.782 223.865 132.213 224.005 131.597 224.192C130.999 224.36 130.43 224.556 129.889 224.78C129.347 224.985 128.89 225.2 128.517 225.424V235H125.465ZM148.896 235.28C146.507 235.28 144.752 234.683 143.632 233.488C142.531 232.293 141.98 230.585 141.98 228.364C141.98 226.143 142.54 224.435 143.66 223.24C144.78 222.045 146.526 221.448 148.896 221.448C151.286 221.448 153.04 222.045 154.16 223.24C155.28 224.435 155.84 226.143 155.84 228.364C155.84 230.585 155.28 232.293 154.16 233.488C153.059 234.683 151.304 235.28 148.896 235.28ZM148.896 232.704C150.296 232.704 151.286 232.368 151.864 231.696C152.462 231.005 152.76 229.895 152.76 228.364C152.76 226.833 152.462 225.732 151.864 225.06C151.286 224.388 150.296 224.052 148.896 224.052C147.515 224.052 146.526 224.388 145.928 225.06C145.35 225.732 145.06 226.833 145.06 228.364C145.06 229.895 145.35 231.005 145.928 231.696C146.526 232.368 147.515 232.704 148.896 232.704ZM163.377 235.28C162.463 235.28 161.585 235.215 160.745 235.084C159.924 234.953 159.243 234.795 158.701 234.608V232.032C159.336 232.275 160.036 232.461 160.801 232.592C161.567 232.723 162.295 232.788 162.985 232.788C164.031 232.788 164.777 232.695 165.225 232.508C165.673 232.321 165.897 231.957 165.897 231.416C165.897 231.024 165.757 230.716 165.477 230.492C165.216 230.268 164.815 230.063 164.273 229.876C163.751 229.689 163.079 229.465 162.257 229.204C161.473 228.943 160.792 228.663 160.213 228.364C159.635 228.047 159.187 227.645 158.869 227.16C158.552 226.675 158.393 226.04 158.393 225.256C158.393 224.043 158.832 223.109 159.709 222.456C160.587 221.784 161.996 221.448 163.937 221.448C164.703 221.448 165.431 221.504 166.121 221.616C166.812 221.728 167.4 221.868 167.885 222.036V224.584C167.363 224.379 166.784 224.22 166.149 224.108C165.533 223.996 164.955 223.94 164.413 223.94C163.443 223.94 162.705 224.024 162.201 224.192C161.716 224.36 161.473 224.696 161.473 225.2C161.473 225.723 161.725 226.096 162.229 226.32C162.752 226.525 163.583 226.815 164.721 227.188C165.767 227.505 166.597 227.841 167.213 228.196C167.829 228.551 168.268 228.98 168.529 229.484C168.809 229.969 168.949 230.604 168.949 231.388C168.949 232.695 168.473 233.675 167.521 234.328C166.569 234.963 165.188 235.28 163.377 235.28ZM53.484 268.28C51.1693 268.28 49.3773 267.711 48.108 266.572C46.8387 265.433 46.204 263.688 46.204 261.336C46.204 259.208 46.7453 257.528 47.828 256.296C48.9107 255.064 50.5533 254.448 52.756 254.448C54.772 254.448 56.284 254.98 57.292 256.044C58.3187 257.089 58.832 258.443 58.832 260.104V262.568H49.116C49.2653 263.856 49.732 264.743 50.516 265.228C51.3 265.713 52.4947 265.956 54.1 265.956C54.772 265.956 55.4627 265.891 56.172 265.76C56.8813 265.629 57.4973 265.461 58.02 265.256V267.496C57.4227 267.757 56.732 267.953 55.948 268.084C55.1827 268.215 54.3613 268.28 53.484 268.28ZM49.116 260.58H56.144V259.656C56.144 258.741 55.892 258.032 55.388 257.528C54.884 257.005 54.0347 256.744 52.84 256.744C51.4213 256.744 50.4413 257.052 49.9 257.668C49.3773 258.284 49.116 259.255 49.116 260.58ZM75.3551 274.776C74.1791 274.776 73.2924 274.477 72.6951 273.88C72.0977 273.283 71.7991 272.349 71.7991 271.08V267.16C70.6604 267.907 69.2884 268.28 67.6831 268.28C65.7791 268.28 64.2764 267.767 63.1751 266.74C62.0737 265.695 61.5231 263.977 61.5231 261.588C61.5231 259.199 62.0644 257.416 63.1471 256.24C64.2484 255.045 65.7324 254.448 67.5991 254.448C68.5697 254.448 69.4004 254.579 70.0911 254.84C70.8004 255.101 71.4537 255.503 72.0511 256.044L72.2471 254.728H74.8511V270.856C74.8511 271.435 74.9444 271.836 75.1311 272.06C75.3364 272.284 75.7191 272.396 76.2791 272.396C76.4657 272.396 76.6617 272.377 76.8671 272.34C77.0911 272.303 77.2871 272.265 77.4551 272.228V274.44C77.1377 274.552 76.8204 274.636 76.5031 274.692C76.1857 274.748 75.8031 274.776 75.3551 274.776ZM68.4671 265.984C69.1951 265.984 69.8297 265.881 70.3711 265.676C70.9124 265.452 71.3884 265.163 71.7991 264.808V258.172C70.8844 257.239 69.7551 256.772 68.4111 256.772C67.0484 256.772 66.0684 257.183 65.4711 258.004C64.8924 258.807 64.6031 259.992 64.6031 261.56C64.6031 263.203 64.9204 264.351 65.5551 265.004C66.1897 265.657 67.1604 265.984 68.4671 265.984ZM83.4479 268.28C81.8613 268.28 80.6386 267.841 79.7799 266.964C78.9399 266.087 78.5199 264.799 78.5199 263.1V254.728H81.5719V263.1C81.5719 264.089 81.8146 264.817 82.2999 265.284C82.7853 265.751 83.5319 265.984 84.5399 265.984C85.2866 265.984 85.9773 265.844 86.6119 265.564C87.2466 265.284 87.7973 264.911 88.2639 264.444V254.728H91.2879V268H88.5159L88.3759 266.628C87.7786 267.095 87.0693 267.487 86.2479 267.804C85.4266 268.121 84.4933 268.28 83.4479 268.28ZM96.2474 251.956V249.436H99.5794V251.956H96.2474ZM96.4994 268V257.052H94.4834L94.7634 254.728H99.5514V268H96.4994ZM103.392 274.048V254.728H106.024L106.192 256.044C106.789 255.503 107.442 255.101 108.152 254.84C108.861 254.579 109.701 254.448 110.672 254.448C112.576 254.448 114.06 254.971 115.124 256.016C116.188 257.043 116.72 258.751 116.72 261.14C116.72 263.529 116.169 265.321 115.068 266.516C113.966 267.692 112.464 268.28 110.56 268.28C108.954 268.28 107.582 267.907 106.444 267.16V274.048H103.392ZM109.776 265.984C112.352 265.984 113.64 264.36 113.64 261.112C113.64 259.544 113.35 258.433 112.772 257.78C112.193 257.108 111.222 256.772 109.86 256.772C108.497 256.772 107.358 257.239 106.444 258.172V264.808C106.873 265.163 107.349 265.452 107.872 265.676C108.413 265.881 109.048 265.984 109.776 265.984ZM124.113 268.28C123.273 268.28 122.489 268.131 121.761 267.832C121.051 267.533 120.482 267.085 120.053 266.488C119.623 265.872 119.409 265.116 119.409 264.22C119.409 262.951 119.838 261.933 120.697 261.168C121.574 260.384 122.918 259.992 124.729 259.992H128.985V259.404C128.985 258.769 128.882 258.265 128.677 257.892C128.49 257.519 128.135 257.248 127.613 257.08C127.109 256.912 126.362 256.828 125.373 256.828C123.805 256.828 122.339 257.061 120.977 257.528V255.26C121.574 255.017 122.302 254.821 123.161 254.672C124.019 254.523 124.943 254.448 125.933 254.448C127.874 254.448 129.349 254.84 130.357 255.624C131.383 256.408 131.897 257.687 131.897 259.46V268H129.293L129.097 266.656C128.555 267.179 127.883 267.58 127.081 267.86C126.297 268.14 125.307 268.28 124.113 268.28ZM124.925 266.096C125.839 266.096 126.633 265.947 127.305 265.648C127.995 265.331 128.555 264.911 128.985 264.388V262.064H124.785C123.889 262.064 123.235 262.241 122.825 262.596C122.433 262.932 122.237 263.455 122.237 264.164C122.237 264.855 122.47 265.349 122.937 265.648C123.403 265.947 124.066 266.096 124.925 266.096ZM135.561 268V254.728H138.361L138.501 256.128C139.155 255.605 139.873 255.195 140.657 254.896C141.441 254.597 142.281 254.448 143.177 254.448C144.129 254.448 144.867 254.607 145.389 254.924C145.931 255.223 146.341 255.643 146.621 256.184C147.237 255.68 147.947 255.269 148.749 254.952C149.552 254.616 150.513 254.448 151.633 254.448C153.164 254.448 154.293 254.84 155.021 255.624C155.749 256.408 156.113 257.612 156.113 259.236V268H153.117V259.544C153.117 258.517 152.903 257.799 152.473 257.388C152.044 256.977 151.344 256.772 150.373 256.772C149.739 256.772 149.132 256.884 148.553 257.108C147.993 257.332 147.508 257.668 147.097 258.116C147.153 258.321 147.191 258.536 147.209 258.76C147.228 258.984 147.237 259.227 147.237 259.488V268H144.409V259.572C144.409 258.601 144.241 257.892 143.905 257.444C143.569 256.996 142.935 256.772 142.001 256.772C141.348 256.772 140.723 256.931 140.125 257.248C139.547 257.547 139.024 257.911 138.557 258.34V268H135.561ZM166.268 268.28C163.954 268.28 162.162 267.711 160.892 266.572C159.623 265.433 158.988 263.688 158.988 261.336C158.988 259.208 159.53 257.528 160.612 256.296C161.695 255.064 163.338 254.448 165.54 254.448C167.556 254.448 169.068 254.98 170.076 256.044C171.103 257.089 171.616 258.443 171.616 260.104V262.568H161.9C162.05 263.856 162.516 264.743 163.3 265.228C164.084 265.713 165.279 265.956 166.884 265.956C167.556 265.956 168.247 265.891 168.956 265.76C169.666 265.629 170.282 265.461 170.804 265.256V267.496C170.207 267.757 169.516 267.953 168.732 268.084C167.967 268.215 167.146 268.28 166.268 268.28ZM161.9 260.58H168.928V259.656C168.928 258.741 168.676 258.032 168.172 257.528C167.668 257.005 166.819 256.744 165.624 256.744C164.206 256.744 163.226 257.052 162.684 257.668C162.162 258.284 161.9 259.255 161.9 260.58ZM174.867 268V254.728H177.667L177.807 256.128C178.405 255.661 179.114 255.269 179.935 254.952C180.775 254.616 181.699 254.448 182.707 254.448C184.425 254.448 185.675 254.849 186.459 255.652C187.243 256.455 187.635 257.705 187.635 259.404V268H184.611V259.544C184.611 258.517 184.397 257.799 183.967 257.388C183.557 256.977 182.773 256.772 181.615 256.772C180.925 256.772 180.243 256.912 179.571 257.192C178.918 257.472 178.367 257.836 177.919 258.284V268H174.867ZM196.403 268.28C194.984 268.28 193.92 267.907 193.211 267.16C192.52 266.395 192.175 265.359 192.175 264.052V257.108H190.215V254.728H192.175V251.676L195.199 250.752V254.728H198.727L198.531 257.108H195.199V263.884C195.199 264.649 195.376 265.191 195.731 265.508C196.085 265.807 196.664 265.956 197.467 265.956C197.971 265.956 198.503 265.863 199.063 265.676V267.832C198.335 268.131 197.448 268.28 196.403 268.28ZM208.033 268.28C205.644 268.28 203.889 267.683 202.769 266.488C201.668 265.293 201.117 263.585 201.117 261.364C201.117 259.143 201.677 257.435 202.797 256.24C203.917 255.045 205.663 254.448 208.033 254.448C210.423 254.448 212.177 255.045 213.297 256.24C214.417 257.435 214.977 259.143 214.977 261.364C214.977 263.585 214.417 265.293 213.297 266.488C212.196 267.683 210.441 268.28 208.033 268.28ZM208.033 265.704C209.433 265.704 210.423 265.368 211.001 264.696C211.599 264.005 211.897 262.895 211.897 261.364C211.897 259.833 211.599 258.732 211.001 258.06C210.423 257.388 209.433 257.052 208.033 257.052C206.652 257.052 205.663 257.388 205.065 258.06C204.487 258.732 204.197 259.833 204.197 261.364C204.197 262.895 204.487 264.005 205.065 264.696C205.663 265.368 206.652 265.704 208.033 265.704ZM222.514 268.28C221.599 268.28 220.722 268.215 219.882 268.084C219.061 267.953 218.379 267.795 217.838 267.608V265.032C218.473 265.275 219.173 265.461 219.938 265.592C220.703 265.723 221.431 265.788 222.122 265.788C223.167 265.788 223.914 265.695 224.362 265.508C224.81 265.321 225.034 264.957 225.034 264.416C225.034 264.024 224.894 263.716 224.614 263.492C224.353 263.268 223.951 263.063 223.41 262.876C222.887 262.689 222.215 262.465 221.394 262.204C220.61 261.943 219.929 261.663 219.35 261.364C218.771 261.047 218.323 260.645 218.006 260.16C217.689 259.675 217.53 259.04 217.53 258.256C217.53 257.043 217.969 256.109 218.846 255.456C219.723 254.784 221.133 254.448 223.074 254.448C223.839 254.448 224.567 254.504 225.258 254.616C225.949 254.728 226.537 254.868 227.022 255.036V257.584C226.499 257.379 225.921 257.22 225.286 257.108C224.67 256.996 224.091 256.94 223.55 256.94C222.579 256.94 221.842 257.024 221.338 257.192C220.853 257.36 220.61 257.696 220.61 258.2C220.61 258.723 220.862 259.096 221.366 259.32C221.889 259.525 222.719 259.815 223.858 260.188C224.903 260.505 225.734 260.841 226.35 261.196C226.966 261.551 227.405 261.98 227.666 262.484C227.946 262.969 228.086 263.604 228.086 264.388C228.086 265.695 227.61 266.675 226.658 267.328C225.706 267.963 224.325 268.28 222.514 268.28ZM242.235 268.28C241.395 268.28 240.611 268.131 239.883 267.832C239.174 267.533 238.605 267.085 238.175 266.488C237.746 265.872 237.531 265.116 237.531 264.22C237.531 262.951 237.961 261.933 238.819 261.168C239.697 260.384 241.041 259.992 242.851 259.992H247.107V259.404C247.107 258.769 247.005 258.265 246.799 257.892C246.613 257.519 246.258 257.248 245.736 257.08C245.231 256.912 244.485 256.828 243.495 256.828C241.927 256.828 240.462 257.061 239.099 257.528V255.26C239.697 255.017 240.425 254.821 241.283 254.672C242.142 254.523 243.066 254.448 244.056 254.448C245.997 254.448 247.471 254.84 248.479 255.624C249.506 256.408 250.02 257.687 250.02 259.46V268H247.416L247.22 266.656C246.678 267.179 246.006 267.58 245.203 267.86C244.419 268.14 243.43 268.28 242.235 268.28ZM243.047 266.096C243.962 266.096 244.755 265.947 245.427 265.648C246.118 265.331 246.678 264.911 247.107 264.388V262.064H242.907C242.011 262.064 241.358 262.241 240.947 262.596C240.555 262.932 240.359 263.455 240.359 264.164C240.359 264.855 240.593 265.349 241.059 265.648C241.526 265.947 242.189 266.096 243.047 266.096ZM253.684 274.048V254.728H256.316L256.484 256.044C257.081 255.503 257.735 255.101 258.444 254.84C259.153 254.579 259.993 254.448 260.964 254.448C262.868 254.448 264.352 254.971 265.416 256.016C266.48 257.043 267.012 258.751 267.012 261.14C267.012 263.529 266.461 265.321 265.36 266.516C264.259 267.692 262.756 268.28 260.852 268.28C259.247 268.28 257.875 267.907 256.736 267.16V274.048H253.684ZM260.068 265.984C262.644 265.984 263.932 264.36 263.932 261.112C263.932 259.544 263.643 258.433 263.064 257.78C262.485 257.108 261.515 256.772 260.152 256.772C258.789 256.772 257.651 257.239 256.736 258.172V264.808C257.165 265.163 257.641 265.452 258.164 265.676C258.705 265.881 259.34 265.984 260.068 265.984ZM275.273 253.384L277.373 248.428H280.061L277.709 253.384H275.273ZM276.617 268.28C274.228 268.28 272.473 267.683 271.353 266.488C270.252 265.293 269.701 263.585 269.701 261.364C269.701 259.143 270.261 257.435 271.381 256.24C272.501 255.045 274.246 254.448 276.617 254.448C279.006 254.448 280.761 255.045 281.881 256.24C283.001 257.435 283.561 259.143 283.561 261.364C283.561 263.585 283.001 265.293 281.881 266.488C280.78 267.683 279.025 268.28 276.617 268.28ZM276.617 265.704C278.017 265.704 279.006 265.368 279.585 264.696C280.182 264.005 280.481 262.895 280.481 261.364C280.481 259.833 280.182 258.732 279.585 258.06C279.006 257.388 278.017 257.052 276.617 257.052C275.236 257.052 274.246 257.388 273.649 258.06C273.07 258.732 272.781 259.833 272.781 261.364C272.781 262.895 273.07 264.005 273.649 264.696C274.246 265.368 275.236 265.704 276.617 265.704ZM291.098 268.28C290.183 268.28 289.306 268.215 288.466 268.084C287.644 267.953 286.963 267.795 286.422 267.608V265.032C287.056 265.275 287.756 265.461 288.522 265.592C289.287 265.723 290.015 265.788 290.706 265.788C291.751 265.788 292.498 265.695 292.946 265.508C293.394 265.321 293.618 264.957 293.618 264.416C293.618 264.024 293.478 263.716 293.198 263.492C292.936 263.268 292.535 263.063 291.994 262.876C291.471 262.689 290.799 262.465 289.978 262.204C289.194 261.943 288.512 261.663 287.934 261.364C287.355 261.047 286.907 260.645 286.59 260.16C286.272 259.675 286.114 259.04 286.114 258.256C286.114 257.043 286.552 256.109 287.43 255.456C288.307 254.784 289.716 254.448 291.658 254.448C292.423 254.448 293.151 254.504 293.842 254.616C294.532 254.728 295.12 254.868 295.606 255.036V257.584C295.083 257.379 294.504 257.22 293.87 257.108C293.254 256.996 292.675 256.94 292.134 256.94C291.163 256.94 290.426 257.024 289.922 257.192C289.436 257.36 289.194 257.696 289.194 258.2C289.194 258.723 289.446 259.096 289.95 259.32C290.472 259.525 291.303 259.815 292.442 260.188C293.487 260.505 294.318 260.841 294.934 261.196C295.55 261.551 295.988 261.98 296.25 262.484C296.53 262.969 296.67 263.604 296.67 264.388C296.67 265.695 296.194 266.675 295.242 267.328C294.29 267.963 292.908 268.28 291.098 268.28ZM313.031 268.28C310.642 268.28 308.887 267.683 307.767 266.488C306.666 265.293 306.115 263.585 306.115 261.364C306.115 259.143 306.675 257.435 307.795 256.24C308.915 255.045 310.66 254.448 313.031 254.448C315.42 254.448 317.175 255.045 318.295 256.24C319.415 257.435 319.975 259.143 319.975 261.364C319.975 263.585 319.415 265.293 318.295 266.488C317.194 267.683 315.439 268.28 313.031 268.28ZM313.031 265.704C314.431 265.704 315.42 265.368 315.999 264.696C316.596 264.005 316.895 262.895 316.895 261.364C316.895 259.833 316.596 258.732 315.999 258.06C315.42 257.388 314.431 257.052 313.031 257.052C311.65 257.052 310.66 257.388 310.063 258.06C309.484 258.732 309.195 259.833 309.195 261.364C309.195 262.895 309.484 264.005 310.063 264.696C310.66 265.368 311.65 265.704 313.031 265.704ZM51.552 301.28C49.9653 301.28 48.7427 300.841 47.884 299.964C47.044 299.087 46.624 297.799 46.624 296.1V287.728H49.676V296.1C49.676 297.089 49.9187 297.817 50.404 298.284C50.8893 298.751 51.636 298.984 52.644 298.984C53.3907 298.984 54.0813 298.844 54.716 298.564C55.3507 298.284 55.9013 297.911 56.368 297.444V287.728H59.392V301H56.62L56.48 299.628C55.8827 300.095 55.1733 300.487 54.352 300.804C53.5307 301.121 52.5973 301.28 51.552 301.28ZM67.6555 301.28C66.7408 301.28 65.8635 301.215 65.0235 301.084C64.2022 300.953 63.5208 300.795 62.9795 300.608V298.032C63.6142 298.275 64.3142 298.461 65.0795 298.592C65.8448 298.723 66.5728 298.788 67.2635 298.788C68.3088 298.788 69.0555 298.695 69.5035 298.508C69.9515 298.321 70.1755 297.957 70.1755 297.416C70.1755 297.024 70.0355 296.716 69.7555 296.492C69.4942 296.268 69.0928 296.063 68.5515 295.876C68.0288 295.689 67.3568 295.465 66.5355 295.204C65.7515 294.943 65.0702 294.663 64.4915 294.364C63.9128 294.047 63.4648 293.645 63.1475 293.16C62.8302 292.675 62.6715 292.04 62.6715 291.256C62.6715 290.043 63.1102 289.109 63.9875 288.456C64.8648 287.784 66.2742 287.448 68.2155 287.448C68.9808 287.448 69.7088 287.504 70.3995 287.616C71.0902 287.728 71.6782 287.868 72.1635 288.036V290.584C71.6408 290.379 71.0622 290.22 70.4275 290.108C69.8115 289.996 69.2328 289.94 68.6915 289.94C67.7208 289.94 66.9835 290.024 66.4795 290.192C65.9942 290.36 65.7515 290.696 65.7515 291.2C65.7515 291.723 66.0035 292.096 66.5075 292.32C67.0302 292.525 67.8608 292.815 68.9995 293.188C70.0448 293.505 70.8755 293.841 71.4915 294.196C72.1075 294.551 72.5462 294.98 72.8075 295.484C73.0875 295.969 73.2275 296.604 73.2275 297.388C73.2275 298.695 72.7515 299.675 71.7995 300.328C70.8475 300.963 69.4662 301.28 67.6555 301.28ZM82.4456 301.28C80.0563 301.28 78.3016 300.683 77.1816 299.488C76.0803 298.293 75.5296 296.585 75.5296 294.364C75.5296 292.143 76.0896 290.435 77.2096 289.24C78.3296 288.045 80.075 287.448 82.4456 287.448C84.835 287.448 86.5896 288.045 87.7096 289.24C88.8296 290.435 89.3896 292.143 89.3896 294.364C89.3896 296.585 88.8296 298.293 87.7096 299.488C86.6083 300.683 84.8536 301.28 82.4456 301.28ZM82.4456 298.704C83.8456 298.704 84.835 298.368 85.4136 297.696C86.011 297.005 86.3096 295.895 86.3096 294.364C86.3096 292.833 86.011 291.732 85.4136 291.06C84.835 290.388 83.8456 290.052 82.4456 290.052C81.0643 290.052 80.075 290.388 79.4776 291.06C78.899 291.732 78.6096 292.833 78.6096 294.364C78.6096 295.895 78.899 297.005 79.4776 297.696C80.075 298.368 81.0643 298.704 82.4456 298.704ZM103.908 286.384L106.008 281.428H108.696L106.344 286.384H103.908ZM106.092 301.28C103.778 301.28 101.986 300.711 100.716 299.572C99.4469 298.433 98.8123 296.688 98.8123 294.336C98.8123 292.208 99.3536 290.528 100.436 289.296C101.519 288.064 103.162 287.448 105.364 287.448C107.38 287.448 108.892 287.98 109.9 289.044C110.927 290.089 111.44 291.443 111.44 293.104V295.568H101.724C101.874 296.856 102.34 297.743 103.124 298.228C103.908 298.713 105.103 298.956 106.708 298.956C107.38 298.956 108.071 298.891 108.78 298.76C109.49 298.629 110.106 298.461 110.628 298.256V300.496C110.031 300.757 109.34 300.953 108.556 301.084C107.791 301.215 106.97 301.28 106.092 301.28ZM101.724 293.58H108.752V292.656C108.752 291.741 108.5 291.032 107.996 290.528C107.492 290.005 106.643 289.744 105.448 289.744C104.03 289.744 103.05 290.052 102.508 290.668C101.986 291.284 101.724 292.255 101.724 293.58ZM127.78 301.28C125.391 301.28 123.636 300.683 122.516 299.488C121.415 298.293 120.864 296.585 120.864 294.364C120.864 292.143 121.424 290.435 122.544 289.24C123.664 288.045 125.41 287.448 127.78 287.448C130.17 287.448 131.924 288.045 133.044 289.24C134.164 290.435 134.724 292.143 134.724 294.364C134.724 296.585 134.164 298.293 133.044 299.488C131.943 300.683 130.188 301.28 127.78 301.28ZM127.78 298.704C129.18 298.704 130.17 298.368 130.748 297.696C131.346 297.005 131.644 295.895 131.644 294.364C131.644 292.833 131.346 291.732 130.748 291.06C130.17 290.388 129.18 290.052 127.78 290.052C126.399 290.052 125.41 290.388 124.812 291.06C124.234 291.732 123.944 292.833 123.944 294.364C123.944 295.895 124.234 297.005 124.812 297.696C125.41 298.368 126.399 298.704 127.78 298.704ZM145.254 301.28C144.283 301.28 143.443 301.149 142.734 300.888C142.025 300.627 141.371 300.225 140.774 299.684L140.606 301H137.974V282.128H141.026V288.596C142.183 287.831 143.574 287.448 145.198 287.448C147.083 287.448 148.567 287.989 149.65 289.072C150.751 290.136 151.302 291.863 151.302 294.252C151.302 296.66 150.761 298.433 149.678 299.572C148.595 300.711 147.121 301.28 145.254 301.28ZM144.442 298.984C145.823 298.984 146.794 298.592 147.354 297.808C147.933 297.024 148.222 295.839 148.222 294.252C148.222 292.609 147.914 291.452 147.298 290.78C146.682 290.108 145.711 289.772 144.386 289.772C143.005 289.772 141.885 290.155 141.026 290.92V297.584C141.903 298.517 143.042 298.984 144.442 298.984ZM154.551 301V287.728H157.351L157.519 289.268C158.154 288.857 158.91 288.484 159.787 288.148C160.664 287.812 161.532 287.579 162.391 287.448V289.772C161.868 289.865 161.299 290.005 160.683 290.192C160.086 290.36 159.516 290.556 158.975 290.78C158.434 290.985 157.976 291.2 157.603 291.424V301H154.551ZM169.834 301.28C168.64 301.28 167.585 301.075 166.67 300.664C165.756 300.253 165.046 299.572 164.542 298.62C164.038 297.668 163.786 296.389 163.786 294.784C163.786 293.197 164.057 291.863 164.598 290.78C165.14 289.679 165.886 288.848 166.838 288.288C167.809 287.728 168.901 287.448 170.114 287.448C170.917 287.448 171.626 287.541 172.242 287.728C172.877 287.915 173.484 288.204 174.062 288.596V282.128H177.114V301H174.51L174.314 299.684C173.717 300.225 173.064 300.627 172.354 300.888C171.645 301.149 170.805 301.28 169.834 301.28ZM170.646 298.984C172.009 298.984 173.148 298.517 174.062 297.584V290.948C173.185 290.164 172.084 289.772 170.758 289.772C169.47 289.772 168.5 290.201 167.846 291.06C167.193 291.919 166.866 293.169 166.866 294.812C166.866 296.399 167.165 297.491 167.762 298.088C168.378 298.685 169.34 298.984 170.646 298.984ZM184.931 301.28C184.091 301.28 183.307 301.131 182.579 300.832C181.869 300.533 181.3 300.085 180.871 299.488C180.441 298.872 180.227 298.116 180.227 297.22C180.227 295.951 180.656 294.933 181.515 294.168C182.392 293.384 183.736 292.992 185.547 292.992H189.803V292.404C189.803 291.769 189.7 291.265 189.495 290.892C189.308 290.519 188.953 290.248 188.431 290.08C187.927 289.912 187.18 289.828 186.191 289.828C184.623 289.828 183.157 290.061 181.795 290.528V288.26C182.392 288.017 183.12 287.821 183.979 287.672C184.837 287.523 185.761 287.448 186.751 287.448C188.692 287.448 190.167 287.84 191.175 288.624C192.201 289.408 192.715 290.687 192.715 292.46V301H190.111L189.915 299.656C189.373 300.179 188.701 300.58 187.899 300.86C187.115 301.14 186.125 301.28 184.931 301.28ZM185.743 299.096C186.657 299.096 187.451 298.947 188.123 298.648C188.813 298.331 189.373 297.911 189.803 297.388V295.064H185.603C184.707 295.064 184.053 295.241 183.643 295.596C183.251 295.932 183.055 296.455 183.055 297.164C183.055 297.855 183.288 298.349 183.755 298.648C184.221 298.947 184.884 299.096 185.743 299.096ZM201.447 301.28C200.028 301.28 198.964 300.907 198.255 300.16C197.564 299.395 197.219 298.359 197.219 297.052V290.108H195.259V287.728H197.219V284.676L200.243 283.752V287.728H203.771L203.575 290.108H200.243V296.884C200.243 297.649 200.42 298.191 200.775 298.508C201.13 298.807 201.708 298.956 202.511 298.956C203.015 298.956 203.547 298.863 204.107 298.676V300.832C203.379 301.131 202.492 301.28 201.447 301.28ZM211.734 286.384L213.834 281.428H216.522L214.17 286.384H211.734ZM213.078 301.28C210.688 301.28 208.934 300.683 207.814 299.488C206.712 298.293 206.162 296.585 206.162 294.364C206.162 292.143 206.722 290.435 207.842 289.24C208.962 288.045 210.707 287.448 213.078 287.448C215.467 287.448 217.222 288.045 218.342 289.24C219.462 290.435 220.022 292.143 220.022 294.364C220.022 296.585 219.462 298.293 218.342 299.488C217.24 300.683 215.486 301.28 213.078 301.28ZM213.078 298.704C214.478 298.704 215.467 298.368 216.046 297.696C216.643 297.005 216.942 295.895 216.942 294.364C216.942 292.833 216.643 291.732 216.046 291.06C215.467 290.388 214.478 290.052 213.078 290.052C211.696 290.052 210.707 290.388 210.11 291.06C209.531 291.732 209.242 292.833 209.242 294.364C209.242 295.895 209.531 297.005 210.11 297.696C210.707 298.368 211.696 298.704 213.078 298.704ZM223.271 301V287.728H226.071L226.239 289.268C226.874 288.857 227.63 288.484 228.507 288.148C229.385 287.812 230.253 287.579 231.111 287.448V289.772C230.589 289.865 230.019 290.005 229.403 290.192C228.806 290.36 228.237 290.556 227.695 290.78C227.154 290.985 226.697 291.2 226.323 291.424V301H223.271ZM234.734 284.956V282.436H238.066V284.956H234.734ZM234.986 301V290.052H232.97L233.25 287.728H238.038V301H234.986ZM248.234 301.28C245.845 301.28 244.09 300.683 242.97 299.488C241.869 298.293 241.318 296.585 241.318 294.364C241.318 292.143 241.878 290.435 242.998 289.24C244.118 288.045 245.863 287.448 248.234 287.448C250.623 287.448 252.378 288.045 253.498 289.24C254.618 290.435 255.178 292.143 255.178 294.364C255.178 296.585 254.618 298.293 253.498 299.488C252.397 300.683 250.642 301.28 248.234 301.28ZM248.234 298.704C249.634 298.704 250.623 298.368 251.202 297.696C251.799 297.005 252.098 295.895 252.098 294.364C252.098 292.833 251.799 291.732 251.202 291.06C250.623 290.388 249.634 290.052 248.234 290.052C246.853 290.052 245.863 290.388 245.266 291.06C244.687 291.732 244.398 292.833 244.398 294.364C244.398 295.895 244.687 297.005 245.266 297.696C245.863 298.368 246.853 298.704 248.234 298.704ZM258.148 296.492L257.98 287.476V282.968H261.032V287.476L260.864 296.492H258.148ZM257.868 301V298.704H261.116V301H257.868Z" fill="white"/>
<line y1="72.5" x2="636" y2="72.5" stroke="white"/>
<path d="M551.43 283.492C552.417 283.553 552.963 282.326 552.215 281.611L552.141 281.315C552.151 281.292 552.16 281.268 552.17 281.244C552.759 279.839 554.382 279.173 555.791 279.755C560.244 281.597 555.542 285.828 555.896 288.691C556.02 289.679 559.891 289.734 559.672 290.703C561.73 286.203 562.812 281.289 562.811 276.348C562.81 275.106 562.742 273.865 562.602 272.626C562.488 271.613 562.33 270.607 562.126 269.609C561.021 264.217 558.632 259.082 555.187 254.794C553.532 253.889 554.541 252.474 553.707 250.779C553.407 250.168 550.734 250.154 550.622 249.484C550.742 249.5 552.47 247.705 551.899 246.817C551.524 246.233 551.641 245.49 552.123 244.991C552.17 244.942 552.215 244.89 552.256 244.835C553.681 242.901 555.646 243.238 556.673 245.865C558.864 246.97 558.886 248.804 557.542 250.568C556.687 251.69 556.57 253.209 555.82 254.41C555.897 254.509 555.978 254.605 556.055 254.704C557.471 256.519 558.697 258.471 559.73 260.521C559.437 258.242 559.867 255.496 560.601 253.726C561.442 251.695 563.025 249.986 564.411 248.229C566.067 246.13 569.437 247.083 569.73 249.74C569.732 249.765 569.735 249.791 569.738 249.816C569.533 249.932 569.332 250.055 569.136 250.185C568.017 250.925 568.405 252.659 569.73 252.863L569.761 252.867C569.687 253.606 567.067 255.931 566.882 256.651C568.654 263.492 567.328 264.396 561.878 264.51L561.592 264.918C562.108 266.403 562.524 267.923 562.836 269.464C563.13 270.893 563.334 272.339 563.449 273.79C563.592 275.622 563.58 277.462 563.426 279.291L563.435 279.226C563.827 277.212 564.92 275.331 566.507 274.027C568.871 272.084 572.211 271.367 574.762 269.805C575.99 269.053 577.564 270.023 577.35 271.447L577.34 271.516C576.96 271.67 576.589 271.849 576.231 272.05C576.026 272.166 575.825 272.289 575.628 272.419C574.51 273.16 574.898 274.894 576.224 275.097L576.254 275.101C576.275 275.105 576.294 275.108 576.316 275.111C575.664 276.658 569.461 278.841 568.325 280.08C567.22 286.056 567.763 285.878 562.677 284.14H562.674C562.119 286.561 561.308 288.927 560.265 291.182L551.648 291.185C551.617 291.089 551.589 290.99 551.562 290.895C552.358 290.944 553.161 290.897 553.946 290.752C553.306 289.968 552.667 289.177 552.027 288.393C552.012 288.377 551.999 288.362 551.987 288.347L551.977 288.335L551.09 285.414C551.16 284.767 551.275 284.124 551.43 283.492Z" fill="#F2F2F2"/>
<path d="M460.374 291.115L384.128 291.141C380.298 291.143 376.866 289.163 374.95 285.847C373.992 284.188 373.513 282.369 373.512 280.549C373.511 278.73 373.99 276.91 374.946 275.251L413.045 205.894C414.959 202.576 418.389 200.595 422.22 200.593C426.05 200.592 429.481 202.571 431.398 205.888L469.549 275.227C470.505 276.881 470.983 278.698 470.983 280.516C470.983 282.335 470.505 284.155 469.548 285.814C467.634 289.132 464.204 291.114 460.374 291.115ZM374.47 280.548C374.47 282.204 382.884 278.635 383.755 280.144C385.499 283.161 380.643 290.186 384.128 290.185C384.128 290.185 466.978 288.354 468.72 285.336C469.59 283.827 470.025 282.171 470.025 280.516C470.024 278.86 469.588 277.205 468.716 275.696L430.565 206.358C428.826 203.349 425.705 201.548 422.22 201.55C418.737 201.551 374.471 278.891 374.47 280.548Z" fill="#3F3D56"/>
<path d="M461.221 290.158C460.265 292.071 505.027 291.483 505.556 291.483C505.556 291.483 518.137 291.205 518.401 290.747C518.534 290.518 518.6 290.266 518.6 290.015C518.6 289.763 518.533 289.512 518.401 289.283L512.607 278.754C512.343 278.297 511.869 278.023 511.34 278.023C511.318 278.023 511.286 278.043 511.244 278.08C503.515 284.987 493.991 289.553 483.627 289.707C472.607 289.871 461.281 290.037 461.221 290.158Z" fill="#3F3D56"/>
<path d="M533.118 288.669L528.793 288.67L526.73 271.99L533.113 271.988L533.118 288.669Z" fill="#A0616A"/>
<path d="M518.3 288.577C518.166 288.803 518.095 289.535 518.095 289.799C518.095 290.61 518.753 291.267 519.563 291.266L532.957 291.262C533.51 291.262 533.958 290.813 533.958 290.26L533.958 289.702C533.958 289.702 534.62 288.026 533.255 285.961C533.255 285.961 531.56 287.579 529.026 285.047L528.278 283.694L522.872 287.65L519.875 288.02C519.219 288.101 518.637 288.008 518.3 288.577Z" fill="#2F2E41"/>
<path d="M516.535 274.402L512.438 275.788L505.141 260.647L511.187 258.601L516.535 274.402Z" fill="#A0616A"/>
<path d="M502.468 279.06C502.413 279.318 502.581 280.034 502.665 280.284C502.925 281.051 503.758 281.463 504.526 281.203L517.213 276.909C517.736 276.732 518.017 276.164 517.84 275.64L517.661 275.112C517.661 275.112 517.752 273.312 515.797 271.793C515.797 271.793 514.71 273.868 511.498 272.281L510.357 271.238L506.502 276.718L503.781 278.029C503.186 278.315 502.605 278.413 502.468 279.06Z" fill="#2F2E41"/>
<path d="M509.854 177.633L501.466 205.415L491.563 230.404L507.241 266.091L513.054 263.505L506.098 230.722L520.686 208.477L527.493 277.921L533.307 277.596L541.192 193.773L542.316 175.523L509.854 177.633Z" fill="#2F2E41"/>
<path d="M535.189 116.092L522.916 118.357L521.949 123.849L514.521 127.404L510.659 167.781C510.659 167.781 504.201 176.182 509.37 178.764L542.316 175.523C542.316 175.523 543.929 169.55 542.314 168.984C540.698 168.417 540.693 154.151 540.693 154.151L548.112 124.809L537.129 120.936L535.189 116.092Z" fill="#E6E6E6"/>
<path d="M527.95 115.986C533.424 115.986 537.861 111.549 537.861 106.075C537.861 100.601 533.424 96.1641 527.95 96.1641C522.476 96.1641 518.039 100.601 518.039 106.075C518.039 111.549 522.476 115.986 527.95 115.986Z" fill="#A0616A"/>
<path d="M534.513 107.546C533.722 107.979 534.473 110.046 533.978 110.225C533.407 110.431 531.324 108.06 531.298 105.404C531.29 104.6 531.475 104.214 531.297 103.261C531.065 102.015 530.35 100.544 529.689 100.583C529.297 100.606 528.915 101.16 528.886 101.655C528.846 102.348 529.519 102.621 529.422 102.994C529.238 103.705 526.411 104.196 525.404 102.995C524.615 102.054 525.22 100.402 524.868 100.317C524.608 100.255 524.328 101.164 523.261 102.193C522.859 102.58 522.261 103.156 521.922 102.997C521.432 102.766 521.788 101.143 521.653 101.122C521.542 101.104 521.472 102.245 520.851 103.265C520.052 104.576 518.405 105.586 517.637 105.141C517.166 104.869 517.129 104.11 517.1 103.534C517.041 102.32 515.277 99.5288 515.734 98.2305C516.662 95.588 518.253 97.4507 518.973 96.5689C519.947 95.375 520.822 96.0169 522.455 94.6926C524.05 93.3989 524.064 92.0985 525.133 92.013C526.095 91.9359 526.437 92.9623 527.544 92.8157C528.481 92.6916 528.685 91.8956 529.418 92.0115C530.09 92.1176 530.134 92.8189 531.026 93.0824C531.595 93.2507 531.721 93.0071 532.365 93.0819C533.707 93.2376 534.608 94.4594 534.777 94.6883C535.427 95.5706 535.175 95.9427 535.849 96.8309C536.43 97.5968 537.718 97.2715 538.202 97.6541C539.785 98.904 540.465 101.209 540.478 103.836C540.488 105.674 540.248 106.603 539.714 108.922C539.308 110.683 537.427 112.959 536.391 113.974C536.112 114.247 535.332 115.01 534.784 114.778C534.264 114.559 534.248 113.57 534.247 113.439C534.245 112.99 534.365 112.435 535.318 111.028C536.32 109.55 536.717 109.382 536.657 108.885C536.549 108.006 535.144 107.201 534.513 107.546Z" fill="#2F2E41"/>
<path d="M499.942 199.949C499.633 202.532 500.716 204.786 502.36 204.982C504.004 205.178 505.586 203.243 505.895 200.66C506.03 199.529 505.898 198.461 505.57 197.602L506.74 186.639L501.583 186.2L500.978 197.054C500.456 197.812 500.077 198.818 499.942 199.949Z" fill="#A0616A"/>
<path d="M514.763 127.144C514.763 127.144 512.091 127.182 510.323 130.636C509.383 132.472 504.354 166.798 504.354 166.798L499.722 194.918L507.613 194.958L513.761 168.327L518.934 152.882L514.763 127.144Z" fill="#E6E6E6"/>
<path d="M536.968 195.823C536.212 198.312 536.884 200.72 538.468 201.201C540.052 201.682 541.949 200.054 542.705 197.564C543.036 196.474 543.093 195.4 542.92 194.497L545.989 183.908L540.989 182.573L538.494 193.153C537.848 193.808 537.299 194.733 536.968 195.823Z" fill="#A0616A"/>
<path d="M542.46 125.295C542.46 125.295 546.335 122.387 549.567 126.908C552.798 131.429 554.103 168.574 554.103 168.574L545.067 191.511L538.283 189.252L544.733 161.148L533.421 139.834L542.46 125.295Z" fill="#E6E6E6"/>
<path d="M444.468 275.819C463.746 275.819 479.373 260.191 479.373 240.914C479.373 221.636 463.746 206.008 444.468 206.008C425.19 206.008 409.562 221.636 409.562 240.914C409.562 260.191 425.19 275.819 444.468 275.819Z" fill="#DF5031"/>
<path d="M444.474 262.311C446.244 262.311 447.679 260.876 447.679 259.106C447.679 257.336 446.244 255.901 444.474 255.901C442.704 255.901 441.269 257.336 441.269 259.106C441.269 260.876 442.704 262.311 444.474 262.311Z" fill="white"/>
<path d="M444.46 219.516C444.166 221.472 444.693 221.882 444.696 230.315C444.699 238.749 446.449 250.057 444.471 250.057C442.493 250.058 441.769 226.722 434.9 224.656C426.823 222.228 445.413 213.183 444.46 219.516Z" fill="white"/>
<path d="M397.62 258.735L394.466 265.398C398.278 262.664 404.233 260.308 408.972 259.046C404.557 256.913 399.154 253.474 395.926 250.07L397.74 257.11C376.475 252.779 361.203 236.465 361.197 217.777L360.429 217.513C360.435 237.033 375.495 254.313 397.62 258.735Z" fill="#3F3D56"/>
</svg>
