<svg width="116" height="35" viewBox="0 0 116 35" fill="none" xmlns="http://www.w3.org/2000/svg">
<path d="M28.4752 31.3226H26.0976C25.3423 31.3226 24.6181 31.0226 24.0841 30.4886C23.5501 29.9545 23.2501 29.2303 23.2501 28.4751V20.8295C23.2628 20.5297 23.1721 20.2346 22.9933 19.9935C22.8145 19.7525 22.5583 19.5802 22.2677 19.5054C22.0986 19.4797 21.9259 19.4905 21.7614 19.5372C21.5968 19.5839 21.4442 19.6653 21.3138 19.776C21.1795 19.8899 21.0718 20.0317 20.998 20.1915C20.9242 20.3514 20.8862 20.5254 20.8866 20.7014V28.4751C20.8866 29.2303 20.5866 29.9545 20.0526 30.4886C19.5186 31.0226 18.7943 31.3226 18.0391 31.3226H15.6615C14.9063 31.3226 14.182 31.0226 13.648 30.4886C13.114 29.9545 12.814 29.2303 12.814 28.4751V20.7014C12.814 19.4861 13.0533 18.2827 13.5184 17.1599C13.9835 16.0371 14.6652 15.0169 15.5245 14.1576C16.3839 13.2982 17.4041 12.6165 18.5268 12.1515C19.6496 11.6864 20.853 11.447 22.0683 11.447C23.2836 11.447 24.487 11.6864 25.6098 12.1515C26.7326 12.6165 27.7528 13.2982 28.6122 14.1576C29.4715 15.0169 30.1532 16.0371 30.6183 17.1599C31.0833 18.2827 31.3227 19.4861 31.3227 20.7014V28.4751C31.3227 29.2303 31.0227 29.9545 30.4887 30.4886C29.9547 31.0226 29.2304 31.3226 28.4752 31.3226ZM22.0683 16.6437C22.2912 16.6296 22.5147 16.6296 22.7375 16.6437C23.6934 16.8276 24.554 17.3421 25.1684 18.0971C25.7828 18.8521 26.1117 19.7993 26.0976 20.7726V28.4751H28.4752V20.7014C28.4752 19.0022 27.8002 17.3726 26.5987 16.1711C25.3972 14.9695 23.7675 14.2945 22.0683 14.2945C20.3691 14.2945 18.7395 14.9695 17.538 16.1711C16.3365 17.3726 15.6615 19.0022 15.6615 20.7014V28.4751H18.0391V20.7014C18.0391 19.6301 18.4627 18.6023 19.2175 17.8422C19.9723 17.082 20.9971 16.6512 22.0683 16.6437Z" fill="#F2F1FB"/>
<path d="M8.54266 31.3225H5.69516C4.93995 31.3225 4.21568 31.0225 3.68167 30.4885C3.14766 29.9545 2.84766 29.2302 2.84766 28.475V14.2375C2.84766 13.4823 3.14766 12.758 3.68167 12.224C4.21568 11.69 4.93995 11.39 5.69516 11.39H8.54266C9.29786 11.39 10.0221 11.69 10.5561 12.224C11.0902 12.758 11.3902 13.4823 11.3902 14.2375V28.475C11.3902 29.2302 11.0902 29.9545 10.5561 30.4885C10.0221 31.0225 9.29786 31.3225 8.54266 31.3225ZM5.69516 14.2375V28.475H8.54266V14.2375H5.69516Z" fill="#F2F1FB"/>
<path d="M7.11891 9.96621C6.27413 9.96621 5.44833 9.7157 4.74593 9.24637C4.04353 8.77704 3.49607 8.10996 3.17279 7.32949C2.84951 6.54903 2.76492 5.69022 2.92973 4.86168C3.09454 4.03314 3.50133 3.27207 4.09868 2.67473C4.69602 2.07738 5.45709 1.67059 6.28563 1.50578C7.11417 1.34097 7.97298 1.42556 8.75344 1.74884C9.53391 2.07212 10.201 2.61958 10.6703 3.32198C11.1397 4.02438 11.3902 4.85018 11.3902 5.69496C11.3902 6.82776 10.9402 7.91417 10.1391 8.71519C9.33812 9.5162 8.25171 9.96621 7.11891 9.96621ZM7.11891 4.27121C6.83732 4.27121 6.56205 4.35471 6.32792 4.51115C6.09378 4.6676 5.91129 4.88996 5.80353 5.15011C5.69577 5.41027 5.66758 5.69654 5.72251 5.97272C5.77745 6.2489 5.91305 6.50259 6.11217 6.7017C6.31128 6.90082 6.56497 7.03642 6.84115 7.09135C7.11733 7.14629 7.4036 7.11809 7.66375 7.01033C7.92391 6.90257 8.14627 6.72009 8.30271 6.48595C8.45916 6.25182 8.54266 5.97655 8.54266 5.69496C8.54266 5.31736 8.39266 4.95522 8.12565 4.68821C7.85865 4.42121 7.49651 4.27121 7.11891 4.27121Z" fill="#F2F1FB"/>
<path d="M57.5621 31H51.781C51.3977 31 51.0301 30.842 50.7591 30.5608C50.4881 30.2795 50.3358 29.8981 50.3358 29.5004V20.2026H47.4453C47.062 20.2026 46.6943 20.0446 46.4233 19.7634C46.1523 19.4821 46 19.1007 46 18.703V13.3043C46 12.9066 46.1523 12.5251 46.4233 12.2439C46.6943 11.9626 47.062 11.8046 47.4453 11.8046H50.3358V9.25526C50.4371 6.97034 51.4062 4.82 53.0312 3.27439C54.6561 1.72878 56.8048 0.913661 59.0074 1.00725H63.3431C63.7265 1.00725 64.0941 1.16525 64.3651 1.44649C64.6361 1.72772 64.7884 2.10916 64.7884 2.50689V7.90559C64.7884 8.30331 64.6361 8.68475 64.3651 8.96599C64.0941 9.24723 63.7265 9.40522 63.3431 9.40522H59.0074V11.8046H63.3431C63.5663 11.8029 63.7868 11.8548 63.9874 11.9562C64.188 12.0577 64.3632 12.206 64.4994 12.3895C64.634 12.5758 64.725 12.792 64.7651 13.021C64.8052 13.2501 64.7934 13.4857 64.7306 13.7092L63.2853 19.1079C63.1979 19.4323 63.0078 19.7166 62.7456 19.9152C62.4834 20.1138 62.1645 20.2151 61.8401 20.2026H59.0074V29.5004C59.0074 29.8981 58.8551 30.2795 58.5841 30.5608C58.313 30.842 57.9454 31 57.5621 31ZM53.2263 28.0007H56.1168V18.703C56.1168 18.3052 56.2691 17.9238 56.5401 17.6426C56.8112 17.3613 57.1788 17.2033 57.5621 17.2033H60.7995L61.4354 14.8039H57.5621C57.1788 14.8039 56.8112 14.6459 56.5401 14.3647C56.2691 14.0834 56.1168 13.702 56.1168 13.3043V9.25526C56.1539 8.48608 56.4748 7.76119 57.0129 7.23075C57.551 6.70031 58.2651 6.40499 59.0074 6.40595H61.8979V4.00653H59.0074C57.5719 3.91579 56.1599 4.41598 55.0777 5.39859C53.9954 6.3812 53.3302 7.76697 53.2263 9.25526V13.3043C53.2263 13.702 53.074 14.0834 52.803 14.3647C52.532 14.6459 52.1644 14.8039 51.781 14.8039H48.8905V17.2033H51.781C52.1644 17.2033 52.532 17.3613 52.803 17.6426C53.074 17.9238 53.2263 18.3052 53.2263 18.703V28.0007Z" fill="#F2F1FB"/>
<path d="M92.3496 31.9838H92.1997C89.1798 31.9573 86.2035 31.2597 83.4864 29.9413C82.9867 29.7065 82.5751 29.3179 82.3121 28.8324C82.0491 28.3469 81.9485 27.7899 82.0249 27.243C82.108 26.6924 82.3629 26.1822 82.7532 25.7851C83.1436 25.388 83.6494 25.1244 84.1985 25.0319C85.8823 24.8073 87.5022 24.2397 88.958 23.3642C86.4305 21.3882 84.4847 18.7651 83.3268 15.7731C82.1689 12.781 81.8421 9.53147 82.3809 6.36876C82.454 5.86781 82.6694 5.39838 83.0016 5.01636C83.3338 4.63433 83.7687 4.35579 84.2547 4.21388C84.7275 4.0654 85.2335 4.05905 85.7099 4.19563C86.1862 4.33221 86.612 4.6057 86.9343 4.98214C88.0286 6.41708 89.4037 7.61403 90.9759 8.49997C92.548 9.38591 94.2842 9.94228 96.0785 10.1351C96.1642 7.9275 97.1129 5.84169 98.7205 4.32631C99.5233 3.55762 100.471 2.95639 101.508 2.55763C102.546 2.15888 103.652 1.97059 104.763 2.00372C105.874 2.03686 106.967 2.29076 107.979 2.75064C108.991 3.21052 109.901 3.86717 110.657 4.68233C110.854 4.85635 111.098 4.96725 111.359 5.00066C111.619 5.03407 111.884 4.98845 112.118 4.86972C112.565 4.659 113.063 4.57968 113.553 4.64101C114.043 4.70233 114.505 4.90178 114.887 5.21608C115.268 5.53038 115.551 5.94657 115.705 6.41609C115.858 6.88561 115.875 7.3891 115.753 7.86781C115.321 9.64815 114.502 11.3115 113.355 12.7397C113.102 18.0702 110.752 23.0846 106.817 26.6895C102.882 30.2944 97.6818 32.1975 92.3496 31.9838ZM92.3496 28.2361H92.4995C94.6781 28.3111 96.8499 27.9528 98.889 27.1821C100.928 26.4113 102.794 25.2435 104.378 23.7463C105.963 22.249 107.234 20.4522 108.119 18.4599C109.004 16.4676 109.484 14.3195 109.532 12.1401C109.563 11.5428 109.81 10.977 110.226 10.5474C110.683 9.96882 111.073 9.34017 111.387 8.67355C110.712 8.67484 110.045 8.53363 109.428 8.25917C108.811 7.98471 108.259 7.58317 107.809 7.08081C107.375 6.65087 106.86 6.31176 106.294 6.08331C105.727 5.85487 105.121 5.74169 104.511 5.75041C103.894 5.73446 103.28 5.84047 102.705 6.06235C102.129 6.28422 101.603 6.6176 101.156 7.04334C100.554 7.61485 100.113 8.33452 99.8758 9.13032C99.6391 9.92613 99.6154 10.7702 99.8073 11.578L100.295 13.7141L98.1022 13.864C95.8557 14.0472 93.5962 13.7399 91.4802 12.9634C89.3642 12.1869 87.4422 10.9597 85.8474 9.36686C85.7791 11.8335 86.3961 14.2709 87.63 16.4078C88.8639 18.5448 90.6663 20.2977 92.8368 21.4717L94.6169 22.4835L93.4364 24.17C92.1597 25.8443 90.4105 27.0974 88.4146 27.7677C89.695 28.0886 91.0109 28.246 92.3308 28.2361H92.3496Z" fill="#F2F1FB"/>
</svg>
