<svg width="358" height="450" viewBox="0 0 358 450" fill="none" xmlns="http://www.w3.org/2000/svg">
<g clip-path="url(#clip0_62_420)">
<path d="M42.3697 442.866L52.9126 442.865L57.9279 402.199L42.3676 402.2L42.3697 442.866Z" fill="#FFB6B6"/>
<path d="M78.491 442.627C78.8193 443.179 78.9925 444.964 78.9925 445.607C78.9925 447.583 77.3905 449.185 75.4142 449.185H42.764C41.4159 449.185 40.3229 448.092 40.3229 446.744V445.385C40.3229 445.385 38.7077 441.299 42.0331 436.263C42.0331 436.263 46.1661 440.206 52.3418 434.031L54.163 430.732L67.3457 440.373L74.6527 441.272C76.2513 441.469 77.6687 441.242 78.491 442.627Z" fill="#2F2E41"/>
<path d="M100.434 442.866L110.977 442.865L115.992 402.199L100.432 402.2L100.434 442.866Z" fill="#FFB6B6"/>
<path d="M136.556 442.627C136.884 443.179 137.057 444.964 137.057 445.607C137.057 447.583 135.455 449.185 133.479 449.185H100.829C99.4804 449.185 98.3874 448.092 98.3874 446.744V445.385C98.3874 445.385 96.7722 441.299 100.098 436.263C100.098 436.263 104.231 440.206 110.406 434.031L112.227 430.732L125.41 440.373L132.717 441.272C134.316 441.469 135.733 441.242 136.556 442.627Z" fill="#2F2E41"/>
<path d="M96.1984 119.149C96.1984 119.149 108.341 113.62 116.094 119.149C123.848 124.679 130.761 174.449 122.466 182.744C114.171 191.038 100.346 172.375 100.346 172.375L96.1984 119.149Z" fill="#FFB6B6"/>
<path d="M50.3053 119.807C50.3053 119.807 38.1622 114.279 30.4092 119.807C22.6555 125.338 15.7431 175.107 24.038 183.402C32.3329 191.697 46.1578 173.034 46.1578 173.034L50.3053 119.807Z" fill="#FFB6B6"/>
<path d="M50.6509 180.983C50.6509 180.983 46.5035 199.647 41.6647 207.941L76.9182 228.679L104.568 210.706C104.568 210.706 91.4343 189.278 93.5081 183.057L50.6509 180.983Z" fill="#FFB6B6"/>
<path d="M290.84 440.793L277.301 440.792L270.86 388.569L290.843 388.57L290.84 440.793Z" fill="#FFB6B6"/>
<path d="M244.453 440.486C244.031 441.196 243.809 443.488 243.809 444.313C243.809 446.851 245.866 448.909 248.404 448.909H290.334C292.065 448.909 293.469 447.505 293.469 445.774V444.028C293.469 444.028 295.543 438.781 291.273 432.315C291.273 432.315 285.965 437.378 278.034 429.447L275.695 425.211L258.766 437.592L249.382 438.747C247.329 439 245.509 438.708 244.453 440.486Z" fill="#2F2E41"/>
<path d="M332.691 440.793L319.152 440.792L312.712 388.569L332.694 388.57L332.691 440.793Z" fill="#FFB6B6"/>
<path d="M286.304 440.486C285.883 441.196 285.66 443.488 285.66 444.313C285.66 446.851 287.718 448.909 290.256 448.909H332.185C333.916 448.909 335.32 447.505 335.32 445.774V444.028C335.32 444.028 337.394 438.781 333.124 432.315C333.124 432.315 327.816 437.378 319.885 429.447L317.547 425.211L300.617 437.592L291.234 438.747C289.181 439 287.36 438.708 286.304 440.486Z" fill="#2F2E41"/>
<path d="M262.673 139.531C262.673 139.531 260.712 152.153 262.983 160.298L229.636 219.432L242.608 228.886L285.928 174.381L291.932 147.451L262.673 139.531Z" fill="#FFB6B6"/>
<path d="M240.617 237.488C245.213 229.338 244.858 220.431 239.825 217.593C234.791 214.754 226.986 219.06 222.39 227.209C217.795 235.358 218.149 244.265 223.183 247.103C228.216 249.942 236.022 245.637 240.617 237.488Z" fill="#FFB6B6"/>
<path d="M275.682 199.695C275.682 199.695 259.738 210.946 265.219 227.741L260.735 284.394L270.7 400.98H292.163L295.611 317.277L309.561 264.465L311.37 400.98L337.96 400.482C337.96 400.482 339.455 332.224 337.462 328.238C335.469 324.252 337.462 327.449 337.462 327.449L353.904 247.512L351.413 192.72L275.682 199.695Z" fill="#2F2E41"/>
<path d="M315.042 60.6892L286.145 71.6502L289.134 79.621L265.219 97.5574L281.162 153.359L272.194 203.183L298.102 202.186L353.904 197.204L347.925 136.421L348.921 77.6288L326.999 69.6574L315.042 60.6892Z" fill="#DF5031"/>
<path d="M272.692 96.0636L265.219 97.5574C265.219 97.5574 261.731 100.049 261.731 109.018C261.731 117.986 261.731 123.964 262.728 128.946C262.728 128.946 256.749 144.89 258.742 148.875C260.735 152.862 285.646 152.862 285.646 152.862L272.692 96.0636Z" fill="#DF5031"/>
<path d="M313.873 37.567C313.873 50.1117 303.703 60.2813 291.158 60.2813C278.614 60.2813 268.444 50.1117 268.444 37.567C268.444 25.0223 278.614 14.8528 291.158 14.8528C303.703 14.8528 313.873 25.0223 313.873 37.567Z" fill="#FFB6B6"/>
<path d="M305.353 53.3834C305.353 53.3834 309.377 37.9237 305.09 40.65L298.435 40.0175L302.636 28.7786C302.636 28.7786 295.115 23.1394 292.116 26.4359C289.116 29.7318 289.835 31.5912 287.109 27.3028C284.383 23.0143 278.687 23.0952 273.47 26.1816C268.253 29.2666 264.176 29.7747 265.167 24.0491C266.159 18.3235 265.603 8.59631 268.7 9.69954C271.798 10.8021 270.949 11.4263 272.619 7.42742C274.289 3.42926 274.5 1.21175 278.366 2.9212C282.232 4.63272 291.948 -3.39747 295.963 1.4606C299.977 6.31797 303.485 7.09908 306.991 7.88018C310.498 8.66129 324.588 6.41889 323.41 28.2408C323.41 28.2408 332.814 47.0399 315.874 55.726C315.874 55.726 311.276 51.1887 308.067 56.7041L305.353 53.3834Z" fill="#2F2E41"/>
<path d="M87.2869 102.181L65.167 102.872L53.4159 117.388L40.2823 120.153C40.2823 120.153 36.1348 158.863 42.356 172.689C48.5772 186.513 45.8122 190.661 45.8122 190.661L95.5818 189.969C95.5818 189.969 94.1993 180.58 102.494 172.487L106.654 157.092C108.878 148.861 108.12 140.109 104.515 132.384L95.5818 113.241L87.9781 110.476L87.2869 102.181Z" fill="#2F2E41"/>
<path d="M45.8122 198.955L42.7016 204.14C42.7016 204.14 33.0242 217.273 31.6417 254.6C30.2592 291.928 41.6647 412.713 41.6647 412.713H57.4493L74.5134 249.297L97.3099 412.895L117.702 413.241L115.973 246.306C115.973 246.306 111.826 208.287 100.766 199.992C100.766 199.992 65.167 232.135 45.8122 198.955Z" fill="#2F2E41"/>
<path d="M17.0249 117.065C17.0249 124.242 16.5926 129.581 8.75611 130.059C1.39583 130.508 0.487318 124.242 0.487318 117.065C0.487318 109.889 0.658711 104.13 8.75611 104.071C17.9751 104.005 17.0249 109.889 17.0249 117.065Z" fill="#DF5031"/>
<path d="M63.0939 117.065C63.0939 124.242 64.9797 129.581 54.8251 130.059C47.0131 130.427 46.5563 124.242 46.5563 117.065C46.5563 109.889 47.7039 104.877 54.8251 104.071C61.5235 103.314 63.0939 109.889 63.0939 117.065Z" fill="#DF5031"/>
<path d="M56.0064 111.159H9.93736V121.79H56.0064V111.159Z" fill="#DF5031"/>
<path d="M96.518 114.992C96.518 122.168 96.0857 127.508 88.2492 127.985C80.8889 128.434 79.9804 122.168 79.9804 114.992C79.9804 107.815 80.1518 102.056 88.2492 101.998C97.4682 101.932 96.518 107.815 96.518 114.992Z" fill="#DF5031"/>
<path d="M142.587 114.992C142.587 122.168 144.473 127.508 134.318 127.985C126.506 128.353 126.049 122.168 126.049 114.992C126.049 107.815 127.197 102.803 134.318 101.998C141.017 101.24 142.587 107.815 142.587 114.992Z" fill="#DF5031"/>
<path d="M135.499 109.085H89.4305V119.717H135.499V109.085Z" fill="#DF5031"/>
<path d="M216.794 228.356C216.794 235.532 216.362 240.872 208.526 241.349C201.165 241.798 200.257 235.532 200.257 228.356C200.257 221.179 200.428 215.42 208.526 215.362C217.745 215.296 216.794 221.179 216.794 228.356Z" fill="#DF5031"/>
<path d="M262.863 228.356C262.863 235.532 264.749 240.872 254.595 241.349C246.783 241.717 246.326 235.532 246.326 228.356C246.326 221.179 247.473 216.167 254.595 215.362C261.293 214.604 262.863 221.179 262.863 228.356Z" fill="#DF5031"/>
<path d="M255.776 222.449H209.707V233.081H255.776V222.449Z" fill="#DF5031"/>
<path d="M112.818 131.321C117.778 131.321 121.799 124.81 121.799 116.779C121.799 108.748 117.778 102.237 112.818 102.237C107.858 102.237 103.837 108.748 103.837 116.779C103.837 124.81 107.858 131.321 112.818 131.321Z" fill="#FFB6B6"/>
<path d="M70.3516 93.8858C83.9042 93.8858 94.8908 82.8993 94.8908 69.3467C94.8908 55.7941 83.9042 44.8076 70.3516 44.8076C56.799 44.8076 45.8124 55.7941 45.8124 69.3467C45.8124 82.8993 56.799 93.8858 70.3516 93.8858Z" fill="#FFB6B6"/>
<path d="M65.4249 77.0578L71.1021 68.0219L73.659 55.7343C73.659 55.7343 99.524 62.0426 92.5846 49.426C85.6452 36.8081 67.9818 33.6539 55.9956 43.1164L50.8299 48.1645C50.8299 48.1645 62.3039 37.4399 55.3645 33.6539C48.4258 29.8694 49.6873 27.3456 45.9021 30.4998C42.1168 33.6539 44.0094 36.1783 39.5938 34.2857C35.1781 32.3938 25.715 29.8694 26.9772 33.0235C28.2387 36.1783 18.721 44.3793 22.218 48.1645C25.715 51.9491 22.5608 59.5189 28.8691 57.627C35.1781 55.7343 32.024 65.1968 37.7011 61.4115C37.7011 61.4115 33.0408 67.3507 36.826 71.7664C40.6113 76.182 46.4433 77.9005 45.8122 84.2088C45.1818 90.5171 60.3283 91.8131 60.3283 91.8131L59.1498 73.3977C59.1498 73.3977 62.9011 70.3224 65.4249 77.0578Z" fill="#2F2E41"/>
<path d="M315.259 119.401C315.259 119.401 311.641 131.651 312.811 140.025L271.914 194.212L283.517 205.304L333.686 157.027L343.208 131.132L315.259 119.401Z" fill="#FFB6B6"/>
<path d="M280.403 213.565C286.039 206.098 286.869 197.222 282.257 193.741C277.645 190.26 269.337 193.492 263.701 200.959C258.065 208.427 257.235 217.302 261.847 220.783C266.46 224.264 274.767 221.033 280.403 213.565Z" fill="#FFB6B6"/>
<path d="M344.896 74.355C344.896 74.355 357.637 78.9781 356.016 87.7424C354.395 96.5053 353.779 102.283 353.779 102.283C353.779 102.283 355.161 107.07 353.359 109.456C351.559 111.843 342.313 139.819 342.313 139.819L309.059 128.455C309.059 128.455 328.553 74.5057 344.896 74.355Z" fill="#DF5031"/>
<path d="M42.6664 117.438C42.6664 125.468 38.6454 131.979 33.6857 131.979C28.7253 131.979 24.7044 125.468 24.7044 117.438C24.7044 109.407 28.7253 102.897 33.6857 102.897C38.6454 102.897 42.6664 109.407 42.6664 117.438Z" fill="#FFB6B6"/>
</g>
<defs>
<clipPath id="clip0_62_420">
<rect width="357.373" height="450" fill="white"/>
</clipPath>
</defs>
</svg>
