<svg width="636" height="339" viewBox="0 0 636 339" fill="none" xmlns="http://www.w3.org/2000/svg">
<rect width="636" height="339" rx="5" fill="#04040B"/>
<path d="M193.43 40V7.8H207.78C210.247 7.8 212.28 8.26666 213.88 9.2C215.48 10.1333 216.664 11.4167 217.43 13.05C218.197 14.65 218.58 16.4833 218.58 18.55C218.58 21.75 217.58 24.3167 215.58 26.25C213.614 28.1833 210.947 29.15 207.58 29.15H198.88V40H193.43ZM198.88 24.85H206.58C208.747 24.85 210.38 24.2833 211.48 23.15C212.58 22.0167 213.13 20.4833 213.13 18.55C213.13 16.4833 212.597 14.8833 211.53 13.75C210.497 12.6167 208.93 12.05 206.83 12.05H198.88V24.85ZM223.422 40V16.3H228.422L228.722 19.05C229.856 18.3167 231.206 17.65 232.772 17.05C234.339 16.45 235.889 16.0333 237.422 15.8V19.95C236.489 20.1167 235.472 20.3667 234.372 20.7C233.306 21 232.289 21.35 231.322 21.75C230.356 22.1167 229.539 22.5 228.872 22.9V40H223.422ZM252.265 40.5C247.998 40.5 244.865 39.4333 242.865 37.3C240.898 35.1667 239.915 32.1167 239.915 28.15C239.915 24.1833 240.915 21.1333 242.915 19C244.915 16.8667 248.031 15.8 252.265 15.8C256.531 15.8 259.665 16.8667 261.665 19C263.665 21.1333 264.665 24.1833 264.665 28.15C264.665 32.1167 263.665 35.1667 261.665 37.3C259.698 39.4333 256.565 40.5 252.265 40.5ZM252.265 35.9C254.765 35.9 256.531 35.3 257.565 34.1C258.631 32.8667 259.165 30.8833 259.165 28.15C259.165 25.4167 258.631 23.45 257.565 22.25C256.531 21.05 254.765 20.45 252.265 20.45C249.798 20.45 248.031 21.05 246.965 22.25C245.931 23.45 245.415 25.4167 245.415 28.15C245.415 30.8833 245.931 32.8667 246.965 34.1C248.031 35.3 249.798 35.9 252.265 35.9ZM270.467 40V16.3H275.467L275.717 18.8C276.884 17.8667 278.167 17.1333 279.567 16.6C280.967 16.0667 282.467 15.8 284.067 15.8C285.767 15.8 287.084 16.0833 288.017 16.65C288.984 17.1833 289.717 17.9333 290.217 18.9C291.317 18 292.584 17.2667 294.017 16.7C295.451 16.1 297.167 15.8 299.167 15.8C301.901 15.8 303.917 16.5 305.217 17.9C306.517 19.3 307.167 21.45 307.167 24.35V40H301.817V24.9C301.817 23.0667 301.434 21.7833 300.667 21.05C299.901 20.3167 298.651 19.95 296.917 19.95C295.784 19.95 294.701 20.15 293.667 20.55C292.667 20.95 291.801 21.55 291.067 22.35C291.167 22.7167 291.234 23.1 291.267 23.5C291.301 23.9 291.317 24.3333 291.317 24.8V40H286.267V24.95C286.267 23.2167 285.967 21.95 285.367 21.15C284.767 20.35 283.634 19.95 281.967 19.95C280.801 19.95 279.684 20.2333 278.617 20.8C277.584 21.3333 276.651 21.9833 275.817 22.75V40H270.467ZM324.651 40.5C320.385 40.5 317.251 39.4333 315.251 37.3C313.285 35.1667 312.301 32.1167 312.301 28.15C312.301 24.1833 313.301 21.1333 315.301 19C317.301 16.8667 320.418 15.8 324.651 15.8C328.918 15.8 332.051 16.8667 334.051 19C336.051 21.1333 337.051 24.1833 337.051 28.15C337.051 32.1167 336.051 35.1667 334.051 37.3C332.085 39.4333 328.951 40.5 324.651 40.5ZM324.651 35.9C327.151 35.9 328.918 35.3 329.951 34.1C331.018 32.8667 331.551 30.8833 331.551 28.15C331.551 25.4167 331.018 23.45 329.951 22.25C328.918 21.05 327.151 20.45 324.651 20.45C322.185 20.45 320.418 21.05 319.351 22.25C318.318 23.45 317.801 25.4167 317.801 28.15C317.801 30.8833 318.318 32.8667 319.351 34.1C320.418 35.3 322.185 35.9 324.651 35.9ZM353.004 52C352.471 52 351.821 51.95 351.054 51.85C350.287 51.7833 349.721 51.7 349.354 51.6V48.65C350.321 48.9167 351.354 49.05 352.454 49.05C353.954 49.05 355.037 48.9 355.704 48.6C356.371 48.3333 356.704 47.7333 356.704 46.8C356.704 45.8667 356.354 45.2833 355.654 45.05C354.954 44.85 353.954 44.75 352.654 44.75H350.654L352.004 40.35C348.637 39.95 346.104 38.7167 344.404 36.65C342.704 34.55 341.854 31.7167 341.854 28.15C341.854 23.9833 343.021 20.8833 345.354 18.85C347.721 16.8167 350.871 15.8 354.804 15.8C356.437 15.8 357.804 15.9167 358.904 16.15C360.037 16.3833 361.121 16.75 362.154 17.25V21.3C360.421 20.4333 358.321 20 355.854 20C353.121 20 351.021 20.6167 349.554 21.85C348.087 23.05 347.354 25.15 347.354 28.15C347.354 30.9833 348.004 33.0667 349.304 34.4C350.604 35.7 352.754 36.35 355.754 36.35C358.121 36.35 360.271 35.9 362.204 35V39.15C360.271 39.95 358.071 40.4 355.604 40.5L354.954 42.35C356.754 42.35 358.104 42.75 359.004 43.55C359.937 44.35 360.404 45.45 360.404 46.85C360.404 48.4833 359.804 49.75 358.604 50.65C357.437 51.55 355.571 52 353.004 52ZM383.362 12.75C382.462 12.75 381.562 12.5833 380.662 12.25C379.796 11.9167 378.946 11.6 378.112 11.3C377.312 10.9667 376.529 10.8 375.762 10.8C374.896 10.8 374.096 10.9333 373.362 11.2C372.629 11.4667 371.979 11.9333 371.412 12.6V8.6C371.846 8.13333 372.446 7.76667 373.212 7.5C374.012 7.23333 374.829 7.1 375.662 7.1C376.629 7.1 377.529 7.26666 378.362 7.6C379.196 7.9 380.012 8.21666 380.812 8.55C381.612 8.88333 382.446 9.05 383.312 9.05C385.046 9.05 386.379 8.43333 387.312 7.2V11.2C386.979 11.6333 386.462 12 385.762 12.3C385.062 12.6 384.262 12.75 383.362 12.75ZM379.362 40.5C375.096 40.5 371.962 39.4333 369.962 37.3C367.996 35.1667 367.012 32.1167 367.012 28.15C367.012 24.1833 368.012 21.1333 370.012 19C372.012 16.8667 375.129 15.8 379.362 15.8C383.629 15.8 386.762 16.8667 388.762 19C390.762 21.1333 391.762 24.1833 391.762 28.15C391.762 32.1167 390.762 35.1667 388.762 37.3C386.796 39.4333 383.662 40.5 379.362 40.5ZM379.362 35.9C381.862 35.9 383.629 35.3 384.662 34.1C385.729 32.8667 386.262 30.8833 386.262 28.15C386.262 25.4167 385.729 23.45 384.662 22.25C383.629 21.05 381.862 20.45 379.362 20.45C376.896 20.45 375.129 21.05 374.062 22.25C373.029 23.45 372.512 25.4167 372.512 28.15C372.512 30.8833 373.029 32.8667 374.062 34.1C375.129 35.3 376.896 35.9 379.362 35.9ZM409.565 40.5C405.432 40.5 402.232 39.4833 399.965 37.45C397.698 35.4167 396.565 32.3 396.565 28.1C396.565 24.3 397.532 21.3 399.465 19.1C401.398 16.9 404.332 15.8 408.265 15.8C411.865 15.8 414.565 16.75 416.365 18.65C418.198 20.5167 419.115 22.9333 419.115 25.9V30.3H401.765C402.032 32.6 402.865 34.1833 404.265 35.05C405.665 35.9167 407.798 36.35 410.665 36.35C411.865 36.35 413.098 36.2333 414.365 36C415.632 35.7667 416.732 35.4667 417.665 35.1V39.1C416.598 39.5667 415.365 39.9167 413.965 40.15C412.598 40.3833 411.132 40.5 409.565 40.5ZM401.765 26.75H414.315V25.1C414.315 23.4667 413.865 22.2 412.965 21.3C412.065 20.3667 410.548 19.9 408.415 19.9C405.882 19.9 404.132 20.45 403.165 21.55C402.232 22.65 401.765 24.3833 401.765 26.75ZM432.576 40.5C430.943 40.5 429.376 40.3833 427.876 40.15C426.41 39.9167 425.193 39.6333 424.226 39.3V34.7C425.36 35.1333 426.61 35.4667 427.976 35.7C429.343 35.9333 430.643 36.05 431.876 36.05C433.743 36.05 435.076 35.8833 435.876 35.55C436.676 35.2167 437.076 34.5667 437.076 33.6C437.076 32.9 436.826 32.35 436.326 31.95C435.86 31.55 435.143 31.1833 434.176 30.85C433.243 30.5167 432.043 30.1167 430.576 29.65C429.176 29.1833 427.96 28.6833 426.926 28.15C425.893 27.5833 425.093 26.8667 424.526 26C423.96 25.1333 423.676 24 423.676 22.6C423.676 20.4333 424.46 18.7667 426.026 17.6C427.593 16.4 430.11 15.8 433.576 15.8C434.943 15.8 436.243 15.9 437.476 16.1C438.71 16.3 439.76 16.55 440.626 16.85V21.4C439.693 21.0333 438.66 20.75 437.526 20.55C436.426 20.35 435.393 20.25 434.426 20.25C432.693 20.25 431.376 20.4 430.476 20.7C429.61 21 429.176 21.6 429.176 22.5C429.176 23.4333 429.626 24.1 430.526 24.5C431.46 24.8667 432.943 25.3833 434.976 26.05C436.843 26.6167 438.326 27.2167 439.426 27.85C440.526 28.4833 441.31 29.25 441.776 30.15C442.276 31.0167 442.526 32.15 442.526 33.55C442.526 35.8833 441.676 37.6333 439.976 38.8C438.276 39.9333 435.81 40.5 432.576 40.5Z" fill="#DF5031"/>
<line y1="57.5" x2="636" y2="57.5" stroke="white"/>
<path d="M145.512 100V84.544H148.2L153.096 94.552L157.968 84.544H160.656V100H158.064V88.792L153.888 97.336H152.304L148.104 88.792V100H145.512ZM167.468 100.24C166.748 100.24 166.076 100.112 165.452 99.856C164.844 99.6 164.356 99.216 163.988 98.704C163.62 98.176 163.436 97.528 163.436 96.76C163.436 95.672 163.804 94.8 164.54 94.144C165.292 93.472 166.444 93.136 167.996 93.136H171.644V92.632C171.644 92.088 171.556 91.656 171.38 91.336C171.22 91.016 170.916 90.784 170.468 90.64C170.036 90.496 169.396 90.424 168.548 90.424C167.204 90.424 165.948 90.624 164.78 91.024V89.08C165.292 88.872 165.916 88.704 166.652 88.576C167.388 88.448 168.18 88.384 169.028 88.384C170.692 88.384 171.956 88.72 172.82 89.392C173.7 90.064 174.14 91.16 174.14 92.68V100H171.908L171.74 98.848C171.276 99.296 170.7 99.64 170.012 99.88C169.34 100.12 168.492 100.24 167.468 100.24ZM168.164 98.368C168.948 98.368 169.628 98.24 170.204 97.984C170.796 97.712 171.276 97.352 171.644 96.904V94.912H168.044C167.276 94.912 166.716 95.064 166.364 95.368C166.028 95.656 165.86 96.104 165.86 96.712C165.86 97.304 166.06 97.728 166.46 97.984C166.86 98.24 167.428 98.368 168.164 98.368ZM181.073 100.24C180.289 100.24 179.537 100.184 178.817 100.072C178.113 99.96 177.529 99.824 177.065 99.664V97.456C177.609 97.664 178.209 97.824 178.865 97.936C179.521 98.048 180.145 98.104 180.737 98.104C181.633 98.104 182.273 98.024 182.657 97.864C183.041 97.704 183.233 97.392 183.233 96.928C183.233 96.592 183.113 96.328 182.873 96.136C182.649 95.944 182.305 95.768 181.841 95.608C181.393 95.448 180.817 95.256 180.113 95.032C179.441 94.808 178.857 94.568 178.361 94.312C177.865 94.04 177.481 93.696 177.209 93.28C176.937 92.864 176.801 92.32 176.801 91.648C176.801 90.608 177.177 89.808 177.929 89.248C178.681 88.672 179.889 88.384 181.553 88.384C182.209 88.384 182.833 88.432 183.425 88.528C184.017 88.624 184.521 88.744 184.937 88.888V91.072C184.489 90.896 183.993 90.76 183.449 90.664C182.921 90.568 182.425 90.52 181.961 90.52C181.129 90.52 180.497 90.592 180.065 90.736C179.649 90.88 179.441 91.168 179.441 91.6C179.441 92.048 179.657 92.368 180.089 92.56C180.537 92.736 181.249 92.984 182.225 93.304C183.121 93.576 183.833 93.864 184.361 94.168C184.889 94.472 185.265 94.84 185.489 95.272C185.729 95.688 185.849 96.232 185.849 96.904C185.849 98.024 185.441 98.864 184.625 99.424C183.809 99.968 182.625 100.24 181.073 100.24ZM192.646 100.24C191.43 100.24 190.518 99.92 189.91 99.28C189.318 98.624 189.022 97.736 189.022 96.616V90.664H187.342V88.624H189.022V86.008L191.614 85.216V88.624H194.638L194.47 90.664H191.614V96.472C191.614 97.128 191.766 97.592 192.07 97.864C192.374 98.12 192.87 98.248 193.558 98.248C193.99 98.248 194.446 98.168 194.926 98.008V99.856C194.302 100.112 193.542 100.24 192.646 100.24ZM202.927 100.24C200.943 100.24 199.407 99.752 198.319 98.776C197.231 97.8 196.687 96.304 196.687 94.288C196.687 92.464 197.151 91.024 198.079 89.968C199.007 88.912 200.415 88.384 202.303 88.384C204.031 88.384 205.327 88.84 206.191 89.752C207.071 90.648 207.511 91.808 207.511 93.232V95.344H199.183C199.311 96.448 199.711 97.208 200.383 97.624C201.055 98.04 202.079 98.248 203.455 98.248C204.031 98.248 204.623 98.192 205.231 98.08C205.839 97.968 206.367 97.824 206.815 97.648V99.568C206.303 99.792 205.711 99.96 205.039 100.072C204.383 100.184 203.679 100.24 202.927 100.24ZM199.183 93.64H205.207V92.848C205.207 92.064 204.991 91.456 204.559 91.024C204.127 90.576 203.399 90.352 202.375 90.352C201.159 90.352 200.319 90.616 199.855 91.144C199.407 91.672 199.183 92.504 199.183 93.64ZM210.298 100V88.624H212.698L212.842 89.944C213.386 89.592 214.034 89.272 214.786 88.984C215.538 88.696 216.282 88.496 217.018 88.384V90.376C216.57 90.456 216.082 90.576 215.554 90.736C215.042 90.88 214.554 91.048 214.09 91.24C213.626 91.416 213.234 91.6 212.914 91.792V100H210.298ZM224.934 100V84.544H235.446V86.584H227.55V91.264H234.558V93.28H227.55V100H224.934ZM238.369 86.248V84.088H241.225V86.248H238.369ZM238.585 100V90.616H236.857L237.097 88.624H241.201V100H238.585ZM248.836 100.24C247.62 100.24 246.708 99.92 246.1 99.28C245.508 98.624 245.212 97.736 245.212 96.616V90.664H243.532V88.624H245.212V86.008L247.804 85.216V88.624H250.828L250.66 90.664H247.804V96.472C247.804 97.128 247.956 97.592 248.26 97.864C248.564 98.12 249.06 98.248 249.748 98.248C250.18 98.248 250.636 98.168 251.116 98.008V99.856C250.492 100.112 249.732 100.24 248.836 100.24ZM258.649 100V98.704C259.065 97.728 259.641 96.848 260.377 96.064C261.129 95.28 261.929 94.52 262.777 93.784C263.417 93.224 263.945 92.752 264.361 92.368C264.793 91.968 265.129 91.608 265.369 91.288C265.609 90.968 265.777 90.64 265.873 90.304C265.969 89.952 266.017 89.544 266.017 89.08C266.017 88.248 265.777 87.616 265.297 87.184C264.817 86.752 264.017 86.536 262.897 86.536C262.289 86.536 261.665 86.6 261.025 86.728C260.401 86.856 259.801 87.032 259.225 87.256V84.952C259.785 84.76 260.449 84.608 261.217 84.496C261.985 84.368 262.713 84.304 263.401 84.304C265.129 84.304 266.433 84.728 267.313 85.576C268.193 86.424 268.633 87.584 268.633 89.056C268.633 89.792 268.505 90.448 268.249 91.024C267.993 91.584 267.641 92.12 267.193 92.632C266.745 93.128 266.225 93.64 265.633 94.168C264.897 94.808 264.201 95.432 263.545 96.04C262.905 96.632 262.385 97.28 261.985 97.984H268.801V100H258.649ZM277.891 100.432C276.259 100.432 274.947 100.12 273.955 99.496C272.963 98.856 272.235 97.944 271.771 96.76C271.323 95.56 271.099 94.128 271.099 92.464C271.099 90.736 271.315 89.264 271.747 88.048C272.195 86.832 272.915 85.904 273.907 85.264C274.899 84.624 276.227 84.304 277.891 84.304C279.555 84.304 280.875 84.624 281.851 85.264C282.843 85.904 283.555 86.832 283.987 88.048C284.435 89.264 284.659 90.736 284.659 92.464C284.659 94.128 284.435 95.56 283.987 96.76C283.539 97.944 282.819 98.856 281.827 99.496C280.835 100.12 279.523 100.432 277.891 100.432ZM277.891 98.2C279.427 98.2 280.499 97.696 281.107 96.688C281.715 95.664 282.019 94.256 282.019 92.464C282.019 90.56 281.723 89.096 281.131 88.072C280.539 87.048 279.459 86.536 277.891 86.536C276.323 86.536 275.235 87.048 274.627 88.072C274.035 89.096 273.739 90.56 273.739 92.464C273.739 94.256 274.043 95.664 274.651 96.688C275.259 97.696 276.339 98.2 277.891 98.2ZM288.58 100L294.268 86.56H286.732V84.544H297.076V86.224L291.244 100H288.58ZM300.773 100L306.461 86.56H298.925V84.544H309.269V86.224L303.437 100H300.773Z" fill="white"/>
<path d="M132.352 174.24C129.904 174.24 128.072 173.6 126.856 172.32C125.64 171.024 125.032 169.024 125.032 166.32C125.032 163.504 125.64 161.464 126.856 160.2C128.072 158.936 129.904 158.304 132.352 158.304C134.816 158.304 136.648 158.936 137.848 160.2C139.064 161.464 139.672 163.504 139.672 166.32C139.672 169.024 139.064 171.024 137.848 172.32C136.648 173.6 134.816 174.24 132.352 174.24ZM132.352 172.032C133.968 172.032 135.152 171.592 135.904 170.712C136.672 169.816 137.056 168.352 137.056 166.32C137.056 164.176 136.672 162.68 135.904 161.832C135.152 160.968 133.968 160.536 132.352 160.536C130.752 160.536 129.568 160.968 128.8 161.832C128.048 162.68 127.672 164.176 127.672 166.32C127.672 168.352 128.048 169.816 128.8 170.712C129.568 171.592 130.752 172.032 132.352 172.032ZM142.463 174V162.624H144.863L144.983 163.824C145.543 163.376 146.159 163.024 146.831 162.768C147.503 162.512 148.223 162.384 148.991 162.384C149.807 162.384 150.439 162.52 150.887 162.792C151.351 163.048 151.703 163.408 151.943 163.872C152.471 163.44 153.079 163.088 153.767 162.816C154.455 162.528 155.279 162.384 156.239 162.384C157.551 162.384 158.519 162.72 159.143 163.392C159.767 164.064 160.079 165.096 160.079 166.488V174H157.511V166.752C157.511 165.872 157.327 165.256 156.959 164.904C156.591 164.552 155.991 164.376 155.159 164.376C154.615 164.376 154.095 164.472 153.599 164.664C153.119 164.856 152.703 165.144 152.351 165.528C152.399 165.704 152.431 165.888 152.447 166.08C152.463 166.272 152.471 166.48 152.471 166.704V174H150.047V166.776C150.047 165.944 149.903 165.336 149.615 164.952C149.327 164.568 148.783 164.376 147.983 164.376C147.423 164.376 146.887 164.512 146.375 164.784C145.879 165.04 145.431 165.352 145.031 165.72V174H142.463ZM168.783 174.24C166.799 174.24 165.263 173.752 164.175 172.776C163.087 171.8 162.543 170.304 162.543 168.288C162.543 166.464 163.007 165.024 163.935 163.968C164.863 162.912 166.271 162.384 168.159 162.384C169.887 162.384 171.183 162.84 172.047 163.752C172.927 164.648 173.367 165.808 173.367 167.232V169.344H165.039C165.167 170.448 165.567 171.208 166.239 171.624C166.911 172.04 167.935 172.248 169.311 172.248C169.887 172.248 170.479 172.192 171.087 172.08C171.695 171.968 172.223 171.824 172.671 171.648V173.568C172.159 173.792 171.567 173.96 170.895 174.072C170.239 174.184 169.535 174.24 168.783 174.24ZM165.039 167.64H171.063V166.848C171.063 166.064 170.847 165.456 170.415 165.024C169.983 164.576 169.255 164.352 168.231 164.352C167.015 164.352 166.175 164.616 165.711 165.144C165.263 165.672 165.039 166.504 165.039 167.64ZM180.762 178.224C179.914 178.224 179.066 178.168 178.218 178.056C177.37 177.96 176.65 177.808 176.058 177.6V175.584C176.698 175.792 177.434 175.952 178.266 176.064C179.098 176.176 179.89 176.232 180.642 176.232C181.794 176.232 182.634 176.168 183.162 176.04C183.69 175.912 183.954 175.624 183.954 175.176C183.954 174.84 183.826 174.6 183.57 174.456C183.314 174.328 182.826 174.264 182.106 174.264H179.034C176.97 174.264 175.938 173.536 175.938 172.08C175.938 171.616 176.074 171.184 176.346 170.784C176.618 170.384 177.05 170.08 177.642 169.872C176.986 169.552 176.498 169.112 176.178 168.552C175.874 167.992 175.722 167.32 175.722 166.536C175.722 165.08 176.154 164.024 177.018 163.368C177.898 162.712 179.21 162.384 180.954 162.384C181.322 162.384 181.706 162.416 182.106 162.48C182.506 162.528 182.818 162.576 183.042 162.624H187.218L187.146 164.328H185.226C185.53 164.584 185.754 164.904 185.898 165.288C186.042 165.672 186.114 166.088 186.114 166.536C186.114 167.752 185.746 168.712 185.01 169.416C184.274 170.104 183.162 170.448 181.674 170.448C181.418 170.448 181.178 170.44 180.954 170.424C180.746 170.392 180.514 170.36 180.258 170.328C179.778 170.376 179.346 170.504 178.962 170.712C178.578 170.92 178.386 171.2 178.386 171.552C178.386 171.792 178.482 171.968 178.674 172.08C178.866 172.176 179.186 172.224 179.634 172.224H182.826C183.962 172.224 184.834 172.472 185.442 172.968C186.066 173.448 186.378 174.152 186.378 175.08C186.378 176.2 185.89 177 184.914 177.48C183.954 177.976 182.57 178.224 180.762 178.224ZM180.954 168.792C181.994 168.792 182.714 168.616 183.114 168.264C183.53 167.912 183.738 167.312 183.738 166.464C183.738 165.616 183.53 165 183.114 164.616C182.714 164.232 181.994 164.04 180.954 164.04C179.978 164.04 179.266 164.224 178.818 164.592C178.37 164.96 178.146 165.584 178.146 166.464C178.146 167.28 178.354 167.872 178.77 168.24C179.202 168.608 179.93 168.792 180.954 168.792ZM192.274 174.24C191.554 174.24 190.882 174.112 190.258 173.856C189.65 173.6 189.162 173.216 188.794 172.704C188.426 172.176 188.242 171.528 188.242 170.76C188.242 169.672 188.61 168.8 189.346 168.144C190.098 167.472 191.25 167.136 192.802 167.136H196.45V166.632C196.45 166.088 196.362 165.656 196.186 165.336C196.026 165.016 195.722 164.784 195.274 164.64C194.842 164.496 194.202 164.424 193.354 164.424C192.01 164.424 190.754 164.624 189.586 165.024V163.08C190.098 162.872 190.722 162.704 191.458 162.576C192.194 162.448 192.986 162.384 193.834 162.384C195.498 162.384 196.762 162.72 197.626 163.392C198.506 164.064 198.946 165.16 198.946 166.68V174H196.714L196.546 172.848C196.082 173.296 195.506 173.64 194.818 173.88C194.146 174.12 193.298 174.24 192.274 174.24ZM192.97 172.368C193.754 172.368 194.434 172.24 195.01 171.984C195.602 171.712 196.082 171.352 196.45 170.904V168.912H192.85C192.082 168.912 191.522 169.064 191.17 169.368C190.834 169.656 190.666 170.104 190.666 170.712C190.666 171.304 190.866 171.728 191.266 171.984C191.666 172.24 192.234 172.368 192.97 172.368ZM207.858 174V158.544H218.37V160.584H210.474V165.264H217.482V167.28H210.474V174H207.858ZM221.293 160.248V158.088H224.149V160.248H221.293ZM221.509 174V164.616H219.781L220.021 162.624H224.125V174H221.509ZM231.76 174.24C230.544 174.24 229.632 173.92 229.024 173.28C228.432 172.624 228.136 171.736 228.136 170.616V164.664H226.456V162.624H228.136V160.008L230.728 159.216V162.624H233.752L233.584 164.664H230.728V170.472C230.728 171.128 230.88 171.592 231.184 171.864C231.488 172.12 231.984 172.248 232.672 172.248C233.104 172.248 233.56 172.168 234.04 172.008V173.856C233.416 174.112 232.656 174.24 231.76 174.24ZM246.733 174.24C244.733 174.24 243.125 173.984 241.909 173.472V171.168C242.597 171.424 243.333 171.632 244.117 171.792C244.917 171.952 245.709 172.032 246.493 172.032C247.725 172.032 248.645 171.888 249.253 171.6C249.877 171.312 250.189 170.736 250.189 169.872C250.189 169.344 250.061 168.92 249.805 168.6C249.549 168.28 249.125 168.008 248.533 167.784C247.941 167.544 247.125 167.296 246.085 167.04C244.421 166.608 243.253 166.064 242.581 165.408C241.909 164.736 241.573 163.816 241.573 162.648C241.573 161.288 242.069 160.224 243.061 159.456C244.053 158.688 245.533 158.304 247.501 158.304C248.397 158.304 249.237 158.368 250.021 158.496C250.821 158.624 251.445 158.768 251.893 158.928V161.232C250.677 160.768 249.333 160.536 247.861 160.536C246.709 160.536 245.813 160.688 245.173 160.992C244.533 161.296 244.213 161.848 244.213 162.648C244.213 163.112 244.325 163.488 244.549 163.776C244.773 164.064 245.157 164.312 245.701 164.52C246.261 164.728 247.029 164.96 248.005 165.216C249.269 165.536 250.245 165.92 250.933 166.368C251.637 166.8 252.125 167.312 252.397 167.904C252.685 168.48 252.829 169.136 252.829 169.872C252.829 171.232 252.325 172.304 251.317 173.088C250.309 173.856 248.781 174.24 246.733 174.24ZM259.592 174.24C258.232 174.24 257.184 173.864 256.448 173.112C255.728 172.36 255.368 171.256 255.368 169.8V162.624H257.984V169.8C257.984 170.648 258.192 171.272 258.608 171.672C259.024 172.072 259.664 172.272 260.528 172.272C261.168 172.272 261.76 172.152 262.304 171.912C262.848 171.672 263.32 171.352 263.72 170.952V162.624H266.312V174H263.936L263.816 172.824C263.304 173.224 262.696 173.56 261.992 173.832C261.288 174.104 260.488 174.24 259.592 174.24ZM269.603 174V162.624H272.003L272.123 163.824C272.683 163.376 273.299 163.024 273.971 162.768C274.643 162.512 275.363 162.384 276.131 162.384C276.947 162.384 277.579 162.52 278.027 162.792C278.491 163.048 278.843 163.408 279.083 163.872C279.611 163.44 280.219 163.088 280.907 162.816C281.595 162.528 282.419 162.384 283.379 162.384C284.691 162.384 285.659 162.72 286.283 163.392C286.907 164.064 287.219 165.096 287.219 166.488V174H284.651V166.752C284.651 165.872 284.467 165.256 284.099 164.904C283.731 164.552 283.131 164.376 282.299 164.376C281.755 164.376 281.235 164.472 280.739 164.664C280.259 164.856 279.843 165.144 279.491 165.528C279.539 165.704 279.571 165.888 279.587 166.08C279.603 166.272 279.611 166.48 279.611 166.704V174H277.187V166.776C277.187 165.944 277.043 165.336 276.755 164.952C276.467 164.568 275.923 164.376 275.123 164.376C274.563 164.376 274.027 164.512 273.515 164.784C273.019 165.04 272.571 165.352 272.171 165.72V174H269.603ZM290.398 174V162.624H292.798L292.918 163.824C293.478 163.376 294.094 163.024 294.766 162.768C295.438 162.512 296.158 162.384 296.926 162.384C297.742 162.384 298.374 162.52 298.822 162.792C299.286 163.048 299.638 163.408 299.878 163.872C300.406 163.44 301.014 163.088 301.702 162.816C302.39 162.528 303.214 162.384 304.174 162.384C305.486 162.384 306.454 162.72 307.078 163.392C307.702 164.064 308.014 165.096 308.014 166.488V174H305.446V166.752C305.446 165.872 305.262 165.256 304.894 164.904C304.526 164.552 303.926 164.376 303.094 164.376C302.55 164.376 302.03 164.472 301.534 164.664C301.054 164.856 300.638 165.144 300.286 165.528C300.334 165.704 300.366 165.888 300.382 166.08C300.398 166.272 300.406 166.48 300.406 166.704V174H297.982V166.776C297.982 165.944 297.838 165.336 297.55 164.952C297.262 164.568 296.718 164.376 295.918 164.376C295.358 164.376 294.822 164.512 294.31 164.784C293.814 165.04 293.366 165.352 292.966 165.72V174H290.398ZM316.718 174.24C314.734 174.24 313.198 173.752 312.11 172.776C311.022 171.8 310.478 170.304 310.478 168.288C310.478 166.464 310.942 165.024 311.87 163.968C312.798 162.912 314.206 162.384 316.094 162.384C317.822 162.384 319.118 162.84 319.982 163.752C320.862 164.648 321.302 165.808 321.302 167.232V169.344H312.974C313.102 170.448 313.502 171.208 314.174 171.624C314.846 172.04 315.87 172.248 317.246 172.248C317.822 172.248 318.414 172.192 319.022 172.08C319.63 171.968 320.158 171.824 320.606 171.648V173.568C320.094 173.792 319.502 173.96 318.83 174.072C318.174 174.184 317.47 174.24 316.718 174.24ZM312.974 167.64H318.998V166.848C318.998 166.064 318.782 165.456 318.35 165.024C317.918 164.576 317.19 164.352 316.166 164.352C314.95 164.352 314.11 164.616 313.646 165.144C313.198 165.672 312.974 166.504 312.974 167.64ZM324.089 174V162.624H326.489L326.633 163.944C327.177 163.592 327.825 163.272 328.577 162.984C329.329 162.696 330.073 162.496 330.809 162.384V164.376C330.361 164.456 329.873 164.576 329.345 164.736C328.833 164.88 328.345 165.048 327.881 165.24C327.417 165.416 327.025 165.6 326.705 165.792V174H324.089Z" fill="white"/>
<path d="M193.512 248V232.544H204.288V234.584H196.128V239.264H203.4V241.28H196.128V245.984H204.288V248H193.512ZM212.071 248.24C210.071 248.24 208.559 247.736 207.535 246.728C206.511 245.704 205.999 244.232 205.999 242.312C205.999 240.312 206.559 238.824 207.679 237.848C208.815 236.872 210.327 236.384 212.215 236.384C212.999 236.384 213.655 236.44 214.183 236.552C214.727 236.664 215.247 236.84 215.743 237.08V239.024C214.911 238.608 213.903 238.4 212.719 238.4C211.407 238.4 210.399 238.696 209.695 239.288C208.991 239.864 208.639 240.872 208.639 242.312C208.639 243.672 208.951 244.672 209.575 245.312C210.199 245.936 211.231 246.248 212.671 246.248C213.807 246.248 214.839 246.032 215.767 245.6V247.592C215.239 247.8 214.671 247.96 214.063 248.072C213.471 248.184 212.807 248.24 212.071 248.24ZM223.534 248.24C221.486 248.24 219.982 247.728 219.022 246.704C218.078 245.68 217.606 244.216 217.606 242.312C217.606 240.408 218.086 238.944 219.046 237.92C220.006 236.896 221.502 236.384 223.534 236.384C225.582 236.384 227.086 236.896 228.046 237.92C229.006 238.944 229.486 240.408 229.486 242.312C229.486 244.216 229.006 245.68 228.046 246.704C227.102 247.728 225.598 248.24 223.534 248.24ZM223.534 246.032C224.734 246.032 225.582 245.744 226.078 245.168C226.59 244.576 226.846 243.624 226.846 242.312C226.846 241 226.59 240.056 226.078 239.48C225.582 238.904 224.734 238.616 223.534 238.616C222.35 238.616 221.502 238.904 220.99 239.48C220.494 240.056 220.246 241 220.246 242.312C220.246 243.624 220.494 244.576 220.99 245.168C221.502 245.744 222.35 246.032 223.534 246.032ZM232.271 248V232.544H242.783V234.584H234.887V239.264H241.895V241.28H234.887V248H232.271ZM245.705 234.248V232.088H248.561V234.248H245.705ZM245.921 248V238.616H244.193L244.433 236.624H248.537V248H245.921ZM256.173 248.24C254.957 248.24 254.045 247.92 253.437 247.28C252.845 246.624 252.549 245.736 252.549 244.616V238.664H250.869V236.624H252.549V234.008L255.141 233.216V236.624H258.165L257.997 238.664H255.141V244.472C255.141 245.128 255.293 245.592 255.597 245.864C255.901 246.12 256.397 246.248 257.085 246.248C257.517 246.248 257.973 246.168 258.453 246.008V247.856C257.829 248.112 257.069 248.24 256.173 248.24Z" fill="white"/>
<path d="M200.008 276V265.696H204.744C205.896 265.696 206.733 265.995 207.256 266.592C207.789 267.179 208.056 267.979 208.056 268.992C208.056 269.717 207.875 270.336 207.512 270.848C207.149 271.36 206.627 271.717 205.944 271.92C206.136 272.059 206.285 272.208 206.392 272.368C206.499 272.528 206.605 272.741 206.712 273.008L208.008 276H206.216L204.952 273.12C204.835 272.843 204.691 272.645 204.52 272.528C204.36 272.411 204.083 272.352 203.688 272.352H201.752V276H200.008ZM201.752 270.944H204.28C204.909 270.944 205.405 270.789 205.768 270.48C206.131 270.171 206.312 269.675 206.312 268.992C206.312 267.701 205.688 267.056 204.44 267.056H201.752V270.944ZM212.75 277.376V276.16C212.163 276.139 211.624 276.085 211.134 276C210.643 275.925 210.211 275.808 209.838 275.648V274.112C210.275 274.283 210.744 274.421 211.246 274.528C211.747 274.624 212.248 274.677 212.75 274.688V271.392C212.707 271.392 212.664 271.381 212.622 271.36C211.512 271.072 210.734 270.709 210.286 270.272C209.838 269.824 209.614 269.211 209.614 268.432C209.614 267.632 209.875 266.987 210.398 266.496C210.931 265.995 211.715 265.691 212.75 265.584V264.32H214.062V265.552C214.563 265.573 215.027 265.627 215.454 265.712C215.88 265.787 216.227 265.867 216.494 265.952V267.488C215.747 267.211 214.936 267.056 214.062 267.024V270.192C214.862 270.405 215.48 270.661 215.918 270.96C216.366 271.248 216.675 271.584 216.846 271.968C217.027 272.341 217.118 272.768 217.118 273.248C217.118 274.027 216.862 274.667 216.35 275.168C215.838 275.669 215.075 275.979 214.062 276.096V277.376H212.75ZM212.75 269.824V267.104C212.312 267.179 211.971 267.323 211.726 267.536C211.491 267.739 211.374 268.037 211.374 268.432C211.374 268.795 211.47 269.077 211.662 269.28C211.864 269.472 212.227 269.653 212.75 269.824ZM214.062 274.608C214.499 274.533 214.824 274.395 215.038 274.192C215.251 273.979 215.358 273.664 215.358 273.248C215.358 272.875 215.256 272.581 215.054 272.368C214.862 272.144 214.531 271.947 214.062 271.776V274.608ZM221.577 276.16C221.267 276.16 220.926 276.139 220.553 276.096C220.179 276.064 219.822 276.011 219.481 275.936C219.15 275.861 218.873 275.781 218.649 275.696V274.176C219.075 274.347 219.513 274.475 219.961 274.56C220.419 274.635 220.878 274.672 221.337 274.672C222.169 274.672 222.787 274.549 223.193 274.304C223.598 274.059 223.801 273.627 223.801 273.008C223.801 272.453 223.614 272.053 223.241 271.808C222.878 271.563 222.355 271.44 221.673 271.44H220.121L220.265 270.144H221.561C222.915 270.144 223.593 269.611 223.593 268.544C223.593 268.021 223.411 267.637 223.049 267.392C222.697 267.147 222.126 267.024 221.337 267.024C220.899 267.024 220.457 267.067 220.009 267.152C219.571 267.237 219.182 267.355 218.841 267.504V266.016C219.161 265.888 219.577 265.776 220.089 265.68C220.601 265.584 221.107 265.536 221.609 265.536C222.867 265.536 223.801 265.803 224.409 266.336C225.027 266.869 225.337 267.552 225.337 268.384C225.337 268.896 225.209 269.376 224.953 269.824C224.707 270.272 224.318 270.592 223.785 270.784C224.403 270.944 224.851 271.232 225.129 271.648C225.417 272.064 225.561 272.555 225.561 273.12C225.561 274.155 225.198 274.923 224.473 275.424C223.747 275.915 222.782 276.16 221.577 276.16ZM230.545 276.16C230.023 276.16 229.569 276.128 229.185 276.064C228.801 276 228.439 275.915 228.097 275.808V274.304C228.428 274.432 228.78 274.528 229.153 274.592C229.537 274.656 229.964 274.688 230.433 274.688C231.393 274.688 232.103 274.459 232.561 274C233.02 273.541 233.249 272.933 233.249 272.176V271.536C232.876 271.803 232.449 272.005 231.969 272.144C231.489 272.283 231.047 272.352 230.641 272.352C229.447 272.352 228.556 272.059 227.969 271.472C227.393 270.885 227.105 270.053 227.105 268.976C227.105 267.963 227.42 267.136 228.049 266.496C228.679 265.856 229.66 265.536 230.993 265.536C232.284 265.536 233.255 265.861 233.905 266.512C234.567 267.152 234.898 268.155 234.898 269.52V271.84C234.898 272.693 234.721 273.445 234.369 274.096C234.017 274.747 233.516 275.253 232.865 275.616C232.215 275.979 231.441 276.16 230.545 276.16ZM230.897 271.024C231.335 271.024 231.756 270.949 232.161 270.8C232.567 270.651 232.929 270.464 233.249 270.24V269.12C233.249 267.616 232.492 266.864 230.977 266.864C230.209 266.864 229.633 267.051 229.249 267.424C228.865 267.797 228.673 268.299 228.673 268.928C228.673 269.579 228.828 270.091 229.137 270.464C229.457 270.837 230.044 271.024 230.897 271.024ZM236.437 277.92L236.917 274.896H238.437L237.701 277.92H236.437ZM243.412 276.16C242.89 276.16 242.436 276.128 242.052 276.064C241.668 276 241.306 275.915 240.964 275.808V274.304C241.295 274.432 241.647 274.528 242.02 274.592C242.404 274.656 242.831 274.688 243.3 274.688C244.26 274.688 244.97 274.459 245.428 274C245.887 273.541 246.116 272.933 246.116 272.176V271.536C245.743 271.803 245.316 272.005 244.836 272.144C244.356 272.283 243.914 272.352 243.508 272.352C242.314 272.352 241.423 272.059 240.836 271.472C240.26 270.885 239.972 270.053 239.972 268.976C239.972 267.963 240.287 267.136 240.916 266.496C241.546 265.856 242.527 265.536 243.86 265.536C245.151 265.536 246.122 265.861 246.772 266.512C247.434 267.152 247.764 268.155 247.764 269.52V271.84C247.764 272.693 247.588 273.445 247.236 274.096C246.884 274.747 246.383 275.253 245.732 275.616C245.082 275.979 244.308 276.16 243.412 276.16ZM243.764 271.024C244.202 271.024 244.623 270.949 245.028 270.8C245.434 270.651 245.796 270.464 246.116 270.24V269.12C246.116 267.616 245.359 266.864 243.844 266.864C243.076 266.864 242.5 267.051 242.116 267.424C241.732 267.797 241.54 268.299 241.54 268.928C241.54 269.579 241.695 270.091 242.004 270.464C242.324 270.837 242.911 271.024 243.764 271.024ZM252.744 276.16C252.222 276.16 251.768 276.128 251.384 276.064C251 276 250.638 275.915 250.296 275.808V274.304C250.627 274.432 250.979 274.528 251.352 274.592C251.736 274.656 252.163 274.688 252.632 274.688C253.592 274.688 254.302 274.459 254.76 274C255.219 273.541 255.448 272.933 255.448 272.176V271.536C255.075 271.803 254.648 272.005 254.168 272.144C253.688 272.283 253.246 272.352 252.84 272.352C251.646 272.352 250.755 272.059 250.168 271.472C249.592 270.885 249.304 270.053 249.304 268.976C249.304 267.963 249.619 267.136 250.248 266.496C250.878 265.856 251.859 265.536 253.192 265.536C254.483 265.536 255.454 265.861 256.104 266.512C256.766 267.152 257.096 268.155 257.096 269.52V271.84C257.096 272.693 256.92 273.445 256.568 274.096C256.216 274.747 255.715 275.253 255.064 275.616C254.414 275.979 253.64 276.16 252.744 276.16ZM253.096 271.024C253.534 271.024 253.955 270.949 254.36 270.8C254.766 270.651 255.128 270.464 255.448 270.24V269.12C255.448 267.616 254.691 266.864 253.176 266.864C252.408 266.864 251.832 267.051 251.448 267.424C251.064 267.797 250.872 268.299 250.872 268.928C250.872 269.579 251.027 270.091 251.336 270.464C251.656 270.837 252.243 271.024 253.096 271.024Z" fill="white"/>
<path d="M199.008 128V117.696H203.744C204.896 117.696 205.733 117.995 206.256 118.592C206.789 119.179 207.056 119.979 207.056 120.992C207.056 121.717 206.875 122.336 206.512 122.848C206.149 123.36 205.627 123.717 204.944 123.92C205.136 124.059 205.285 124.208 205.392 124.368C205.499 124.528 205.605 124.741 205.712 125.008L207.008 128H205.216L203.952 125.12C203.835 124.843 203.691 124.645 203.52 124.528C203.36 124.411 203.083 124.352 202.688 124.352H200.752V128H199.008ZM200.752 122.944H203.28C203.909 122.944 204.405 122.789 204.768 122.48C205.131 122.171 205.312 121.675 205.312 120.992C205.312 119.701 204.688 119.056 203.44 119.056H200.752V122.944ZM211.75 129.376V128.16C211.163 128.139 210.624 128.085 210.134 128C209.643 127.925 209.211 127.808 208.838 127.648V126.112C209.275 126.283 209.744 126.421 210.246 126.528C210.747 126.624 211.248 126.677 211.75 126.688V123.392C211.707 123.392 211.664 123.381 211.622 123.36C210.512 123.072 209.734 122.709 209.286 122.272C208.838 121.824 208.614 121.211 208.614 120.432C208.614 119.632 208.875 118.987 209.398 118.496C209.931 117.995 210.715 117.691 211.75 117.584V116.32H213.062V117.552C213.563 117.573 214.027 117.627 214.454 117.712C214.88 117.787 215.227 117.867 215.494 117.952V119.488C214.747 119.211 213.936 119.056 213.062 119.024V122.192C213.862 122.405 214.48 122.661 214.918 122.96C215.366 123.248 215.675 123.584 215.846 123.968C216.027 124.341 216.118 124.768 216.118 125.248C216.118 126.027 215.862 126.667 215.35 127.168C214.838 127.669 214.075 127.979 213.062 128.096V129.376H211.75ZM211.75 121.824V119.104C211.312 119.179 210.971 119.323 210.726 119.536C210.491 119.739 210.374 120.037 210.374 120.432C210.374 120.795 210.47 121.077 210.662 121.28C210.864 121.472 211.227 121.653 211.75 121.824ZM213.062 126.608C213.499 126.533 213.824 126.395 214.038 126.192C214.251 125.979 214.358 125.664 214.358 125.248C214.358 124.875 214.256 124.581 214.054 124.368C213.862 124.144 213.531 123.947 213.062 123.776V126.608ZM221.089 128.16C220.566 128.16 220.113 128.128 219.729 128.064C219.345 128 218.982 127.915 218.641 127.808V126.304C218.971 126.432 219.323 126.528 219.697 126.592C220.081 126.656 220.507 126.688 220.977 126.688C221.937 126.688 222.646 126.459 223.105 126C223.563 125.541 223.793 124.933 223.793 124.176V123.536C223.419 123.803 222.993 124.005 222.513 124.144C222.033 124.283 221.59 124.352 221.185 124.352C219.99 124.352 219.099 124.059 218.513 123.472C217.937 122.885 217.649 122.053 217.649 120.976C217.649 119.963 217.963 119.136 218.593 118.496C219.222 117.856 220.203 117.536 221.537 117.536C222.827 117.536 223.798 117.861 224.449 118.512C225.11 119.152 225.441 120.155 225.441 121.52V123.84C225.441 124.693 225.265 125.445 224.913 126.096C224.561 126.747 224.059 127.253 223.409 127.616C222.758 127.979 221.985 128.16 221.089 128.16ZM221.441 123.024C221.878 123.024 222.299 122.949 222.705 122.8C223.11 122.651 223.473 122.464 223.793 122.24V121.12C223.793 119.616 223.035 118.864 221.521 118.864C220.753 118.864 220.177 119.051 219.793 119.424C219.409 119.797 219.217 120.299 219.217 120.928C219.217 121.579 219.371 122.091 219.681 122.464C220.001 122.837 220.587 123.024 221.441 123.024ZM230.42 128.16C229.898 128.16 229.444 128.128 229.06 128.064C228.676 128 228.314 127.915 227.972 127.808V126.304C228.303 126.432 228.655 126.528 229.028 126.592C229.412 126.656 229.839 126.688 230.308 126.688C231.268 126.688 231.978 126.459 232.436 126C232.895 125.541 233.124 124.933 233.124 124.176V123.536C232.751 123.803 232.324 124.005 231.844 124.144C231.364 124.283 230.922 124.352 230.516 124.352C229.322 124.352 228.431 124.059 227.844 123.472C227.268 122.885 226.98 122.053 226.98 120.976C226.98 119.963 227.295 119.136 227.924 118.496C228.554 117.856 229.535 117.536 230.868 117.536C232.159 117.536 233.13 117.861 233.78 118.512C234.442 119.152 234.773 120.155 234.773 121.52V123.84C234.773 124.693 234.596 125.445 234.244 126.096C233.892 126.747 233.391 127.253 232.74 127.616C232.09 127.979 231.316 128.16 230.42 128.16ZM230.772 123.024C231.21 123.024 231.631 122.949 232.036 122.8C232.442 122.651 232.804 122.464 233.124 122.24V121.12C233.124 119.616 232.367 118.864 230.852 118.864C230.084 118.864 229.508 119.051 229.124 119.424C228.74 119.797 228.548 120.299 228.548 120.928C228.548 121.579 228.703 122.091 229.012 122.464C229.332 122.837 229.919 123.024 230.772 123.024ZM236.312 129.92L236.792 126.896H238.312L237.576 129.92H236.312ZM243.287 128.16C242.765 128.16 242.311 128.128 241.927 128.064C241.543 128 241.181 127.915 240.839 127.808V126.304C241.17 126.432 241.522 126.528 241.895 126.592C242.279 126.656 242.706 126.688 243.175 126.688C244.135 126.688 244.845 126.459 245.303 126C245.762 125.541 245.991 124.933 245.991 124.176V123.536C245.618 123.803 245.191 124.005 244.711 124.144C244.231 124.283 243.789 124.352 243.383 124.352C242.189 124.352 241.298 124.059 240.711 123.472C240.135 122.885 239.847 122.053 239.847 120.976C239.847 119.963 240.162 119.136 240.791 118.496C241.421 117.856 242.402 117.536 243.735 117.536C245.026 117.536 245.997 117.861 246.647 118.512C247.309 119.152 247.639 120.155 247.639 121.52V123.84C247.639 124.693 247.463 125.445 247.111 126.096C246.759 126.747 246.258 127.253 245.607 127.616C244.957 127.979 244.183 128.16 243.287 128.16ZM243.639 123.024C244.077 123.024 244.498 122.949 244.903 122.8C245.309 122.651 245.671 122.464 245.991 122.24V121.12C245.991 119.616 245.234 118.864 243.719 118.864C242.951 118.864 242.375 119.051 241.991 119.424C241.607 119.797 241.415 120.299 241.415 120.928C241.415 121.579 241.57 122.091 241.879 122.464C242.199 122.837 242.786 123.024 243.639 123.024ZM252.619 128.16C252.097 128.16 251.643 128.128 251.259 128.064C250.875 128 250.513 127.915 250.171 127.808V126.304C250.502 126.432 250.854 126.528 251.227 126.592C251.611 126.656 252.038 126.688 252.507 126.688C253.467 126.688 254.177 126.459 254.635 126C255.094 125.541 255.323 124.933 255.323 124.176V123.536C254.95 123.803 254.523 124.005 254.043 124.144C253.563 124.283 253.121 124.352 252.715 124.352C251.521 124.352 250.63 124.059 250.043 123.472C249.467 122.885 249.179 122.053 249.179 120.976C249.179 119.963 249.494 119.136 250.123 118.496C250.753 117.856 251.734 117.536 253.067 117.536C254.358 117.536 255.329 117.861 255.979 118.512C256.641 119.152 256.971 120.155 256.971 121.52V123.84C256.971 124.693 256.795 125.445 256.443 126.096C256.091 126.747 255.59 127.253 254.939 127.616C254.289 127.979 253.515 128.16 252.619 128.16ZM252.971 123.024C253.409 123.024 253.83 122.949 254.235 122.8C254.641 122.651 255.003 122.464 255.323 122.24V121.12C255.323 119.616 254.566 118.864 253.051 118.864C252.283 118.864 251.707 119.051 251.323 119.424C250.939 119.797 250.747 120.299 250.747 120.928C250.747 121.579 250.902 122.091 251.211 122.464C251.531 122.837 252.118 123.024 252.971 123.024Z" fill="white"/>
<path d="M199.008 202V191.696H203.744C204.896 191.696 205.733 191.995 206.256 192.592C206.789 193.179 207.056 193.979 207.056 194.992C207.056 195.717 206.875 196.336 206.512 196.848C206.149 197.36 205.627 197.717 204.944 197.92C205.136 198.059 205.285 198.208 205.392 198.368C205.499 198.528 205.605 198.741 205.712 199.008L207.008 202H205.216L203.952 199.12C203.835 198.843 203.691 198.645 203.52 198.528C203.36 198.411 203.083 198.352 202.688 198.352H200.752V202H199.008ZM200.752 196.944H203.28C203.909 196.944 204.405 196.789 204.768 196.48C205.131 196.171 205.312 195.675 205.312 194.992C205.312 193.701 204.688 193.056 203.44 193.056H200.752V196.944ZM211.75 203.376V202.16C211.163 202.139 210.624 202.085 210.134 202C209.643 201.925 209.211 201.808 208.838 201.648V200.112C209.275 200.283 209.744 200.421 210.246 200.528C210.747 200.624 211.248 200.677 211.75 200.688V197.392C211.707 197.392 211.664 197.381 211.622 197.36C210.512 197.072 209.734 196.709 209.286 196.272C208.838 195.824 208.614 195.211 208.614 194.432C208.614 193.632 208.875 192.987 209.398 192.496C209.931 191.995 210.715 191.691 211.75 191.584V190.32H213.062V191.552C213.563 191.573 214.027 191.627 214.454 191.712C214.88 191.787 215.227 191.867 215.494 191.952V193.488C214.747 193.211 213.936 193.056 213.062 193.024V196.192C213.862 196.405 214.48 196.661 214.918 196.96C215.366 197.248 215.675 197.584 215.846 197.968C216.027 198.341 216.118 198.768 216.118 199.248C216.118 200.027 215.862 200.667 215.35 201.168C214.838 201.669 214.075 201.979 213.062 202.096V203.376H211.75ZM211.75 195.824V193.104C211.312 193.179 210.971 193.323 210.726 193.536C210.491 193.739 210.374 194.037 210.374 194.432C210.374 194.795 210.47 195.077 210.662 195.28C210.864 195.472 211.227 195.653 211.75 195.824ZM213.062 200.608C213.499 200.533 213.824 200.395 214.038 200.192C214.251 199.979 214.358 199.664 214.358 199.248C214.358 198.875 214.256 198.581 214.054 198.368C213.862 198.144 213.531 197.947 213.062 197.776V200.608ZM221.553 202.16C220.262 202.16 219.286 201.84 218.625 201.2C217.974 200.56 217.649 199.552 217.649 198.176V195.856C217.649 195.003 217.825 194.251 218.177 193.6C218.529 192.949 219.03 192.443 219.681 192.08C220.331 191.717 221.105 191.536 222.001 191.536C222.523 191.536 222.977 191.568 223.361 191.632C223.755 191.696 224.118 191.787 224.449 191.904V193.392C224.118 193.275 223.761 193.184 223.377 193.12C223.003 193.056 222.582 193.024 222.113 193.024C221.153 193.024 220.443 193.253 219.985 193.712C219.526 194.16 219.297 194.763 219.297 195.52V196.16C219.67 195.883 220.097 195.68 220.577 195.552C221.067 195.413 221.51 195.344 221.905 195.344C223.11 195.344 224.001 195.637 224.577 196.224C225.153 196.811 225.441 197.643 225.441 198.72C225.441 199.744 225.126 200.576 224.497 201.216C223.867 201.845 222.886 202.16 221.553 202.16ZM221.569 200.848C222.337 200.848 222.913 200.661 223.297 200.288C223.681 199.915 223.873 199.413 223.873 198.784C223.873 198.123 223.713 197.611 223.393 197.248C223.083 196.875 222.502 196.688 221.649 196.688C221.222 196.688 220.801 196.763 220.385 196.912C219.979 197.051 219.617 197.237 219.297 197.472V198.576C219.297 200.091 220.054 200.848 221.569 200.848ZM230.42 202.16C229.898 202.16 229.444 202.128 229.06 202.064C228.676 202 228.314 201.915 227.972 201.808V200.304C228.303 200.432 228.655 200.528 229.028 200.592C229.412 200.656 229.839 200.688 230.308 200.688C231.268 200.688 231.978 200.459 232.436 200C232.895 199.541 233.124 198.933 233.124 198.176V197.536C232.751 197.803 232.324 198.005 231.844 198.144C231.364 198.283 230.922 198.352 230.516 198.352C229.322 198.352 228.431 198.059 227.844 197.472C227.268 196.885 226.98 196.053 226.98 194.976C226.98 193.963 227.295 193.136 227.924 192.496C228.554 191.856 229.535 191.536 230.868 191.536C232.159 191.536 233.13 191.861 233.78 192.512C234.442 193.152 234.773 194.155 234.773 195.52V197.84C234.773 198.693 234.596 199.445 234.244 200.096C233.892 200.747 233.391 201.253 232.74 201.616C232.09 201.979 231.316 202.16 230.42 202.16ZM230.772 197.024C231.21 197.024 231.631 196.949 232.036 196.8C232.442 196.651 232.804 196.464 233.124 196.24V195.12C233.124 193.616 232.367 192.864 230.852 192.864C230.084 192.864 229.508 193.051 229.124 193.424C228.74 193.797 228.548 194.299 228.548 194.928C228.548 195.579 228.703 196.091 229.012 196.464C229.332 196.837 229.919 197.024 230.772 197.024ZM236.312 203.92L236.792 200.896H238.312L237.576 203.92H236.312ZM243.287 202.16C242.765 202.16 242.311 202.128 241.927 202.064C241.543 202 241.181 201.915 240.839 201.808V200.304C241.17 200.432 241.522 200.528 241.895 200.592C242.279 200.656 242.706 200.688 243.175 200.688C244.135 200.688 244.845 200.459 245.303 200C245.762 199.541 245.991 198.933 245.991 198.176V197.536C245.618 197.803 245.191 198.005 244.711 198.144C244.231 198.283 243.789 198.352 243.383 198.352C242.189 198.352 241.298 198.059 240.711 197.472C240.135 196.885 239.847 196.053 239.847 194.976C239.847 193.963 240.162 193.136 240.791 192.496C241.421 191.856 242.402 191.536 243.735 191.536C245.026 191.536 245.997 191.861 246.647 192.512C247.309 193.152 247.639 194.155 247.639 195.52V197.84C247.639 198.693 247.463 199.445 247.111 200.096C246.759 200.747 246.258 201.253 245.607 201.616C244.957 201.979 244.183 202.16 243.287 202.16ZM243.639 197.024C244.077 197.024 244.498 196.949 244.903 196.8C245.309 196.651 245.671 196.464 245.991 196.24V195.12C245.991 193.616 245.234 192.864 243.719 192.864C242.951 192.864 242.375 193.051 241.991 193.424C241.607 193.797 241.415 194.299 241.415 194.928C241.415 195.579 241.57 196.091 241.879 196.464C242.199 196.837 242.786 197.024 243.639 197.024ZM252.619 202.16C252.097 202.16 251.643 202.128 251.259 202.064C250.875 202 250.513 201.915 250.171 201.808V200.304C250.502 200.432 250.854 200.528 251.227 200.592C251.611 200.656 252.038 200.688 252.507 200.688C253.467 200.688 254.177 200.459 254.635 200C255.094 199.541 255.323 198.933 255.323 198.176V197.536C254.95 197.803 254.523 198.005 254.043 198.144C253.563 198.283 253.121 198.352 252.715 198.352C251.521 198.352 250.63 198.059 250.043 197.472C249.467 196.885 249.179 196.053 249.179 194.976C249.179 193.963 249.494 193.136 250.123 192.496C250.753 191.856 251.734 191.536 253.067 191.536C254.358 191.536 255.329 191.861 255.979 192.512C256.641 193.152 256.971 194.155 256.971 195.52V197.84C256.971 198.693 256.795 199.445 256.443 200.096C256.091 200.747 255.59 201.253 254.939 201.616C254.289 201.979 253.515 202.16 252.619 202.16ZM252.971 197.024C253.409 197.024 253.83 196.949 254.235 196.8C254.641 196.651 255.003 196.464 255.323 196.24V195.12C255.323 193.616 254.566 192.864 253.051 192.864C252.283 192.864 251.707 193.051 251.323 193.424C250.939 193.797 250.747 194.299 250.747 194.928C250.747 195.579 250.902 196.091 251.211 196.464C251.531 196.837 252.118 197.024 252.971 197.024Z" fill="white"/>
<g clip-path="url(#clip0_554_1018)">
<path d="M488.775 236.32C489.367 236.357 489.694 235.622 489.246 235.193L489.201 235.016C489.207 235.002 489.213 234.988 489.219 234.974C489.818 233.546 491.847 233.556 492.44 234.985C492.967 236.254 493.638 237.525 493.803 238.867C493.877 239.459 493.844 240.062 493.712 240.643C494.947 237.947 495.596 235.003 495.596 232.042C495.596 231.298 495.555 230.554 495.472 229.811C495.404 229.204 495.309 228.601 495.187 228.003C494.526 224.772 493.096 221.694 491.032 219.124C490.04 218.582 489.213 217.734 488.713 216.718C488.534 216.351 488.393 215.957 488.327 215.556C488.44 215.571 488.752 213.851 488.667 213.746C488.825 213.507 489.106 213.388 489.278 213.155C490.132 211.997 491.31 212.199 491.924 213.774C493.237 214.436 493.25 215.535 492.444 216.592C491.932 217.265 491.861 218.174 491.412 218.894C491.458 218.954 491.506 219.011 491.552 219.07C492.401 220.158 493.135 221.328 493.753 222.557C493.578 221.191 493.837 219.546 494.277 218.485C494.778 217.277 495.716 216.259 496.543 215.215C497.536 213.96 499.573 214.507 499.748 216.098C499.749 216.113 499.751 216.129 499.753 216.144C499.63 216.214 499.51 216.287 499.392 216.365C498.722 216.808 498.953 217.847 499.748 217.97L499.766 217.973C499.721 218.415 499.645 218.854 499.534 219.285C500.595 223.387 498.305 224.881 495.035 224.948C494.963 224.985 494.893 225.022 494.821 225.057C495.152 225.99 495.417 226.947 495.613 227.916C495.789 228.773 495.911 229.639 495.979 230.509C496.064 231.607 496.057 232.71 495.964 233.805L495.97 233.766C496.205 232.56 496.86 231.433 497.811 230.652C499.228 229.488 501.231 229.059 502.759 228.123C503.495 227.673 504.438 228.255 504.31 229.108L504.304 229.149C504.076 229.241 503.854 229.349 503.639 229.469C503.516 229.538 503.396 229.612 503.279 229.69C502.608 230.133 502.84 231.172 503.634 231.295L503.652 231.298C503.665 231.299 503.676 231.301 503.689 231.303C503.299 232.23 502.755 233.091 502.073 233.833C501.41 237.414 498.562 237.754 495.515 236.711H495.513C495.18 238.162 494.693 239.579 494.067 240.93H488.904C488.886 240.873 488.869 240.814 488.852 240.756C489.33 240.786 489.811 240.758 490.281 240.671C489.898 240.201 489.515 239.727 489.132 239.257C489.122 239.248 489.115 239.239 489.108 239.23C488.913 238.989 488.717 238.75 488.523 238.51L488.523 238.509C488.511 237.771 488.599 237.035 488.775 236.32Z" fill="#F2F2F2"/>
<path d="M410.439 240.855H359.888C353.724 240.855 348.709 235.84 348.709 229.676V121.037C348.709 114.874 353.724 109.859 359.888 109.859H410.439C416.603 109.859 421.618 114.874 421.618 121.037V229.676C421.618 235.84 416.603 240.855 410.439 240.855Z" fill="#3F3D56"/>
<path d="M421.618 149.82C421.357 149.82 421.145 150.032 421.145 150.293V165.426C421.145 165.687 421.357 165.899 421.618 165.899C421.879 165.899 422.091 165.687 422.091 165.426V150.293C422.091 150.032 421.879 149.82 421.618 149.82Z" fill="#3F3D56"/>
<path d="M420.554 121.038V229.674C420.554 235.039 416.378 239.428 411.098 239.769H411.096C411.018 239.773 410.94 239.778 410.859 239.78C410.72 239.787 410.58 239.79 410.438 239.79C410.438 239.79 409.918 239.752 408.968 239.681C408.008 239.61 406.61 239.504 404.867 239.364C404.345 239.324 403.794 239.279 403.212 239.232C402.054 239.137 400.782 239.033 399.417 238.915C398.873 238.87 398.311 238.82 397.736 238.771C394.799 238.518 391.51 238.222 388.041 237.886C387.455 237.832 386.864 237.775 386.268 237.716C386.112 237.7 385.953 237.685 385.795 237.669C383.322 237.425 349.773 230.942 349.773 229.674V121.038C349.773 115.45 354.302 110.922 359.889 110.922H365.928C366.893 110.922 367.668 111.674 367.751 112.636C367.758 112.7 367.765 112.764 367.777 112.828C367.952 113.795 368.839 114.469 369.822 114.469H400.505C401.489 114.469 402.375 113.795 402.55 112.828C402.562 112.764 402.569 112.7 402.576 112.636C402.659 111.674 403.435 110.922 404.399 110.922H410.438C416.026 110.922 420.554 115.45 420.554 121.038Z" fill="white"/>
<path d="M348.473 138.47C348.212 138.47 348 138.682 348 138.943V142.726C348 142.987 348.212 143.199 348.473 143.199C348.734 143.199 348.946 142.987 348.946 142.726V138.943C348.946 138.682 348.734 138.47 348.473 138.47Z" fill="#3F3D56"/>
<path d="M348.473 149.82C348.212 149.82 348 150.032 348 150.293V157.623C348 157.884 348.212 158.096 348.473 158.096C348.734 158.096 348.946 157.884 348.946 157.623V150.293C348.946 150.032 348.734 149.82 348.473 149.82Z" fill="#3F3D56"/>
<path d="M348.473 160.224C348.212 160.224 348 160.436 348 160.697V168.027C348 168.287 348.212 168.5 348.473 168.5C348.734 168.5 348.946 168.287 348.946 168.027V160.697C348.946 160.436 348.734 160.224 348.473 160.224Z" fill="#3F3D56"/>
<path d="M365.763 112.578H356.72C356.67 112.578 356.631 112.618 356.631 112.667V113.672C356.631 113.721 356.67 113.76 356.72 113.76H365.763C365.813 113.76 365.852 113.721 365.852 113.672V112.667C365.852 112.618 365.813 112.578 365.763 112.578Z" fill="#E6E6E6"/>
<path d="M405.894 113.761C406.416 113.761 406.839 113.337 406.839 112.815C406.839 112.292 406.416 111.869 405.894 111.869C405.371 111.869 404.948 112.292 404.948 112.815C404.948 113.337 405.371 113.761 405.894 113.761Z" fill="#E6E6E6"/>
<path d="M408.495 113.761C409.017 113.761 409.44 113.337 409.44 112.815C409.44 112.292 409.017 111.869 408.495 111.869C407.972 111.869 407.549 112.292 407.549 112.815C407.549 113.337 407.972 113.761 408.495 113.761Z" fill="#E6E6E6"/>
<path d="M411.096 113.761C411.618 113.761 412.042 113.337 412.042 112.815C412.042 112.292 411.618 111.869 411.096 111.869C410.573 111.869 410.15 112.292 410.15 112.815C410.15 113.337 410.573 113.761 411.096 113.761Z" fill="#E6E6E6"/>
<path d="M405.103 176.534H364.988C364.356 176.534 363.842 176.02 363.842 175.388C363.842 174.756 364.356 174.242 364.988 174.242H405.103C405.735 174.242 406.249 174.756 406.249 175.388C406.249 176.02 405.735 176.534 405.103 176.534Z" fill="#E6E6E6"/>
<path d="M385.189 220.947C394.368 220.947 401.808 213.506 401.808 204.328C401.808 195.15 394.368 187.709 385.189 187.709C376.011 187.709 368.57 195.15 368.57 204.328C368.57 213.506 376.011 220.947 385.189 220.947Z" fill="#DF5031"/>
<path d="M387.831 198.902C386.428 198.96 384.842 199.056 383.806 200.132C382.905 201.067 382.708 202.454 383.621 203.453C384.537 204.453 385.961 204.589 387.016 205.37C388.255 206.286 388.074 208.1 386.875 208.969C385.46 209.994 383.634 209.516 382.341 208.541C382.01 208.291 381.688 208.851 382.016 209.098C383.174 209.971 384.686 210.457 386.118 210.039C387.411 209.662 388.413 208.608 388.515 207.237C388.563 206.583 388.377 205.919 387.971 205.402C387.541 204.857 386.922 204.521 386.297 204.248C385.22 203.778 383.367 203.17 383.68 201.64C384.059 199.785 386.317 199.609 387.831 199.547C388.244 199.53 388.246 198.885 387.831 198.902Z" fill="white"/>
<path d="M385.229 198.025L385.167 212.177C385.165 212.592 385.81 212.593 385.811 212.177L385.873 198.025C385.875 197.61 385.23 197.609 385.229 198.025Z" fill="white"/>
<path d="M473.239 91H391.302C388.297 91 385.853 93.4441 385.853 96.4498V152.599C385.853 155.605 388.297 158.049 391.302 158.049H473.239C476.245 158.049 478.689 155.605 478.689 152.599V96.4498C478.689 93.4441 476.245 91 473.239 91Z" fill="white"/>
<path d="M431.894 124.385C436.958 124.385 441.063 120.28 441.063 115.216C441.063 110.152 436.958 106.047 431.894 106.047C426.83 106.047 422.725 110.152 422.725 115.216C422.725 120.28 426.83 124.385 431.894 124.385Z" fill="#DF5031"/>
<path d="M433.634 111.125C432.499 111.172 431.221 111.243 430.362 112.088C429.651 112.788 429.402 113.877 430.056 114.701C430.744 115.568 431.888 115.733 432.786 116.287C433.345 116.631 433.715 117.153 433.727 117.824C433.738 118.452 433.448 119.038 432.964 119.432C431.775 120.398 430.154 119.998 429.03 119.153C428.809 118.987 428.594 119.36 428.813 119.525C429.744 120.224 430.943 120.63 432.102 120.329C433.169 120.052 434.028 119.213 434.143 118.092C434.265 116.91 433.489 116.106 432.483 115.644C431.563 115.222 429.95 114.772 430.102 113.462C430.296 111.795 432.336 111.608 433.634 111.555C433.909 111.543 433.911 111.113 433.634 111.125Z" fill="white"/>
<path d="M431.661 110.346L431.61 122.139C431.608 122.415 432.038 122.416 432.039 122.139L432.091 110.346C432.092 110.069 431.662 110.069 431.661 110.346Z" fill="white"/>
<path d="M473.239 91H391.302C388.297 91 385.853 93.4441 385.853 96.4498V152.599C385.853 155.605 388.297 158.049 391.302 158.049H473.239C476.245 158.049 478.689 155.605 478.689 152.599V96.4498C478.689 93.4441 476.245 91 473.239 91ZM478.116 152.599C478.116 155.289 475.93 157.476 473.239 157.476H391.302C388.612 157.476 386.426 155.289 386.426 152.599V96.4498C386.426 93.7593 388.612 91.5731 391.302 91.5731H473.239C475.93 91.5731 478.116 93.7593 478.116 96.4498V152.599Z" fill="#3F3D56"/>
<path d="M422.824 96.5444H414.784C414.38 96.5444 414.05 96.874 414.05 97.278C414.05 97.6848 414.38 98.0143 414.784 98.0143H422.824C423.228 98.0143 423.557 97.6848 423.557 97.278C423.557 96.874 423.228 96.5444 422.824 96.5444Z" fill="#E6E6E6"/>
<path d="M436.291 96.5444H428.251C427.847 96.5444 427.517 96.874 427.517 97.278C427.517 97.6848 427.847 98.0143 428.251 98.0143H436.291C436.695 98.0143 437.025 97.6848 437.025 97.278C437.025 96.874 436.695 96.5444 436.291 96.5444Z" fill="#E6E6E6"/>
<path d="M449.758 96.5444H441.718C441.314 96.5444 440.984 96.874 440.984 97.278C440.984 97.6848 441.314 98.0143 441.718 98.0143H449.758C450.162 98.0143 450.492 97.6848 450.492 97.278C450.492 96.874 450.162 96.5444 449.758 96.5444Z" fill="#E6E6E6"/>
<path d="M463.019 129.543H401.523C398.964 129.543 396.884 131.623 396.884 134.182V138.371C396.884 140.93 398.964 143.01 401.523 143.01H463.019C465.577 143.01 467.658 140.93 467.658 138.371V134.182C467.658 131.623 465.577 129.543 463.019 129.543Z" fill="#DF5031"/>
<path d="M368.968 151.599L366.61 150.482C367.577 151.832 368.411 153.94 368.857 155.618C369.612 154.055 370.83 152.143 372.036 151.001L369.543 151.642C371.079 144.116 376.855 138.712 383.47 138.712V138.139C376.561 138.139 370.536 143.769 368.968 151.599Z" fill="#3F3D56"/>
<path d="M379.822 163.067H364.922C364.29 163.067 363.776 162.553 363.776 161.921C363.776 161.289 364.29 160.775 364.922 160.775H379.822C380.454 160.775 380.968 161.289 380.968 161.921C380.968 162.553 380.454 163.067 379.822 163.067Z" fill="#E6E6E6"/>
<path d="M478.939 159.334L478.789 171.036L475.877 181.468L473.55 180.599L474.583 171.038L474.447 158.099L478.939 159.334Z" fill="#FFB6B6"/>
<path d="M475.867 183.15C476.14 181.65 475.64 180.302 474.749 180.14C473.859 179.978 472.915 181.062 472.642 182.562C472.369 184.062 472.87 185.41 473.76 185.572C474.651 185.734 475.594 184.65 475.867 183.15Z" fill="#FFB6B6"/>
<path d="M475.406 145.401C475.406 145.401 480.394 145.47 480.39 148.12C480.387 149.616 480.066 163.198 479.172 171.449C478.483 177.812 477.166 179.472 477.166 179.472L474.014 172.309L475.406 145.401Z" fill="#E6E6E6"/>
<path d="M475.278 169.309H458.433C459.845 166.158 460.713 163.158 459.356 160.771L475.278 159.848C474.482 163.07 474.385 166.232 475.278 169.309Z" fill="#FFB6B6"/>
<path d="M473.201 141.388L466.51 140.927L463.741 144.388L462.337 144.643C460.233 145.026 458.734 146.904 458.828 149.041L459.374 161.451L475.369 162.617L479.201 146.456L474.586 144.619L473.201 141.388Z" fill="#E6E6E6"/>
<path d="M432.393 145.132C432.867 145.559 433.206 146.058 433.385 146.542L438.165 150.325L436.298 152.547L431.651 148.47C431.151 148.343 430.619 148.059 430.144 147.632C429.06 146.656 428.684 145.305 429.305 144.615C429.925 143.925 431.308 144.157 432.393 145.132Z" fill="#FFB6B6"/>
<path d="M466.185 148.317L447.871 160.684L434.743 151.548L436.714 147.978L447.047 153.982L456.575 146.666C459.968 143.479 464.221 144.097 466.185 148.317Z" fill="#E6E6E6"/>
<path d="M469.459 139.891C472.2 139.891 474.423 137.668 474.423 134.926C474.423 132.184 472.2 129.962 469.459 129.962C466.717 129.962 464.494 132.184 464.494 134.926C464.494 137.668 466.717 139.891 469.459 139.891Z" fill="#FFB6B6"/>
<path d="M476.206 133.706V134.669L470.608 133.093L466.41 133.973C466.361 133.334 466.172 132.706 465.857 132.15C466.076 133.042 466.101 133.732 465.868 134.087L465.304 134.205C465.212 133.956 465.035 133.738 464.802 133.606C464.78 133.592 464.751 133.58 464.725 133.589C464.685 133.603 464.682 133.655 464.682 133.695C464.688 133.907 464.694 134.119 464.702 134.331L463.08 134.669V133.706C461.524 130.206 465.625 127.176 469.645 127.145C471.459 127.131 473.098 127.878 474.287 129.064C475.473 130.254 476.206 131.893 476.206 133.706Z" fill="#2F2E41"/>
<path d="M479.356 144.995L478.933 144.96C478.963 144.822 478.993 144.686 479.021 144.547C479.255 143.387 478.739 141.91 478.701 140.795C478.502 141.973 478.843 143.422 478.491 144.54C478.451 144.665 476.921 145.466 476.88 145.589C475.186 144.97 473.423 142.991 471.426 144.147C470.246 144.83 468.898 144.531 467.557 144.218C467.226 144.14 467.179 142.501 466.851 142.437C466.263 142.322 465.399 143.811 464.845 143.87L467.137 134.987C467.137 130.155 466.69 125.085 472.811 126.794C474.35 127.224 475.874 127.561 477.01 128.831C478.146 130.103 478.955 131.882 479.242 133.906C479.415 135.128 480.493 139.276 479.356 144.995Z" fill="#2F2E41"/>
<path d="M475.403 234.318L472.671 234.382L471.148 222.106L475.18 222.011L475.403 234.318Z" fill="#FFB7B7"/>
<path d="M466.028 240.019C466.028 240.48 466.356 240.855 466.76 240.855H472.184C472.184 240.855 472.718 238.709 474.894 237.786L475.044 240.855H477.842L477.503 235.92C477.503 235.92 478.251 233.28 476.697 231.93C475.143 230.581 476.402 230.769 476.402 230.769L475.79 227.715L471.562 228.212L471.531 233.006L469.479 237.765L466.47 239.252C466.202 239.384 466.028 239.685 466.028 240.019Z" fill="#2F2E41"/>
<path d="M467.09 232.317L464.463 233.073L459.875 221.585L463.751 220.47L467.09 232.317Z" fill="#FFB7B7"/>
<path d="M459.468 240.211C459.585 240.657 459.997 240.936 460.388 240.834L465.635 239.457C465.635 239.457 465.606 237.247 467.477 235.801L468.401 238.732L471.107 238.022L469.527 233.334C469.527 233.334 469.581 230.591 467.735 229.68C465.889 228.769 467.155 228.631 467.155 228.631L465.788 225.832L461.825 227.386L463.011 232.031L462.234 237.155L459.701 239.357C459.475 239.553 459.384 239.888 459.468 240.211Z" fill="#2F2E41"/>
<path d="M473.728 168.584L475.447 169.157C478.135 174.121 479.275 180.714 479.124 188.663L476.07 224.369H471.074L467.417 184.592L460.97 199.521L465.687 224.369L460.97 224.85L451.47 199.012L458.086 168.983L473.728 168.584Z" fill="#2F2E41"/>
</g>
<defs>
<clipPath id="clip0_554_1018">
<rect width="156.322" height="150" fill="white" transform="translate(348 91)"/>
</clipPath>
</defs>
</svg>
