<svg width="636" height="339" viewBox="0 0 636 339" fill="none" xmlns="http://www.w3.org/2000/svg">
<rect width="636" height="339" rx="5" fill="#04040B"/>
<path d="M243.2 43L255.5 10.8H261.6L273.8 43H268.2L265 34.7H252.05L248.85 43H243.2ZM252.9 30.5H264.1L258.5 15.75L252.9 30.5ZM283.762 43L274.412 19.3H280.062L286.712 37.7L293.362 19.3H298.962L289.662 43H283.762ZM305.06 14.35V9.85H311.01V14.35H305.06ZM305.51 43V23.45H301.91L302.41 19.3H310.96V43H305.51ZM325.718 43.5C324.085 43.5 322.518 43.3833 321.018 43.15C319.551 42.9167 318.335 42.6333 317.368 42.3V37.7C318.501 38.1333 319.751 38.4667 321.118 38.7C322.485 38.9333 323.785 39.05 325.018 39.05C326.885 39.05 328.218 38.8833 329.018 38.55C329.818 38.2167 330.218 37.5667 330.218 36.6C330.218 35.9 329.968 35.35 329.468 34.95C329.001 34.55 328.285 34.1833 327.318 33.85C326.385 33.5167 325.185 33.1167 323.718 32.65C322.318 32.1833 321.101 31.6833 320.068 31.15C319.035 30.5833 318.235 29.8667 317.668 29C317.101 28.1333 316.818 27 316.818 25.6C316.818 23.4333 317.601 21.7667 319.168 20.6C320.735 19.4 323.251 18.8 326.718 18.8C328.085 18.8 329.385 18.9 330.618 19.1C331.851 19.3 332.901 19.55 333.768 19.85V24.4C332.835 24.0333 331.801 23.75 330.668 23.55C329.568 23.35 328.535 23.25 327.568 23.25C325.835 23.25 324.518 23.4 323.618 23.7C322.751 24 322.318 24.6 322.318 25.5C322.318 26.4333 322.768 27.1 323.668 27.5C324.601 27.8667 326.085 28.3833 328.118 29.05C329.985 29.6167 331.468 30.2167 332.568 30.85C333.668 31.4833 334.451 32.25 334.918 33.15C335.418 34.0167 335.668 35.15 335.668 36.55C335.668 38.8833 334.818 40.6333 333.118 41.8C331.418 42.9333 328.951 43.5 325.718 43.5ZM352.129 43.5C347.862 43.5 344.729 42.4333 342.729 40.3C340.762 38.1667 339.779 35.1167 339.779 31.15C339.779 27.1833 340.779 24.1333 342.779 22C344.779 19.8667 347.896 18.8 352.129 18.8C356.396 18.8 359.529 19.8667 361.529 22C363.529 24.1333 364.529 27.1833 364.529 31.15C364.529 35.1167 363.529 38.1667 361.529 40.3C359.562 42.4333 356.429 43.5 352.129 43.5ZM352.129 38.9C354.629 38.9 356.396 38.3 357.429 37.1C358.496 35.8667 359.029 33.8833 359.029 31.15C359.029 28.4167 358.496 26.45 357.429 25.25C356.396 24.05 354.629 23.45 352.129 23.45C349.662 23.45 347.896 24.05 346.829 25.25C345.796 26.45 345.279 28.4167 345.279 31.15C345.279 33.8833 345.796 35.8667 346.829 37.1C347.896 38.3 349.662 38.9 352.129 38.9ZM377.988 43.5C376.354 43.5 374.788 43.3833 373.288 43.15C371.821 42.9167 370.604 42.6333 369.638 42.3V37.7C370.771 38.1333 372.021 38.4667 373.388 38.7C374.754 38.9333 376.054 39.05 377.288 39.05C379.154 39.05 380.488 38.8833 381.288 38.55C382.088 38.2167 382.488 37.5667 382.488 36.6C382.488 35.9 382.238 35.35 381.738 34.95C381.271 34.55 380.554 34.1833 379.588 33.85C378.654 33.5167 377.454 33.1167 375.988 32.65C374.588 32.1833 373.371 31.6833 372.338 31.15C371.304 30.5833 370.504 29.8667 369.938 29C369.371 28.1333 369.088 27 369.088 25.6C369.088 23.4333 369.871 21.7667 371.438 20.6C373.004 19.4 375.521 18.8 378.988 18.8C380.354 18.8 381.654 18.9 382.888 19.1C384.121 19.3 385.171 19.55 386.038 19.85V24.4C385.104 24.0333 384.071 23.75 382.938 23.55C381.838 23.35 380.804 23.25 379.838 23.25C378.104 23.25 376.788 23.4 375.888 23.7C375.021 24 374.588 24.6 374.588 25.5C374.588 26.4333 375.038 27.1 375.938 27.5C376.871 27.8667 378.354 28.3833 380.388 29.05C382.254 29.6167 383.738 30.2167 384.838 30.85C385.938 31.4833 386.721 32.25 387.188 33.15C387.688 34.0167 387.938 35.15 387.938 36.55C387.938 38.8833 387.088 40.6333 385.388 41.8C383.688 42.9333 381.221 43.5 377.988 43.5Z" fill="#DF5031"/>
<path d="M124.056 101L129.96 85.544H132.888L138.744 101H136.056L134.52 97.016H128.304L126.768 101H124.056ZM128.712 95H134.088L131.4 87.92L128.712 95ZM147.328 101V85.544H154.216C155.4 85.544 156.376 85.768 157.144 86.216C157.912 86.664 158.48 87.28 158.848 88.064C159.216 88.832 159.4 89.712 159.4 90.704C159.4 92.24 158.92 93.472 157.96 94.4C157.016 95.328 155.736 95.792 154.12 95.792H149.944V101H147.328ZM149.944 93.728H153.64C154.68 93.728 155.464 93.456 155.992 92.912C156.52 92.368 156.784 91.632 156.784 90.704C156.784 89.712 156.528 88.944 156.016 88.4C155.52 87.856 154.768 87.584 153.76 87.584H149.944V93.728ZM167.172 101.24C165.124 101.24 163.62 100.728 162.66 99.704C161.716 98.68 161.244 97.216 161.244 95.312C161.244 93.408 161.724 91.944 162.684 90.92C163.644 89.896 165.14 89.384 167.172 89.384C169.22 89.384 170.724 89.896 171.684 90.92C172.644 91.944 173.124 93.408 173.124 95.312C173.124 97.216 172.644 98.68 171.684 99.704C170.74 100.728 169.236 101.24 167.172 101.24ZM167.172 99.032C168.372 99.032 169.22 98.744 169.716 98.168C170.228 97.576 170.484 96.624 170.484 95.312C170.484 94 170.228 93.056 169.716 92.48C169.22 91.904 168.372 91.616 167.172 91.616C165.988 91.616 165.14 91.904 164.628 92.48C164.132 93.056 163.884 94 163.884 95.312C163.884 96.624 164.132 97.576 164.628 98.168C165.14 98.744 165.988 99.032 167.172 99.032ZM177.351 101L174.351 89.624H176.967L178.935 97.904L181.167 91.016V89.624H183.159L185.631 97.904L187.599 89.624H190.191L187.215 101H184.743L182.319 93.56L179.847 101H177.351ZM197.659 101.24C195.675 101.24 194.139 100.752 193.051 99.776C191.963 98.8 191.419 97.304 191.419 95.288C191.419 93.464 191.883 92.024 192.811 90.968C193.739 89.912 195.147 89.384 197.035 89.384C198.763 89.384 200.059 89.84 200.923 90.752C201.803 91.648 202.243 92.808 202.243 94.232V96.344H193.915C194.043 97.448 194.443 98.208 195.115 98.624C195.787 99.04 196.811 99.248 198.187 99.248C198.763 99.248 199.355 99.192 199.963 99.08C200.571 98.968 201.099 98.824 201.547 98.648V100.568C201.035 100.792 200.443 100.96 199.771 101.072C199.115 101.184 198.411 101.24 197.659 101.24ZM193.915 94.64H199.939V93.848C199.939 93.064 199.723 92.456 199.291 92.024C198.859 91.576 198.131 91.352 197.107 91.352C195.891 91.352 195.051 91.616 194.587 92.144C194.139 92.672 193.915 93.504 193.915 94.64ZM205.03 101V89.624H207.43L207.574 90.944C208.118 90.592 208.766 90.272 209.518 89.984C210.27 89.696 211.014 89.496 211.75 89.384V91.376C211.302 91.456 210.814 91.576 210.286 91.736C209.774 91.88 209.286 92.048 208.822 92.24C208.358 92.416 207.966 92.6 207.646 92.792V101H205.03ZM213.895 101V85.544H224.407V87.584H216.511V92.264H223.519V94.28H216.511V101H213.895ZM227.329 87.248V85.088H230.185V87.248H227.329ZM227.545 101V91.616H225.817L226.057 89.624H230.161V101H227.545ZM237.797 101.24C236.581 101.24 235.669 100.92 235.061 100.28C234.469 99.624 234.173 98.736 234.173 97.616V91.664H232.493V89.624H234.173V87.008L236.765 86.216V89.624H239.789L239.621 91.664H236.765V97.472C236.765 98.128 236.917 98.592 237.221 98.864C237.525 99.12 238.021 99.248 238.709 99.248C239.141 99.248 239.597 99.168 240.077 99.008V100.856C239.453 101.112 238.693 101.24 237.797 101.24ZM248.089 101V89.624H250.489L250.609 90.824C251.121 90.424 251.729 90.088 252.433 89.816C253.153 89.528 253.945 89.384 254.809 89.384C256.282 89.384 257.354 89.728 258.026 90.416C258.698 91.104 259.034 92.176 259.034 93.632V101H256.441V93.752C256.441 92.872 256.257 92.256 255.889 91.904C255.537 91.552 254.865 91.376 253.873 91.376C253.281 91.376 252.697 91.496 252.121 91.736C251.561 91.976 251.089 92.288 250.705 92.672V101H248.089ZM269.173 88.112C268.741 88.112 268.309 88.032 267.877 87.872C267.461 87.712 267.053 87.56 266.653 87.416C266.269 87.256 265.893 87.176 265.525 87.176C265.109 87.176 264.725 87.24 264.373 87.368C264.021 87.496 263.709 87.72 263.437 88.04V86.12C263.645 85.896 263.933 85.72 264.301 85.592C264.685 85.464 265.077 85.4 265.477 85.4C265.941 85.4 266.373 85.48 266.773 85.64C267.173 85.784 267.565 85.936 267.949 86.096C268.333 86.256 268.733 86.336 269.149 86.336C269.981 86.336 270.621 86.04 271.069 85.448V87.368C270.909 87.576 270.661 87.752 270.325 87.896C269.989 88.04 269.605 88.112 269.173 88.112ZM265.405 101.24C264.685 101.24 264.013 101.112 263.389 100.856C262.781 100.6 262.293 100.216 261.925 99.704C261.557 99.176 261.373 98.528 261.373 97.76C261.373 96.672 261.741 95.8 262.477 95.144C263.229 94.472 264.381 94.136 265.933 94.136H269.581V93.632C269.581 93.088 269.493 92.656 269.317 92.336C269.157 92.016 268.853 91.784 268.405 91.64C267.973 91.496 267.333 91.424 266.485 91.424C265.141 91.424 263.885 91.624 262.717 92.024V90.08C263.229 89.872 263.853 89.704 264.589 89.576C265.325 89.448 266.117 89.384 266.965 89.384C268.629 89.384 269.893 89.72 270.757 90.392C271.637 91.064 272.077 92.16 272.077 93.68V101H269.845L269.677 99.848C269.213 100.296 268.637 100.64 267.949 100.88C267.277 101.12 266.429 101.24 265.405 101.24ZM266.101 99.368C266.885 99.368 267.565 99.24 268.141 98.984C268.733 98.712 269.213 98.352 269.581 97.904V95.912H265.981C265.213 95.912 264.653 96.064 264.301 96.368C263.965 96.656 263.797 97.104 263.797 97.712C263.797 98.304 263.997 98.728 264.397 98.984C264.797 99.24 265.365 99.368 266.101 99.368ZM280.666 101.24C278.618 101.24 277.114 100.728 276.154 99.704C275.21 98.68 274.738 97.216 274.738 95.312C274.738 93.408 275.218 91.944 276.178 90.92C277.138 89.896 278.634 89.384 280.666 89.384C282.714 89.384 284.218 89.896 285.178 90.92C286.138 91.944 286.618 93.408 286.618 95.312C286.618 97.216 286.138 98.68 285.178 99.704C284.234 100.728 282.73 101.24 280.666 101.24ZM280.666 99.032C281.866 99.032 282.714 98.744 283.21 98.168C283.722 97.576 283.978 96.624 283.978 95.312C283.978 94 283.722 93.056 283.21 92.48C282.714 91.904 281.866 91.616 280.666 91.616C279.482 91.616 278.634 91.904 278.122 92.48C277.626 93.056 277.378 94 277.378 95.312C277.378 96.624 277.626 97.576 278.122 98.168C278.634 98.744 279.482 99.032 280.666 99.032ZM128.064 134.24C127.344 134.24 126.672 134.112 126.048 133.856C125.44 133.6 124.952 133.216 124.584 132.704C124.216 132.176 124.032 131.528 124.032 130.76C124.032 129.672 124.4 128.8 125.136 128.144C125.888 127.472 127.04 127.136 128.592 127.136H132.24V126.632C132.24 126.088 132.152 125.656 131.976 125.336C131.816 125.016 131.512 124.784 131.064 124.64C130.632 124.496 129.992 124.424 129.144 124.424C127.8 124.424 126.544 124.624 125.376 125.024V123.08C125.888 122.872 126.512 122.704 127.248 122.576C127.984 122.448 128.776 122.384 129.624 122.384C131.288 122.384 132.552 122.72 133.416 123.392C134.296 124.064 134.736 125.16 134.736 126.68V134H132.504L132.336 132.848C131.872 133.296 131.296 133.64 130.608 133.88C129.936 134.12 129.088 134.24 128.064 134.24ZM128.76 132.368C129.544 132.368 130.224 132.24 130.8 131.984C131.392 131.712 131.872 131.352 132.24 130.904V128.912H128.64C127.872 128.912 127.312 129.064 126.96 129.368C126.624 129.656 126.456 130.104 126.456 130.712C126.456 131.304 126.656 131.728 127.056 131.984C127.456 132.24 128.024 132.368 128.76 132.368ZM144.117 134.24C143.285 134.24 142.565 134.128 141.957 133.904C141.349 133.68 140.789 133.336 140.277 132.872L140.133 134H137.877V117.824H140.493V123.368C141.485 122.712 142.677 122.384 144.069 122.384C145.685 122.384 146.957 122.848 147.885 123.776C148.829 124.688 149.301 126.168 149.301 128.216C149.301 130.28 148.837 131.8 147.909 132.776C146.981 133.752 145.717 134.24 144.117 134.24ZM143.421 132.272C144.605 132.272 145.437 131.936 145.917 131.264C146.413 130.592 146.661 129.576 146.661 128.216C146.661 126.808 146.397 125.816 145.869 125.24C145.341 124.664 144.509 124.376 143.373 124.376C142.189 124.376 141.229 124.704 140.493 125.36V131.072C141.245 131.872 142.221 132.272 143.421 132.272ZM152.086 134V122.624H154.486L154.63 123.944C155.174 123.592 155.822 123.272 156.574 122.984C157.326 122.696 158.07 122.496 158.806 122.384V124.376C158.358 124.456 157.87 124.576 157.342 124.736C156.83 124.88 156.342 125.048 155.878 125.24C155.414 125.416 155.022 125.6 154.702 125.792V134H152.086ZM161.911 120.248V118.088H164.767V120.248H161.911ZM162.127 134V124.616H160.399L160.639 122.624H164.743V134H162.127ZM168.034 134V122.624H170.434L170.578 123.944C171.122 123.592 171.77 123.272 172.522 122.984C173.274 122.696 174.018 122.496 174.754 122.384V124.376C174.306 124.456 173.818 124.576 173.29 124.736C172.778 124.88 172.29 125.048 171.826 125.24C171.362 125.416 170.97 125.6 170.65 125.792V134H168.034ZM180.325 121.472L182.125 117.224H184.429L182.413 121.472H180.325ZM179.725 134.24C179.005 134.24 178.333 134.112 177.709 133.856C177.101 133.6 176.613 133.216 176.245 132.704C175.877 132.176 175.693 131.528 175.693 130.76C175.693 129.672 176.061 128.8 176.797 128.144C177.549 127.472 178.701 127.136 180.253 127.136H183.901V126.632C183.901 126.088 183.813 125.656 183.637 125.336C183.477 125.016 183.173 124.784 182.725 124.64C182.293 124.496 181.653 124.424 180.805 124.424C179.461 124.424 178.205 124.624 177.037 125.024V123.08C177.549 122.872 178.173 122.704 178.909 122.576C179.645 122.448 180.437 122.384 181.285 122.384C182.949 122.384 184.213 122.72 185.077 123.392C185.957 124.064 186.397 125.16 186.397 126.68V134H184.165L183.997 132.848C183.533 133.296 182.957 133.64 182.269 133.88C181.597 134.12 180.749 134.24 179.725 134.24ZM180.421 132.368C181.205 132.368 181.885 132.24 182.461 131.984C183.053 131.712 183.533 131.352 183.901 130.904V128.912H180.301C179.533 128.912 178.973 129.064 178.621 129.368C178.285 129.656 178.117 130.104 178.117 130.712C178.117 131.304 178.317 131.728 178.717 131.984C179.117 132.24 179.685 132.368 180.421 132.368ZM195.356 139.184V122.624H197.612L197.756 123.752C198.268 123.288 198.828 122.944 199.436 122.72C200.044 122.496 200.764 122.384 201.596 122.384C203.228 122.384 204.5 122.832 205.412 123.728C206.324 124.608 206.78 126.072 206.78 128.12C206.78 130.168 206.308 131.704 205.364 132.728C204.42 133.736 203.132 134.24 201.5 134.24C200.124 134.24 198.948 133.92 197.972 133.28V139.184H195.356ZM200.828 132.272C203.036 132.272 204.14 130.88 204.14 128.096C204.14 126.752 203.892 125.8 203.396 125.24C202.9 124.664 202.068 124.376 200.9 124.376C199.732 124.376 198.756 124.776 197.972 125.576V131.264C198.34 131.568 198.748 131.816 199.196 132.008C199.66 132.184 200.204 132.272 200.828 132.272ZM213.117 134.24C212.397 134.24 211.725 134.112 211.101 133.856C210.493 133.6 210.005 133.216 209.637 132.704C209.269 132.176 209.085 131.528 209.085 130.76C209.085 129.672 209.453 128.8 210.189 128.144C210.941 127.472 212.093 127.136 213.645 127.136H217.293V126.632C217.293 126.088 217.205 125.656 217.029 125.336C216.869 125.016 216.565 124.784 216.117 124.64C215.685 124.496 215.045 124.424 214.197 124.424C212.853 124.424 211.597 124.624 210.429 125.024V123.08C210.941 122.872 211.565 122.704 212.301 122.576C213.037 122.448 213.829 122.384 214.677 122.384C216.341 122.384 217.605 122.72 218.469 123.392C219.349 124.064 219.789 125.16 219.789 126.68V134H217.557L217.389 132.848C216.925 133.296 216.349 133.64 215.661 133.88C214.989 134.12 214.141 134.24 213.117 134.24ZM213.813 132.368C214.597 132.368 215.277 132.24 215.853 131.984C216.445 131.712 216.925 131.352 217.293 130.904V128.912H213.693C212.925 128.912 212.365 129.064 212.013 129.368C211.677 129.656 211.509 130.104 211.509 130.712C211.509 131.304 211.709 131.728 212.109 131.984C212.509 132.24 213.077 132.368 213.813 132.368ZM222.93 134V122.624H225.33L225.474 123.944C226.018 123.592 226.666 123.272 227.418 122.984C228.17 122.696 228.914 122.496 229.65 122.384V124.376C229.202 124.456 228.714 124.576 228.186 124.736C227.674 124.88 227.186 125.048 226.722 125.24C226.258 125.416 225.866 125.6 225.546 125.792V134H222.93ZM234.62 134.24C233.9 134.24 233.228 134.112 232.604 133.856C231.996 133.6 231.508 133.216 231.14 132.704C230.772 132.176 230.588 131.528 230.588 130.76C230.588 129.672 230.956 128.8 231.692 128.144C232.444 127.472 233.596 127.136 235.148 127.136H238.796V126.632C238.796 126.088 238.708 125.656 238.532 125.336C238.372 125.016 238.068 124.784 237.62 124.64C237.188 124.496 236.548 124.424 235.7 124.424C234.356 124.424 233.1 124.624 231.932 125.024V123.08C232.444 122.872 233.068 122.704 233.804 122.576C234.54 122.448 235.332 122.384 236.18 122.384C237.844 122.384 239.108 122.72 239.972 123.392C240.852 124.064 241.292 125.16 241.292 126.68V134H239.06L238.892 132.848C238.428 133.296 237.852 133.64 237.164 133.88C236.492 134.12 235.644 134.24 234.62 134.24ZM235.316 132.368C236.1 132.368 236.78 132.24 237.356 131.984C237.948 131.712 238.428 131.352 238.796 130.904V128.912H235.196C234.428 128.912 233.868 129.064 233.516 129.368C233.18 129.656 233.012 130.104 233.012 130.712C233.012 131.304 233.212 131.728 233.612 131.984C234.012 132.24 234.58 132.368 235.316 132.368ZM255.652 134.24C253.604 134.24 252.1 133.728 251.14 132.704C250.196 131.68 249.724 130.216 249.724 128.312C249.724 126.408 250.204 124.944 251.164 123.92C252.124 122.896 253.62 122.384 255.652 122.384C257.7 122.384 259.204 122.896 260.164 123.92C261.124 124.944 261.604 126.408 261.604 128.312C261.604 130.216 261.124 131.68 260.164 132.704C259.22 133.728 257.716 134.24 255.652 134.24ZM255.652 132.032C256.852 132.032 257.7 131.744 258.196 131.168C258.708 130.576 258.964 129.624 258.964 128.312C258.964 127 258.708 126.056 258.196 125.48C257.7 124.904 256.852 124.616 255.652 124.616C254.468 124.616 253.62 124.904 253.108 125.48C252.612 126.056 252.364 127 252.364 128.312C252.364 129.624 252.612 130.576 253.108 131.168C253.62 131.744 254.468 132.032 255.652 132.032ZM270.161 139.184V122.624H272.417L272.561 123.752C273.073 123.288 273.633 122.944 274.241 122.72C274.849 122.496 275.569 122.384 276.401 122.384C278.033 122.384 279.305 122.832 280.217 123.728C281.129 124.608 281.585 126.072 281.585 128.12C281.585 130.168 281.113 131.704 280.169 132.728C279.225 133.736 277.937 134.24 276.305 134.24C274.929 134.24 273.753 133.92 272.777 133.28V139.184H270.161ZM275.633 132.272C277.841 132.272 278.945 130.88 278.945 128.096C278.945 126.752 278.697 125.8 278.201 125.24C277.705 124.664 276.873 124.376 275.705 124.376C274.537 124.376 273.561 124.776 272.777 125.576V131.264C273.145 131.568 273.553 131.816 274.001 132.008C274.465 132.184 275.009 132.272 275.633 132.272ZM288.306 121.472L290.106 117.224H292.41L290.394 121.472H288.306ZM288.474 134.24C287.114 134.24 286.066 133.864 285.33 133.112C284.61 132.36 284.25 131.256 284.25 129.8V122.624H286.866V129.8C286.866 130.648 287.074 131.272 287.49 131.672C287.906 132.072 288.546 132.272 289.41 132.272C290.05 132.272 290.642 132.152 291.186 131.912C291.73 131.672 292.202 131.352 292.602 130.952V122.624H295.194V134H292.818L292.698 132.824C292.186 133.224 291.578 133.56 290.874 133.832C290.17 134.104 289.37 134.24 288.474 134.24ZM304.725 134.24C303.893 134.24 303.173 134.128 302.565 133.904C301.957 133.68 301.397 133.336 300.885 132.872L300.741 134H298.485V117.824H301.101V123.368C302.093 122.712 303.285 122.384 304.677 122.384C306.293 122.384 307.565 122.848 308.493 123.776C309.437 124.688 309.909 126.168 309.909 128.216C309.909 130.28 309.445 131.8 308.517 132.776C307.589 133.752 306.325 134.24 304.725 134.24ZM304.029 132.272C305.213 132.272 306.045 131.936 306.525 131.264C307.021 130.592 307.269 129.576 307.269 128.216C307.269 126.808 307.005 125.816 306.477 125.24C305.949 124.664 305.117 124.376 303.981 124.376C302.797 124.376 301.837 124.704 301.101 125.36V131.072C301.853 131.872 302.829 132.272 304.029 132.272ZM315.526 134.24C314.598 134.24 313.894 134.016 313.414 133.568C312.934 133.104 312.694 132.344 312.694 131.288V117.824H315.31V131.048C315.31 131.496 315.39 131.8 315.55 131.96C315.71 132.12 315.95 132.2 316.27 132.2C316.654 132.2 317.022 132.152 317.374 132.056V133.952C317.07 134.064 316.774 134.136 316.486 134.168C316.214 134.216 315.894 134.24 315.526 134.24ZM319.776 120.248V118.088H322.632V120.248H319.776ZM319.992 134V124.616H318.264L318.504 122.624H322.608V134H319.992ZM331.492 134.24C329.492 134.24 327.98 133.736 326.956 132.728C325.932 131.704 325.42 130.232 325.42 128.312C325.42 126.312 325.98 124.824 327.1 123.848C328.236 122.872 329.748 122.384 331.636 122.384C332.42 122.384 333.076 122.44 333.604 122.552C334.148 122.664 334.668 122.84 335.164 123.08V125.024C334.332 124.608 333.324 124.4 332.14 124.4C330.828 124.4 329.82 124.696 329.116 125.288C328.412 125.864 328.06 126.872 328.06 128.312C328.06 129.672 328.372 130.672 328.996 131.312C329.62 131.936 330.652 132.248 332.092 132.248C333.228 132.248 334.26 132.032 335.188 131.6V133.592C334.66 133.8 334.092 133.96 333.484 134.072C332.892 134.184 332.228 134.24 331.492 134.24ZM342.955 134.24C340.907 134.24 339.403 133.728 338.443 132.704C337.499 131.68 337.027 130.216 337.027 128.312C337.027 126.408 337.507 124.944 338.467 123.92C339.427 122.896 340.923 122.384 342.955 122.384C345.003 122.384 346.507 122.896 347.467 123.92C348.427 124.944 348.907 126.408 348.907 128.312C348.907 130.216 348.427 131.68 347.467 132.704C346.523 133.728 345.019 134.24 342.955 134.24ZM342.955 132.032C344.155 132.032 345.003 131.744 345.499 131.168C346.011 130.576 346.267 129.624 346.267 128.312C346.267 127 346.011 126.056 345.499 125.48C345.003 124.904 344.155 124.616 342.955 124.616C341.771 124.616 340.923 124.904 340.411 125.48C339.915 126.056 339.667 127 339.667 128.312C339.667 129.624 339.915 130.576 340.411 131.168C340.923 131.744 341.771 132.032 342.955 132.032ZM124.512 167V155.624H126.912L127.032 156.824C127.544 156.424 128.152 156.088 128.856 155.816C129.576 155.528 130.368 155.384 131.232 155.384C132.704 155.384 133.776 155.728 134.448 156.416C135.12 157.104 135.456 158.176 135.456 159.632V167H132.864V159.752C132.864 158.872 132.68 158.256 132.312 157.904C131.96 157.552 131.288 157.376 130.296 157.376C129.704 157.376 129.12 157.496 128.544 157.736C127.984 157.976 127.512 158.288 127.128 158.672V167H124.512ZM143.841 167.24C141.793 167.24 140.289 166.728 139.329 165.704C138.385 164.68 137.913 163.216 137.913 161.312C137.913 159.408 138.393 157.944 139.353 156.92C140.313 155.896 141.809 155.384 143.841 155.384C145.889 155.384 147.393 155.896 148.353 156.92C149.313 157.944 149.793 159.408 149.793 161.312C149.793 163.216 149.313 164.68 148.353 165.704C147.409 166.728 145.905 167.24 143.841 167.24ZM143.841 165.032C145.041 165.032 145.889 164.744 146.385 164.168C146.897 163.576 147.153 162.624 147.153 161.312C147.153 160 146.897 159.056 146.385 158.48C145.889 157.904 145.041 157.616 143.841 157.616C142.657 157.616 141.809 157.904 141.297 158.48C140.801 159.056 140.553 160 140.553 161.312C140.553 162.624 140.801 163.576 141.297 164.168C141.809 164.744 142.657 165.032 143.841 165.032ZM158.349 172.184V155.624H160.605L160.749 156.752C161.261 156.288 161.821 155.944 162.429 155.72C163.037 155.496 163.757 155.384 164.589 155.384C166.221 155.384 167.493 155.832 168.405 156.728C169.317 157.608 169.773 159.072 169.773 161.12C169.773 163.168 169.301 164.704 168.357 165.728C167.413 166.736 166.125 167.24 164.493 167.24C163.117 167.24 161.941 166.92 160.965 166.28V172.184H158.349ZM163.821 165.272C166.029 165.272 167.133 163.88 167.133 161.096C167.133 159.752 166.885 158.8 166.389 158.24C165.893 157.664 165.061 157.376 163.893 157.376C162.725 157.376 161.749 157.776 160.965 158.576V164.264C161.333 164.568 161.741 164.816 162.189 165.008C162.653 165.184 163.197 165.272 163.821 165.272ZM172.558 167V155.624H174.958L175.102 156.944C175.646 156.592 176.294 156.272 177.046 155.984C177.798 155.696 178.542 155.496 179.278 155.384V157.376C178.83 157.456 178.342 157.576 177.814 157.736C177.302 157.88 176.814 158.048 176.35 158.24C175.886 158.416 175.494 158.6 175.174 158.792V167H172.558ZM185.25 154.472L187.05 150.224H189.354L187.338 154.472H185.25ZM186.402 167.24C184.354 167.24 182.85 166.728 181.89 165.704C180.946 164.68 180.474 163.216 180.474 161.312C180.474 159.408 180.954 157.944 181.914 156.92C182.874 155.896 184.37 155.384 186.402 155.384C188.45 155.384 189.954 155.896 190.914 156.92C191.874 157.944 192.354 159.408 192.354 161.312C192.354 163.216 191.874 164.68 190.914 165.704C189.97 166.728 188.466 167.24 186.402 167.24ZM186.402 165.032C187.602 165.032 188.45 164.744 188.946 164.168C189.458 163.576 189.714 162.624 189.714 161.312C189.714 160 189.458 159.056 188.946 158.48C188.45 157.904 187.602 157.616 186.402 157.616C185.218 157.616 184.37 157.904 183.858 158.48C183.362 159.056 183.114 160 183.114 161.312C183.114 162.624 183.362 163.576 183.858 164.168C184.37 164.744 185.218 165.032 186.402 165.032ZM193.269 167L197.613 161.216L193.437 155.624H196.245L199.029 159.416L201.813 155.624H204.621L200.469 161.216L204.789 167H201.957L199.029 163.04L196.101 167H193.269ZM207.379 153.248V151.088H210.235V153.248H207.379ZM207.595 167V157.616H205.867L206.107 155.624H210.211V167H207.595ZM213.502 167V155.624H215.902L216.022 156.824C216.582 156.376 217.198 156.024 217.87 155.768C218.542 155.512 219.262 155.384 220.03 155.384C220.846 155.384 221.478 155.52 221.926 155.792C222.39 156.048 222.742 156.408 222.982 156.872C223.51 156.44 224.118 156.088 224.806 155.816C225.494 155.528 226.318 155.384 227.278 155.384C228.59 155.384 229.558 155.72 230.182 156.392C230.806 157.064 231.118 158.096 231.118 159.488V167H228.55V159.752C228.55 158.872 228.366 158.256 227.998 157.904C227.63 157.552 227.03 157.376 226.198 157.376C225.654 157.376 225.134 157.472 224.638 157.664C224.158 157.856 223.742 158.144 223.39 158.528C223.438 158.704 223.47 158.888 223.486 159.08C223.502 159.272 223.51 159.48 223.51 159.704V167H221.086V159.776C221.086 158.944 220.942 158.336 220.654 157.952C220.366 157.568 219.822 157.376 219.022 157.376C218.462 157.376 217.926 157.512 217.414 157.784C216.918 158.04 216.47 158.352 216.07 158.72V167H213.502ZM239.511 167.24C237.463 167.24 235.959 166.728 234.999 165.704C234.055 164.68 233.583 163.216 233.583 161.312C233.583 159.408 234.063 157.944 235.023 156.92C235.983 155.896 237.479 155.384 239.511 155.384C241.559 155.384 243.063 155.896 244.023 156.92C244.983 157.944 245.463 159.408 245.463 161.312C245.463 163.216 244.983 164.68 244.023 165.704C243.079 166.728 241.575 167.24 239.511 167.24ZM239.511 165.032C240.711 165.032 241.559 164.744 242.055 164.168C242.567 163.576 242.823 162.624 242.823 161.312C242.823 160 242.567 159.056 242.055 158.48C241.559 157.904 240.711 157.616 239.511 157.616C238.327 157.616 237.479 157.904 236.967 158.48C236.471 159.056 236.223 160 236.223 161.312C236.223 162.624 236.471 163.576 236.967 164.168C237.479 164.744 238.327 165.032 239.511 165.032ZM257.811 167.24C257.027 167.24 256.275 167.184 255.555 167.072C254.851 166.96 254.267 166.824 253.803 166.664V164.456C254.347 164.664 254.947 164.824 255.603 164.936C256.259 165.048 256.883 165.104 257.475 165.104C258.371 165.104 259.011 165.024 259.395 164.864C259.779 164.704 259.971 164.392 259.971 163.928C259.971 163.592 259.851 163.328 259.611 163.136C259.387 162.944 259.043 162.768 258.579 162.608C258.131 162.448 257.555 162.256 256.851 162.032C256.179 161.808 255.595 161.568 255.099 161.312C254.603 161.04 254.219 160.696 253.947 160.28C253.675 159.864 253.539 159.32 253.539 158.648C253.539 157.608 253.915 156.808 254.667 156.248C255.419 155.672 256.627 155.384 258.291 155.384C258.947 155.384 259.571 155.432 260.163 155.528C260.755 155.624 261.259 155.744 261.675 155.888V158.072C261.227 157.896 260.731 157.76 260.187 157.664C259.659 157.568 259.163 157.52 258.699 157.52C257.867 157.52 257.235 157.592 256.803 157.736C256.387 157.88 256.179 158.168 256.179 158.6C256.179 159.048 256.395 159.368 256.827 159.56C257.275 159.736 257.987 159.984 258.963 160.304C259.859 160.576 260.571 160.864 261.099 161.168C261.627 161.472 262.003 161.84 262.227 162.272C262.467 162.688 262.587 163.232 262.587 163.904C262.587 165.024 262.179 165.864 261.363 166.424C260.547 166.968 259.363 167.24 257.811 167.24ZM269.192 154.472L270.992 150.224H273.296L271.28 154.472H269.192ZM268.592 167.24C267.872 167.24 267.2 167.112 266.576 166.856C265.968 166.6 265.48 166.216 265.112 165.704C264.744 165.176 264.56 164.528 264.56 163.76C264.56 162.672 264.928 161.8 265.664 161.144C266.416 160.472 267.568 160.136 269.12 160.136H272.768V159.632C272.768 159.088 272.68 158.656 272.504 158.336C272.344 158.016 272.04 157.784 271.592 157.64C271.16 157.496 270.52 157.424 269.672 157.424C268.328 157.424 267.072 157.624 265.904 158.024V156.08C266.416 155.872 267.04 155.704 267.776 155.576C268.512 155.448 269.304 155.384 270.152 155.384C271.816 155.384 273.08 155.72 273.944 156.392C274.824 157.064 275.264 158.16 275.264 159.68V167H273.032L272.864 165.848C272.4 166.296 271.824 166.64 271.136 166.88C270.464 167.12 269.616 167.24 268.592 167.24ZM269.288 165.368C270.072 165.368 270.752 165.24 271.328 164.984C271.92 164.712 272.4 164.352 272.768 163.904V161.912H269.168C268.4 161.912 267.84 162.064 267.488 162.368C267.152 162.656 266.984 163.104 266.984 163.712C266.984 164.304 267.184 164.728 267.584 164.984C267.984 165.24 268.552 165.368 269.288 165.368ZM284.692 167.24C283.86 167.24 283.14 167.128 282.532 166.904C281.924 166.68 281.364 166.336 280.852 165.872L280.708 167H278.452V150.824H281.068V156.368C282.06 155.712 283.252 155.384 284.644 155.384C286.26 155.384 287.532 155.848 288.46 156.776C289.404 157.688 289.876 159.168 289.876 161.216C289.876 163.28 289.412 164.8 288.484 165.776C287.556 166.752 286.292 167.24 284.692 167.24ZM283.996 165.272C285.18 165.272 286.012 164.936 286.492 164.264C286.988 163.592 287.236 162.576 287.236 161.216C287.236 159.808 286.972 158.816 286.444 158.24C285.916 157.664 285.084 157.376 283.948 157.376C282.764 157.376 281.804 157.704 281.068 158.36V164.072C281.82 164.872 282.796 165.272 283.996 165.272ZM296.213 167.24C295.493 167.24 294.821 167.112 294.197 166.856C293.589 166.6 293.101 166.216 292.733 165.704C292.365 165.176 292.181 164.528 292.181 163.76C292.181 162.672 292.549 161.8 293.285 161.144C294.037 160.472 295.189 160.136 296.741 160.136H300.389V159.632C300.389 159.088 300.301 158.656 300.125 158.336C299.965 158.016 299.661 157.784 299.213 157.64C298.781 157.496 298.141 157.424 297.293 157.424C295.949 157.424 294.693 157.624 293.525 158.024V156.08C294.037 155.872 294.661 155.704 295.397 155.576C296.133 155.448 296.925 155.384 297.773 155.384C299.437 155.384 300.701 155.72 301.565 156.392C302.445 157.064 302.885 158.16 302.885 159.68V167H300.653L300.485 165.848C300.021 166.296 299.445 166.64 298.757 166.88C298.085 167.12 297.237 167.24 296.213 167.24ZM296.909 165.368C297.693 165.368 298.373 165.24 298.949 164.984C299.541 164.712 300.021 164.352 300.389 163.904V161.912H296.789C296.021 161.912 295.461 162.064 295.109 162.368C294.773 162.656 294.605 163.104 294.605 163.712C294.605 164.304 294.805 164.728 295.205 164.984C295.605 165.24 296.173 165.368 296.909 165.368ZM310.73 167.24C309.706 167.24 308.802 167.064 308.018 166.712C307.234 166.36 306.626 165.776 306.194 164.96C305.762 164.144 305.546 163.048 305.546 161.672C305.546 160.312 305.778 159.168 306.242 158.24C306.706 157.296 307.346 156.584 308.162 156.104C308.994 155.624 309.93 155.384 310.97 155.384C311.658 155.384 312.266 155.464 312.794 155.624C313.338 155.784 313.858 156.032 314.354 156.368V150.824H316.97V167H314.738L314.57 165.872C314.058 166.336 313.498 166.68 312.89 166.904C312.282 167.128 311.562 167.24 310.73 167.24ZM311.426 165.272C312.594 165.272 313.57 164.872 314.354 164.072V158.384C313.602 157.712 312.658 157.376 311.522 157.376C310.418 157.376 309.586 157.744 309.026 158.48C308.466 159.216 308.186 160.288 308.186 161.696C308.186 163.056 308.442 163.992 308.954 164.504C309.482 165.016 310.306 165.272 311.426 165.272ZM325.448 167.24C323.4 167.24 321.896 166.728 320.936 165.704C319.992 164.68 319.52 163.216 319.52 161.312C319.52 159.408 320 157.944 320.96 156.92C321.92 155.896 323.416 155.384 325.448 155.384C327.496 155.384 329 155.896 329.96 156.92C330.92 157.944 331.4 159.408 331.4 161.312C331.4 163.216 330.92 164.68 329.96 165.704C329.016 166.728 327.512 167.24 325.448 167.24ZM325.448 165.032C326.648 165.032 327.496 164.744 327.992 164.168C328.504 163.576 328.76 162.624 328.76 161.312C328.76 160 328.504 159.056 327.992 158.48C327.496 157.904 326.648 157.616 325.448 157.616C324.264 157.616 323.416 157.904 322.904 158.48C322.408 159.056 322.16 160 322.16 161.312C322.16 162.624 322.408 163.576 322.904 164.168C323.416 164.744 324.264 165.032 325.448 165.032ZM333.706 167V164.96H335.914V167H333.706Z" fill="white"/>
<path d="M124.512 214V198.544H127.128V211.984H135.048V214H124.512ZM137.478 200.248V198.088H140.334V200.248H137.478ZM137.694 214V204.616H135.966L136.206 202.624H140.31V214H137.694ZM143.601 214V202.624H146.001L146.121 203.824C146.681 203.376 147.297 203.024 147.969 202.768C148.641 202.512 149.361 202.384 150.129 202.384C150.945 202.384 151.577 202.52 152.025 202.792C152.489 203.048 152.841 203.408 153.081 203.872C153.609 203.44 154.217 203.088 154.905 202.816C155.593 202.528 156.417 202.384 157.377 202.384C158.689 202.384 159.657 202.72 160.281 203.392C160.905 204.064 161.217 205.096 161.217 206.488V214H158.649V206.752C158.649 205.872 158.465 205.256 158.097 204.904C157.729 204.552 157.129 204.376 156.297 204.376C155.753 204.376 155.233 204.472 154.737 204.664C154.257 204.856 153.841 205.144 153.489 205.528C153.537 205.704 153.569 205.888 153.585 206.08C153.601 206.272 153.609 206.48 153.609 206.704V214H151.185V206.776C151.185 205.944 151.041 205.336 150.753 204.952C150.465 204.568 149.921 204.376 149.121 204.376C148.561 204.376 148.025 204.512 147.513 204.784C147.017 205.04 146.569 205.352 146.169 205.72V214H143.601ZM164.396 219.184V202.624H166.652L166.796 203.752C167.308 203.288 167.868 202.944 168.476 202.72C169.084 202.496 169.804 202.384 170.636 202.384C172.268 202.384 173.54 202.832 174.452 203.728C175.364 204.608 175.82 206.072 175.82 208.12C175.82 210.168 175.348 211.704 174.404 212.728C173.46 213.736 172.172 214.24 170.54 214.24C169.164 214.24 167.988 213.92 167.012 213.28V219.184H164.396ZM169.868 212.272C172.076 212.272 173.18 210.88 173.18 208.096C173.18 206.752 172.932 205.8 172.436 205.24C171.94 204.664 171.108 204.376 169.94 204.376C168.772 204.376 167.796 204.776 167.012 205.576V211.264C167.38 211.568 167.788 211.816 168.236 212.008C168.7 212.184 169.244 212.272 169.868 212.272ZM182.157 214.24C181.437 214.24 180.765 214.112 180.141 213.856C179.533 213.6 179.045 213.216 178.677 212.704C178.309 212.176 178.125 211.528 178.125 210.76C178.125 209.672 178.493 208.8 179.229 208.144C179.981 207.472 181.133 207.136 182.685 207.136H186.333V206.632C186.333 206.088 186.245 205.656 186.069 205.336C185.909 205.016 185.605 204.784 185.157 204.64C184.725 204.496 184.085 204.424 183.237 204.424C181.893 204.424 180.637 204.624 179.469 205.024V203.08C179.981 202.872 180.605 202.704 181.341 202.576C182.077 202.448 182.869 202.384 183.717 202.384C185.381 202.384 186.645 202.72 187.509 203.392C188.389 204.064 188.829 205.16 188.829 206.68V214H186.597L186.429 212.848C185.965 213.296 185.389 213.64 184.701 213.88C184.029 214.12 183.181 214.24 182.157 214.24ZM182.853 212.368C183.637 212.368 184.317 212.24 184.893 211.984C185.485 211.712 185.965 211.352 186.333 210.904V208.912H182.733C181.965 208.912 181.405 209.064 181.053 209.368C180.717 209.656 180.549 210.104 180.549 210.712C180.549 211.304 180.749 211.728 181.149 211.984C181.549 212.24 182.117 212.368 182.853 212.368ZM191.97 214V202.624H194.37L194.514 203.944C195.058 203.592 195.706 203.272 196.458 202.984C197.21 202.696 197.954 202.496 198.69 202.384V204.376C198.242 204.456 197.754 204.576 197.226 204.736C196.714 204.88 196.226 205.048 195.762 205.24C195.298 205.416 194.906 205.6 194.586 205.792V214H191.97ZM212.054 214.24C210.006 214.24 208.502 213.728 207.542 212.704C206.598 211.68 206.126 210.216 206.126 208.312C206.126 206.408 206.606 204.944 207.566 203.92C208.526 202.896 210.022 202.384 212.054 202.384C214.102 202.384 215.606 202.896 216.566 203.92C217.526 204.944 218.006 206.408 218.006 208.312C218.006 210.216 217.526 211.68 216.566 212.704C215.622 213.728 214.118 214.24 212.054 214.24ZM212.054 212.032C213.254 212.032 214.102 211.744 214.598 211.168C215.11 210.576 215.366 209.624 215.366 208.312C215.366 207 215.11 206.056 214.598 205.48C214.102 204.904 213.254 204.616 212.054 204.616C210.87 204.616 210.022 204.904 209.51 205.48C209.014 206.056 208.766 207 208.766 208.312C208.766 209.624 209.014 210.576 209.51 211.168C210.022 211.744 210.87 212.032 212.054 212.032ZM224.466 214.24C223.682 214.24 222.93 214.184 222.21 214.072C221.506 213.96 220.922 213.824 220.458 213.664V211.456C221.002 211.664 221.602 211.824 222.258 211.936C222.914 212.048 223.538 212.104 224.13 212.104C225.026 212.104 225.666 212.024 226.05 211.864C226.434 211.704 226.626 211.392 226.626 210.928C226.626 210.592 226.506 210.328 226.266 210.136C226.042 209.944 225.698 209.768 225.234 209.608C224.786 209.448 224.21 209.256 223.506 209.032C222.834 208.808 222.25 208.568 221.754 208.312C221.258 208.04 220.874 207.696 220.602 207.28C220.33 206.864 220.194 206.32 220.194 205.648C220.194 204.608 220.57 203.808 221.322 203.248C222.074 202.672 223.282 202.384 224.946 202.384C225.602 202.384 226.226 202.432 226.818 202.528C227.41 202.624 227.914 202.744 228.33 202.888V205.072C227.882 204.896 227.386 204.76 226.842 204.664C226.314 204.568 225.818 204.52 225.354 204.52C224.522 204.52 223.89 204.592 223.458 204.736C223.042 204.88 222.834 205.168 222.834 205.6C222.834 206.048 223.05 206.368 223.482 206.56C223.93 206.736 224.642 206.984 225.618 207.304C226.514 207.576 227.226 207.864 227.754 208.168C228.282 208.472 228.658 208.84 228.882 209.272C229.122 209.688 229.242 210.232 229.242 210.904C229.242 212.024 228.834 212.864 228.018 213.424C227.202 213.968 226.018 214.24 224.466 214.24ZM130.272 247.24C128.288 247.24 126.752 246.752 125.664 245.776C124.576 244.8 124.032 243.304 124.032 241.288C124.032 239.464 124.496 238.024 125.424 236.968C126.352 235.912 127.76 235.384 129.648 235.384C131.376 235.384 132.672 235.84 133.536 236.752C134.416 237.648 134.856 238.808 134.856 240.232V242.344H126.528C126.656 243.448 127.056 244.208 127.728 244.624C128.4 245.04 129.424 245.248 130.8 245.248C131.376 245.248 131.968 245.192 132.576 245.08C133.184 244.968 133.712 244.824 134.16 244.648V246.568C133.648 246.792 133.056 246.96 132.384 247.072C131.728 247.184 131.024 247.24 130.272 247.24ZM126.528 240.64H132.552V239.848C132.552 239.064 132.336 238.456 131.904 238.024C131.472 237.576 130.744 237.352 129.72 237.352C128.504 237.352 127.664 237.616 127.2 238.144C126.752 238.672 126.528 239.504 126.528 240.64ZM149.019 252.808C148.011 252.808 147.251 252.552 146.739 252.04C146.227 251.528 145.971 250.728 145.971 249.64V246.28C144.995 246.92 143.819 247.24 142.443 247.24C140.811 247.24 139.523 246.8 138.579 245.92C137.635 245.024 137.163 243.552 137.163 241.504C137.163 239.456 137.627 237.928 138.555 236.92C139.499 235.896 140.771 235.384 142.371 235.384C143.203 235.384 143.915 235.496 144.507 235.72C145.115 235.944 145.675 236.288 146.187 236.752L146.355 235.624H148.587V249.448C148.587 249.944 148.667 250.288 148.827 250.48C149.003 250.672 149.331 250.768 149.811 250.768C149.971 250.768 150.139 250.752 150.315 250.72C150.507 250.688 150.675 250.656 150.819 250.624V252.52C150.547 252.616 150.275 252.688 150.003 252.736C149.731 252.784 149.403 252.808 149.019 252.808ZM143.115 245.272C143.739 245.272 144.283 245.184 144.747 245.008C145.211 244.816 145.619 244.568 145.971 244.264V238.576C145.187 237.776 144.219 237.376 143.067 237.376C141.899 237.376 141.059 237.728 140.547 238.432C140.051 239.12 139.803 240.136 139.803 241.48C139.803 242.888 140.075 243.872 140.619 244.432C141.163 244.992 141.995 245.272 143.115 245.272ZM155.955 247.24C154.595 247.24 153.547 246.864 152.811 246.112C152.091 245.36 151.731 244.256 151.731 242.8V235.624H154.347V242.8C154.347 243.648 154.555 244.272 154.971 244.672C155.387 245.072 156.027 245.272 156.891 245.272C157.531 245.272 158.123 245.152 158.667 244.912C159.211 244.672 159.683 244.352 160.083 243.952V235.624H162.675V247H160.299L160.179 245.824C159.667 246.224 159.059 246.56 158.355 246.832C157.651 247.104 156.851 247.24 155.955 247.24ZM166.926 233.248V231.088H169.782V233.248H166.926ZM167.142 247V237.616H165.414L165.654 235.624H169.758V247H167.142ZM173.05 252.184V235.624H175.306L175.45 236.752C175.962 236.288 176.522 235.944 177.13 235.72C177.738 235.496 178.458 235.384 179.29 235.384C180.922 235.384 182.194 235.832 183.106 236.728C184.018 237.608 184.474 239.072 184.474 241.12C184.474 243.168 184.002 244.704 183.058 245.728C182.114 246.736 180.826 247.24 179.194 247.24C177.818 247.24 176.642 246.92 175.666 246.28V252.184H173.05ZM178.522 245.272C180.73 245.272 181.834 243.88 181.834 241.096C181.834 239.752 181.586 238.8 181.09 238.24C180.594 237.664 179.762 237.376 178.594 237.376C177.426 237.376 176.45 237.776 175.666 238.576V244.264C176.034 244.568 176.442 244.816 176.89 245.008C177.354 245.184 177.898 245.272 178.522 245.272ZM190.811 247.24C190.091 247.24 189.419 247.112 188.795 246.856C188.187 246.6 187.699 246.216 187.331 245.704C186.963 245.176 186.779 244.528 186.779 243.76C186.779 242.672 187.147 241.8 187.883 241.144C188.635 240.472 189.787 240.136 191.339 240.136H194.987V239.632C194.987 239.088 194.899 238.656 194.723 238.336C194.563 238.016 194.259 237.784 193.811 237.64C193.379 237.496 192.739 237.424 191.891 237.424C190.547 237.424 189.291 237.624 188.123 238.024V236.08C188.635 235.872 189.259 235.704 189.995 235.576C190.731 235.448 191.523 235.384 192.371 235.384C194.035 235.384 195.299 235.72 196.163 236.392C197.043 237.064 197.483 238.16 197.483 239.68V247H195.251L195.083 245.848C194.619 246.296 194.043 246.64 193.355 246.88C192.683 247.12 191.835 247.24 190.811 247.24ZM191.507 245.368C192.291 245.368 192.971 245.24 193.547 244.984C194.139 244.712 194.619 244.352 194.987 243.904V241.912H191.387C190.619 241.912 190.059 242.064 189.707 242.368C189.371 242.656 189.203 243.104 189.203 243.712C189.203 244.304 189.403 244.728 189.803 244.984C190.203 245.24 190.771 245.368 191.507 245.368ZM200.624 247V235.624H203.024L203.144 236.824C203.704 236.376 204.32 236.024 204.992 235.768C205.664 235.512 206.384 235.384 207.152 235.384C207.968 235.384 208.6 235.52 209.048 235.792C209.512 236.048 209.864 236.408 210.104 236.872C210.632 236.44 211.24 236.088 211.928 235.816C212.616 235.528 213.44 235.384 214.4 235.384C215.712 235.384 216.68 235.72 217.304 236.392C217.928 237.064 218.24 238.096 218.24 239.488V247H215.672V239.752C215.672 238.872 215.488 238.256 215.12 237.904C214.752 237.552 214.152 237.376 213.32 237.376C212.776 237.376 212.256 237.472 211.76 237.664C211.28 237.856 210.864 238.144 210.512 238.528C210.56 238.704 210.592 238.888 210.608 239.08C210.624 239.272 210.632 239.48 210.632 239.704V247H208.208V239.776C208.208 238.944 208.064 238.336 207.776 237.952C207.488 237.568 206.944 237.376 206.144 237.376C205.584 237.376 205.048 237.512 204.536 237.784C204.04 238.04 203.592 238.352 203.192 238.72V247H200.624ZM226.944 247.24C224.96 247.24 223.424 246.752 222.336 245.776C221.248 244.8 220.704 243.304 220.704 241.288C220.704 239.464 221.168 238.024 222.096 236.968C223.024 235.912 224.432 235.384 226.32 235.384C228.048 235.384 229.344 235.84 230.208 236.752C231.088 237.648 231.528 238.808 231.528 240.232V242.344H223.2C223.328 243.448 223.728 244.208 224.4 244.624C225.072 245.04 226.096 245.248 227.472 245.248C228.048 245.248 228.64 245.192 229.248 245.08C229.856 244.968 230.384 244.824 230.832 244.648V246.568C230.32 246.792 229.728 246.96 229.056 247.072C228.4 247.184 227.696 247.24 226.944 247.24ZM223.2 240.64H229.224V239.848C229.224 239.064 229.008 238.456 228.576 238.024C228.144 237.576 227.416 237.352 226.392 237.352C225.176 237.352 224.336 237.616 223.872 238.144C223.424 238.672 223.2 239.504 223.2 240.64ZM234.315 247V235.624H236.715L236.835 236.824C237.347 236.424 237.955 236.088 238.659 235.816C239.379 235.528 240.171 235.384 241.035 235.384C242.507 235.384 243.579 235.728 244.251 236.416C244.923 237.104 245.259 238.176 245.259 239.632V247H242.667V239.752C242.667 238.872 242.483 238.256 242.115 237.904C241.763 237.552 241.091 237.376 240.099 237.376C239.507 237.376 238.923 237.496 238.347 237.736C237.787 237.976 237.315 238.288 236.931 238.672V247H234.315ZM252.774 247.24C251.558 247.24 250.646 246.92 250.038 246.28C249.446 245.624 249.15 244.736 249.15 243.616V237.664H247.47V235.624H249.15V233.008L251.742 232.216V235.624H254.766L254.598 237.664H251.742V243.472C251.742 244.128 251.894 244.592 252.198 244.864C252.502 245.12 252.998 245.248 253.686 245.248C254.118 245.248 254.574 245.168 255.054 245.008V246.856C254.43 247.112 253.67 247.24 252.774 247.24ZM262.743 247.24C260.695 247.24 259.191 246.728 258.231 245.704C257.287 244.68 256.815 243.216 256.815 241.312C256.815 239.408 257.295 237.944 258.255 236.92C259.215 235.896 260.711 235.384 262.743 235.384C264.791 235.384 266.295 235.896 267.255 236.92C268.215 237.944 268.695 239.408 268.695 241.312C268.695 243.216 268.215 244.68 267.255 245.704C266.311 246.728 264.807 247.24 262.743 247.24ZM262.743 245.032C263.943 245.032 264.791 244.744 265.287 244.168C265.799 243.576 266.055 242.624 266.055 241.312C266.055 240 265.799 239.056 265.287 238.48C264.791 237.904 263.943 237.616 262.743 237.616C261.559 237.616 260.711 237.904 260.199 238.48C259.703 239.056 259.455 240 259.455 241.312C259.455 242.624 259.703 243.576 260.199 244.168C260.711 244.744 261.559 245.032 262.743 245.032ZM275.155 247.24C274.371 247.24 273.619 247.184 272.899 247.072C272.195 246.96 271.611 246.824 271.147 246.664V244.456C271.691 244.664 272.291 244.824 272.947 244.936C273.603 245.048 274.227 245.104 274.819 245.104C275.715 245.104 276.355 245.024 276.739 244.864C277.123 244.704 277.315 244.392 277.315 243.928C277.315 243.592 277.195 243.328 276.955 243.136C276.731 242.944 276.387 242.768 275.923 242.608C275.475 242.448 274.899 242.256 274.195 242.032C273.523 241.808 272.939 241.568 272.443 241.312C271.947 241.04 271.563 240.696 271.291 240.28C271.019 239.864 270.883 239.32 270.883 238.648C270.883 237.608 271.259 236.808 272.011 236.248C272.763 235.672 273.971 235.384 275.635 235.384C276.291 235.384 276.915 235.432 277.507 235.528C278.099 235.624 278.603 235.744 279.019 235.888V238.072C278.571 237.896 278.075 237.76 277.531 237.664C277.003 237.568 276.507 237.52 276.043 237.52C275.211 237.52 274.579 237.592 274.147 237.736C273.731 237.88 273.523 238.168 273.523 238.6C273.523 239.048 273.739 239.368 274.171 239.56C274.619 239.736 275.331 239.984 276.307 240.304C277.203 240.576 277.915 240.864 278.443 241.168C278.971 241.472 279.347 241.84 279.571 242.272C279.811 242.688 279.931 243.232 279.931 243.904C279.931 245.024 279.523 245.864 278.707 246.424C277.891 246.968 276.707 247.24 275.155 247.24ZM292.059 247.24C291.339 247.24 290.667 247.112 290.043 246.856C289.435 246.6 288.947 246.216 288.579 245.704C288.211 245.176 288.027 244.528 288.027 243.76C288.027 242.672 288.395 241.8 289.131 241.144C289.883 240.472 291.035 240.136 292.587 240.136H296.235V239.632C296.235 239.088 296.147 238.656 295.971 238.336C295.811 238.016 295.507 237.784 295.059 237.64C294.627 237.496 293.987 237.424 293.139 237.424C291.795 237.424 290.539 237.624 289.371 238.024V236.08C289.883 235.872 290.507 235.704 291.243 235.576C291.979 235.448 292.771 235.384 293.619 235.384C295.283 235.384 296.547 235.72 297.411 236.392C298.291 237.064 298.731 238.16 298.731 239.68V247H296.499L296.331 245.848C295.867 246.296 295.291 246.64 294.603 246.88C293.931 247.12 293.083 247.24 292.059 247.24ZM292.755 245.368C293.539 245.368 294.219 245.24 294.795 244.984C295.387 244.712 295.867 244.352 296.235 243.904V241.912H292.635C291.867 241.912 291.307 242.064 290.955 242.368C290.619 242.656 290.451 243.104 290.451 243.712C290.451 244.304 290.651 244.728 291.051 244.984C291.451 245.24 292.019 245.368 292.755 245.368ZM301.872 252.184V235.624H304.128L304.272 236.752C304.784 236.288 305.344 235.944 305.952 235.72C306.56 235.496 307.28 235.384 308.112 235.384C309.744 235.384 311.016 235.832 311.928 236.728C312.84 237.608 313.296 239.072 313.296 241.12C313.296 243.168 312.824 244.704 311.88 245.728C310.936 246.736 309.648 247.24 308.016 247.24C306.64 247.24 305.464 246.92 304.488 246.28V252.184H301.872ZM307.344 245.272C309.552 245.272 310.656 243.88 310.656 241.096C310.656 239.752 310.408 238.8 309.912 238.24C309.416 237.664 308.584 237.376 307.416 237.376C306.248 237.376 305.272 237.776 304.488 238.576V244.264C304.856 244.568 305.264 244.816 305.712 245.008C306.176 245.184 306.72 245.272 307.344 245.272ZM320.377 234.472L322.177 230.224H324.481L322.465 234.472H320.377ZM321.529 247.24C319.481 247.24 317.977 246.728 317.017 245.704C316.073 244.68 315.601 243.216 315.601 241.312C315.601 239.408 316.081 237.944 317.041 236.92C318.001 235.896 319.497 235.384 321.529 235.384C323.577 235.384 325.081 235.896 326.041 236.92C327.001 237.944 327.481 239.408 327.481 241.312C327.481 243.216 327.001 244.68 326.041 245.704C325.097 246.728 323.593 247.24 321.529 247.24ZM321.529 245.032C322.729 245.032 323.577 244.744 324.073 244.168C324.585 243.576 324.841 242.624 324.841 241.312C324.841 240 324.585 239.056 324.073 238.48C323.577 237.904 322.729 237.616 321.529 237.616C320.345 237.616 319.497 237.904 318.985 238.48C318.489 239.056 318.241 240 318.241 241.312C318.241 242.624 318.489 243.576 318.985 244.168C319.497 244.744 320.345 245.032 321.529 245.032ZM333.941 247.24C333.157 247.24 332.405 247.184 331.685 247.072C330.981 246.96 330.397 246.824 329.933 246.664V244.456C330.477 244.664 331.077 244.824 331.733 244.936C332.389 245.048 333.013 245.104 333.605 245.104C334.501 245.104 335.141 245.024 335.525 244.864C335.909 244.704 336.101 244.392 336.101 243.928C336.101 243.592 335.981 243.328 335.741 243.136C335.517 242.944 335.173 242.768 334.709 242.608C334.261 242.448 333.685 242.256 332.981 242.032C332.309 241.808 331.725 241.568 331.229 241.312C330.733 241.04 330.349 240.696 330.077 240.28C329.805 239.864 329.669 239.32 329.669 238.648C329.669 237.608 330.045 236.808 330.797 236.248C331.549 235.672 332.757 235.384 334.421 235.384C335.077 235.384 335.701 235.432 336.293 235.528C336.885 235.624 337.389 235.744 337.805 235.888V238.072C337.357 237.896 336.861 237.76 336.317 237.664C335.789 237.568 335.293 237.52 334.829 237.52C333.997 237.52 333.365 237.592 332.933 237.736C332.517 237.88 332.309 238.168 332.309 238.6C332.309 239.048 332.525 239.368 332.957 239.56C333.405 239.736 334.117 239.984 335.093 240.304C335.989 240.576 336.701 240.864 337.229 241.168C337.757 241.472 338.133 241.84 338.357 242.272C338.597 242.688 338.717 243.232 338.717 243.904C338.717 245.024 338.309 245.864 337.493 246.424C336.677 246.968 335.493 247.24 333.941 247.24ZM129.96 280.24C127.912 280.24 126.408 279.728 125.448 278.704C124.504 277.68 124.032 276.216 124.032 274.312C124.032 272.408 124.512 270.944 125.472 269.92C126.432 268.896 127.928 268.384 129.96 268.384C132.008 268.384 133.512 268.896 134.472 269.92C135.432 270.944 135.912 272.408 135.912 274.312C135.912 276.216 135.432 277.68 134.472 278.704C133.528 279.728 132.024 280.24 129.96 280.24ZM129.96 278.032C131.16 278.032 132.008 277.744 132.504 277.168C133.016 276.576 133.272 275.624 133.272 274.312C133.272 273 133.016 272.056 132.504 271.48C132.008 270.904 131.16 270.616 129.96 270.616C128.776 270.616 127.928 270.904 127.416 271.48C126.92 272.056 126.672 273 126.672 274.312C126.672 275.624 126.92 276.576 127.416 277.168C127.928 277.744 128.776 278.032 129.96 278.032ZM148.573 280.24C147.213 280.24 146.165 279.864 145.429 279.112C144.709 278.36 144.349 277.256 144.349 275.8V268.624H146.965V275.8C146.965 276.648 147.173 277.272 147.589 277.672C148.005 278.072 148.645 278.272 149.509 278.272C150.149 278.272 150.741 278.152 151.285 277.912C151.829 277.672 152.301 277.352 152.701 276.952V268.624H155.293V280H152.917L152.797 278.824C152.285 279.224 151.677 279.56 150.973 279.832C150.269 280.104 149.469 280.24 148.573 280.24ZM162.376 280.24C161.592 280.24 160.84 280.184 160.12 280.072C159.416 279.96 158.832 279.824 158.368 279.664V277.456C158.912 277.664 159.512 277.824 160.168 277.936C160.824 278.048 161.448 278.104 162.04 278.104C162.936 278.104 163.576 278.024 163.96 277.864C164.344 277.704 164.536 277.392 164.536 276.928C164.536 276.592 164.416 276.328 164.176 276.136C163.952 275.944 163.608 275.768 163.144 275.608C162.696 275.448 162.12 275.256 161.416 275.032C160.744 274.808 160.16 274.568 159.664 274.312C159.168 274.04 158.784 273.696 158.512 273.28C158.24 272.864 158.104 272.32 158.104 271.648C158.104 270.608 158.48 269.808 159.232 269.248C159.984 268.672 161.192 268.384 162.856 268.384C163.512 268.384 164.136 268.432 164.728 268.528C165.32 268.624 165.824 268.744 166.24 268.888V271.072C165.792 270.896 165.296 270.76 164.752 270.664C164.224 270.568 163.728 270.52 163.264 270.52C162.432 270.52 161.8 270.592 161.368 270.736C160.952 270.88 160.744 271.168 160.744 271.6C160.744 272.048 160.96 272.368 161.392 272.56C161.84 272.736 162.552 272.984 163.528 273.304C164.424 273.576 165.136 273.864 165.664 274.168C166.192 274.472 166.568 274.84 166.792 275.272C167.032 275.688 167.152 276.232 167.152 276.904C167.152 278.024 166.744 278.864 165.928 279.424C165.112 279.968 163.928 280.24 162.376 280.24ZM175.053 280.24C173.005 280.24 171.501 279.728 170.541 278.704C169.597 277.68 169.125 276.216 169.125 274.312C169.125 272.408 169.605 270.944 170.565 269.92C171.525 268.896 173.021 268.384 175.053 268.384C177.101 268.384 178.605 268.896 179.565 269.92C180.525 270.944 181.005 272.408 181.005 274.312C181.005 276.216 180.525 277.68 179.565 278.704C178.621 279.728 177.117 280.24 175.053 280.24ZM175.053 278.032C176.253 278.032 177.101 277.744 177.597 277.168C178.109 276.576 178.365 275.624 178.365 274.312C178.365 273 178.109 272.056 177.597 271.48C177.101 270.904 176.253 270.616 175.053 270.616C173.869 270.616 173.021 270.904 172.509 271.48C172.013 272.056 171.765 273 171.765 274.312C171.765 275.624 172.013 276.576 172.509 277.168C173.021 277.744 173.869 278.032 175.053 278.032ZM193.449 267.472L195.249 263.224H197.553L195.537 267.472H193.449ZM195.321 280.24C193.337 280.24 191.801 279.752 190.713 278.776C189.625 277.8 189.081 276.304 189.081 274.288C189.081 272.464 189.545 271.024 190.473 269.968C191.401 268.912 192.809 268.384 194.697 268.384C196.425 268.384 197.721 268.84 198.585 269.752C199.465 270.648 199.905 271.808 199.905 273.232V275.344H191.577C191.705 276.448 192.105 277.208 192.777 277.624C193.449 278.04 194.473 278.248 195.849 278.248C196.425 278.248 197.017 278.192 197.625 278.08C198.233 277.968 198.761 277.824 199.209 277.648V279.568C198.697 279.792 198.105 279.96 197.433 280.072C196.777 280.184 196.073 280.24 195.321 280.24ZM191.577 273.64H197.601V272.848C197.601 272.064 197.385 271.456 196.953 271.024C196.521 270.576 195.793 270.352 194.769 270.352C193.553 270.352 192.713 270.616 192.249 271.144C191.801 271.672 191.577 272.504 191.577 273.64ZM213.911 280.24C211.863 280.24 210.359 279.728 209.399 278.704C208.455 277.68 207.983 276.216 207.983 274.312C207.983 272.408 208.463 270.944 209.423 269.92C210.383 268.896 211.879 268.384 213.911 268.384C215.959 268.384 217.463 268.896 218.423 269.92C219.383 270.944 219.863 272.408 219.863 274.312C219.863 276.216 219.383 277.68 218.423 278.704C217.479 279.728 215.975 280.24 213.911 280.24ZM213.911 278.032C215.111 278.032 215.959 277.744 216.455 277.168C216.967 276.576 217.223 275.624 217.223 274.312C217.223 273 216.967 272.056 216.455 271.48C215.959 270.904 215.111 270.616 213.911 270.616C212.727 270.616 211.879 270.904 211.367 271.48C210.871 272.056 210.623 273 210.623 274.312C210.623 275.624 210.871 276.576 211.367 277.168C211.879 277.744 212.727 278.032 213.911 278.032ZM228.889 280.24C228.057 280.24 227.337 280.128 226.729 279.904C226.121 279.68 225.561 279.336 225.049 278.872L224.905 280H222.649V263.824H225.265V269.368C226.257 268.712 227.449 268.384 228.841 268.384C230.457 268.384 231.729 268.848 232.657 269.776C233.601 270.688 234.073 272.168 234.073 274.216C234.073 276.28 233.609 277.8 232.681 278.776C231.753 279.752 230.489 280.24 228.889 280.24ZM228.193 278.272C229.377 278.272 230.209 277.936 230.689 277.264C231.185 276.592 231.433 275.576 231.433 274.216C231.433 272.808 231.169 271.816 230.641 271.24C230.113 270.664 229.281 270.376 228.145 270.376C226.961 270.376 226.001 270.704 225.265 271.36V277.072C226.017 277.872 226.993 278.272 228.193 278.272ZM236.857 280V268.624H239.257L239.401 269.944C239.945 269.592 240.593 269.272 241.345 268.984C242.097 268.696 242.841 268.496 243.577 268.384V270.376C243.129 270.456 242.641 270.576 242.113 270.736C241.601 270.88 241.113 271.048 240.649 271.24C240.185 271.416 239.793 271.6 239.473 271.792V280H236.857ZM246.682 266.248V264.088H249.538V266.248H246.682ZM246.898 280V270.616H245.17L245.41 268.624H249.514V280H246.898ZM257.414 284.224C256.566 284.224 255.718 284.168 254.87 284.056C254.022 283.96 253.302 283.808 252.71 283.6V281.584C253.35 281.792 254.086 281.952 254.918 282.064C255.75 282.176 256.542 282.232 257.294 282.232C258.446 282.232 259.286 282.168 259.814 282.04C260.342 281.912 260.606 281.624 260.606 281.176C260.606 280.84 260.478 280.6 260.222 280.456C259.966 280.328 259.478 280.264 258.758 280.264H255.686C253.622 280.264 252.59 279.536 252.59 278.08C252.59 277.616 252.726 277.184 252.998 276.784C253.27 276.384 253.702 276.08 254.294 275.872C253.638 275.552 253.15 275.112 252.83 274.552C252.526 273.992 252.374 273.32 252.374 272.536C252.374 271.08 252.806 270.024 253.67 269.368C254.55 268.712 255.862 268.384 257.606 268.384C257.974 268.384 258.358 268.416 258.758 268.48C259.158 268.528 259.47 268.576 259.694 268.624H263.87L263.798 270.328H261.878C262.182 270.584 262.406 270.904 262.55 271.288C262.694 271.672 262.766 272.088 262.766 272.536C262.766 273.752 262.398 274.712 261.662 275.416C260.926 276.104 259.814 276.448 258.326 276.448C258.07 276.448 257.83 276.44 257.606 276.424C257.398 276.392 257.166 276.36 256.91 276.328C256.43 276.376 255.998 276.504 255.614 276.712C255.23 276.92 255.038 277.2 255.038 277.552C255.038 277.792 255.134 277.968 255.326 278.08C255.518 278.176 255.838 278.224 256.286 278.224H259.478C260.614 278.224 261.486 278.472 262.094 278.968C262.718 279.448 263.03 280.152 263.03 281.08C263.03 282.2 262.542 283 261.566 283.48C260.606 283.976 259.222 284.224 257.414 284.224ZM257.606 274.792C258.646 274.792 259.366 274.616 259.766 274.264C260.182 273.912 260.39 273.312 260.39 272.464C260.39 271.616 260.182 271 259.766 270.616C259.366 270.232 258.646 270.04 257.606 270.04C256.63 270.04 255.918 270.224 255.47 270.592C255.022 270.96 254.798 271.584 254.798 272.464C254.798 273.28 255.006 273.872 255.422 274.24C255.854 274.608 256.582 274.792 257.606 274.792ZM268.926 280.24C268.206 280.24 267.534 280.112 266.91 279.856C266.302 279.6 265.814 279.216 265.446 278.704C265.078 278.176 264.894 277.528 264.894 276.76C264.894 275.672 265.262 274.8 265.998 274.144C266.75 273.472 267.902 273.136 269.454 273.136H273.102V272.632C273.102 272.088 273.014 271.656 272.838 271.336C272.678 271.016 272.374 270.784 271.926 270.64C271.494 270.496 270.854 270.424 270.006 270.424C268.662 270.424 267.406 270.624 266.238 271.024V269.08C266.75 268.872 267.374 268.704 268.11 268.576C268.846 268.448 269.638 268.384 270.486 268.384C272.15 268.384 273.414 268.72 274.278 269.392C275.158 270.064 275.598 271.16 275.598 272.68V280H273.366L273.198 278.848C272.734 279.296 272.158 279.64 271.47 279.88C270.798 280.12 269.95 280.24 268.926 280.24ZM269.622 278.368C270.406 278.368 271.086 278.24 271.662 277.984C272.254 277.712 272.734 277.352 273.102 276.904V274.912H269.502C268.734 274.912 268.174 275.064 267.822 275.368C267.486 275.656 267.318 276.104 267.318 276.712C267.318 277.304 267.518 277.728 267.918 277.984C268.318 278.24 268.886 278.368 269.622 278.368ZM283.083 280.24C281.867 280.24 280.955 279.92 280.347 279.28C279.755 278.624 279.459 277.736 279.459 276.616V270.664H277.779V268.624H279.459V266.008L282.051 265.216V268.624H285.075L284.907 270.664H282.051V276.472C282.051 277.128 282.203 277.592 282.507 277.864C282.811 278.12 283.307 278.248 283.995 278.248C284.427 278.248 284.883 278.168 285.363 278.008V279.856C284.739 280.112 283.979 280.24 283.083 280.24ZM291.9 267.472L293.7 263.224H296.004L293.988 267.472H291.9ZM293.052 280.24C291.004 280.24 289.5 279.728 288.54 278.704C287.596 277.68 287.124 276.216 287.124 274.312C287.124 272.408 287.604 270.944 288.564 269.92C289.524 268.896 291.02 268.384 293.052 268.384C295.1 268.384 296.604 268.896 297.564 269.92C298.524 270.944 299.004 272.408 299.004 274.312C299.004 276.216 298.524 277.68 297.564 278.704C296.62 279.728 295.116 280.24 293.052 280.24ZM293.052 278.032C294.252 278.032 295.1 277.744 295.596 277.168C296.108 276.576 296.364 275.624 296.364 274.312C296.364 273 296.108 272.056 295.596 271.48C295.1 270.904 294.252 270.616 293.052 270.616C291.868 270.616 291.02 270.904 290.508 271.48C290.012 272.056 289.764 273 289.764 274.312C289.764 275.624 290.012 276.576 290.508 277.168C291.02 277.744 291.868 278.032 293.052 278.032ZM301.789 280V268.624H304.189L304.333 269.944C304.877 269.592 305.525 269.272 306.277 268.984C307.029 268.696 307.773 268.496 308.509 268.384V270.376C308.061 270.456 307.573 270.576 307.045 270.736C306.533 270.88 306.045 271.048 305.581 271.24C305.117 271.416 304.725 271.6 304.405 271.792V280H301.789ZM311.615 266.248V264.088H314.471V266.248H311.615ZM311.831 280V270.616H310.103L310.343 268.624H314.447V280H311.831ZM323.186 280.24C321.138 280.24 319.634 279.728 318.674 278.704C317.73 277.68 317.258 276.216 317.258 274.312C317.258 272.408 317.738 270.944 318.698 269.92C319.658 268.896 321.154 268.384 323.186 268.384C325.234 268.384 326.738 268.896 327.698 269.92C328.658 270.944 329.138 272.408 329.138 274.312C329.138 276.216 328.658 277.68 327.698 278.704C326.754 279.728 325.25 280.24 323.186 280.24ZM323.186 278.032C324.386 278.032 325.234 277.744 325.73 277.168C326.242 276.576 326.498 275.624 326.498 274.312C326.498 273 326.242 272.056 325.73 271.48C325.234 270.904 324.386 270.616 323.186 270.616C322.002 270.616 321.154 270.904 320.642 271.48C320.146 272.056 319.898 273 319.898 274.312C319.898 275.624 320.146 276.576 320.642 277.168C321.154 277.744 322.002 278.032 323.186 278.032ZM331.684 276.136L331.54 268.408V264.544H334.156V268.408L334.012 276.136H331.684ZM331.444 280V278.032H334.228V280H331.444Z" fill="white"/>
<line y1="53.5" x2="636" y2="53.5" stroke="white"/>
<path d="M499.572 238.619C500.313 238.665 500.722 237.744 500.161 237.208L500.105 236.986C500.113 236.969 500.12 236.951 500.128 236.933C500.569 235.879 501.786 235.38 502.843 235.817C506.183 237.198 502.656 240.371 502.922 242.518C503.014 243.26 505.918 243.3 505.753 244.028C507.297 240.652 508.109 236.967 508.108 233.261C508.107 232.33 508.056 231.399 507.952 230.47C507.866 229.71 507.747 228.955 507.594 228.207C506.766 224.163 504.974 220.312 502.39 217.095C501.148 216.417 501.906 215.356 501.28 214.084C501.055 213.626 499.05 213.616 498.967 213.113C499.056 213.125 500.352 211.779 499.924 211.113C499.643 210.675 499.73 210.117 500.092 209.743C500.128 209.706 500.161 209.668 500.192 209.626C501.261 208.176 502.734 208.428 503.504 210.398C505.148 211.227 505.164 212.603 504.156 213.926C503.515 214.768 503.427 215.907 502.865 216.808C502.923 216.882 502.983 216.954 503.041 217.028C504.103 218.389 505.022 219.853 505.797 221.391C505.578 219.682 505.9 217.622 506.45 216.295C507.081 214.771 508.268 213.49 509.308 212.172C510.55 210.598 513.077 211.312 513.297 213.305C513.299 213.324 513.301 213.343 513.303 213.362C513.149 213.449 512.999 213.541 512.852 213.639C512.013 214.194 512.304 215.494 513.298 215.647L513.32 215.651C513.265 216.204 511.3 217.948 511.161 218.488C512.49 223.619 511.496 224.297 507.408 224.383L507.194 224.688C507.581 225.802 507.893 226.943 508.127 228.098C508.347 229.17 508.5 230.254 508.587 231.343C508.694 232.716 508.685 234.097 508.569 235.468L508.576 235.419C508.87 233.909 509.689 232.498 510.88 231.52C512.653 230.063 515.158 229.525 517.071 228.354C517.992 227.79 519.173 228.518 519.012 229.586L519.005 229.637C518.72 229.753 518.442 229.887 518.173 230.038C518.019 230.125 517.868 230.217 517.721 230.314C516.882 230.87 517.173 232.17 518.168 232.323L518.19 232.326C518.206 232.328 518.22 232.331 518.236 232.333C517.748 233.494 513.095 235.131 512.243 236.06C511.415 240.542 511.822 240.409 508.008 239.105H508.006C507.589 240.921 506.981 242.695 506.198 244.387L499.736 244.389C499.713 244.317 499.692 244.243 499.671 244.171C500.269 244.208 500.871 244.173 501.459 244.064C500.979 243.476 500.5 242.883 500.02 242.295C500.009 242.283 499.999 242.272 499.99 242.26L499.983 242.251L499.317 240.061C499.37 239.575 499.456 239.093 499.572 238.619Z" fill="#F2F2F2"/>
<path d="M431.28 244.336L374.096 244.356C371.223 244.357 368.65 242.872 367.213 240.385C366.494 239.141 366.135 237.777 366.134 236.412C366.134 235.047 366.492 233.682 367.21 232.438L395.784 180.421C397.22 177.932 399.792 176.446 402.665 176.445C405.538 176.444 408.111 177.928 409.548 180.416L438.162 232.42C438.879 233.661 439.237 235.024 439.238 236.387C439.237 237.751 438.879 239.116 438.161 240.361C436.726 242.849 434.153 244.335 431.28 244.336ZM366.853 236.411C366.853 237.653 373.163 234.976 373.817 236.108C375.124 238.371 371.482 243.64 374.096 243.639C374.096 243.639 436.234 242.266 437.54 240.002C438.193 238.87 438.519 237.628 438.519 236.387C438.518 235.145 438.191 233.904 437.537 232.772L408.924 180.768C407.62 178.512 405.279 177.161 402.665 177.162C400.053 177.163 366.853 235.169 366.853 236.411Z" fill="#3F3D56"/>
<path d="M431.915 243.619C431.199 245.053 464.77 244.612 465.167 244.612C465.167 244.612 474.603 244.404 474.801 244.06C474.9 243.888 474.95 243.7 474.95 243.511C474.95 243.323 474.9 243.134 474.801 242.962L470.455 235.065C470.257 234.723 469.902 234.517 469.505 234.518C469.489 234.518 469.464 234.532 469.433 234.56C463.636 239.74 456.493 243.164 448.72 243.28C440.455 243.403 431.961 243.527 431.915 243.619Z" fill="#3F3D56"/>
<path d="M485.838 242.502L482.595 242.503L481.047 229.992L485.835 229.991L485.838 242.502Z" fill="#A0616A"/>
<path d="M474.725 242.432C474.624 242.602 474.571 243.151 474.571 243.349C474.572 243.957 475.065 244.45 475.673 244.45L485.718 244.446C486.132 244.446 486.469 244.11 486.468 243.695L486.468 243.277C486.468 243.277 486.965 242.02 485.941 240.471C485.941 240.471 484.67 241.684 482.769 239.785L482.209 238.77L478.154 241.738L475.906 242.015C475.414 242.076 474.978 242.006 474.725 242.432Z" fill="#2F2E41"/>
<path d="M473.401 231.801L470.329 232.841L464.856 221.485L469.391 219.95L473.401 231.801Z" fill="#A0616A"/>
<path d="M462.851 235.294C462.81 235.488 462.936 236.025 462.999 236.212C463.194 236.788 463.819 237.097 464.395 236.902L473.91 233.682C474.302 233.549 474.513 233.123 474.38 232.73L474.246 232.334C474.246 232.334 474.314 230.984 472.848 229.844C472.848 229.844 472.033 231.401 469.624 230.21L468.768 229.428L465.877 233.538L463.836 234.521C463.39 234.736 462.954 234.81 462.851 235.294Z" fill="#2F2E41"/>
<path d="M468.391 159.225L462.099 180.061L454.672 198.803L466.431 225.568L470.791 223.629L465.574 199.042L476.514 182.358L481.62 234.441L485.98 234.197L491.894 171.33L492.737 157.642L468.391 159.225Z" fill="#2F2E41"/>
<path d="M487.392 113.069L478.187 114.768L477.461 118.887L471.89 121.553L468.994 151.836C468.994 151.836 464.151 158.136 468.028 160.073L492.737 157.642C492.737 157.642 493.947 153.163 492.735 152.738C491.524 152.313 491.52 141.614 491.52 141.614L497.084 119.607L488.847 116.702L487.392 113.069Z" fill="#E6E6E6"/>
<path d="M481.962 112.99C486.068 112.99 489.396 109.662 489.396 105.556C489.396 101.451 486.068 98.123 481.962 98.123C477.857 98.123 474.529 101.451 474.529 105.556C474.529 109.662 477.857 112.99 481.962 112.99Z" fill="#A0616A"/>
<path d="M486.885 106.66C486.292 106.984 486.855 108.535 486.484 108.669C486.055 108.824 484.493 107.045 484.474 105.053C484.468 104.45 484.606 104.161 484.473 103.446C484.299 102.511 483.763 101.408 483.267 101.437C482.973 101.455 482.686 101.87 482.665 102.241C482.634 102.761 483.139 102.966 483.067 103.246C482.928 103.779 480.808 104.147 480.053 103.247C479.461 102.541 479.915 101.301 479.651 101.238C479.456 101.191 479.246 101.873 478.446 102.644C478.144 102.935 477.696 103.367 477.441 103.247C477.074 103.075 477.341 101.857 477.24 101.841C477.156 101.828 477.104 102.684 476.638 103.449C476.039 104.432 474.804 105.189 474.228 104.856C473.874 104.651 473.847 104.083 473.825 103.651C473.781 102.74 472.458 100.647 472.8 99.6729C473.497 97.691 474.69 99.088 475.23 98.4266C475.961 97.5313 476.616 98.0127 477.841 97.0194C479.038 96.0491 479.048 95.0739 479.849 95.0097C480.571 94.9519 480.828 95.7217 481.658 95.6118C482.361 95.5187 482.514 94.9217 483.064 95.0086C483.567 95.0882 483.6 95.6141 484.269 95.8118C484.697 95.938 484.79 95.7553 485.274 95.8115C486.28 95.9282 486.956 96.8446 487.083 97.0162C487.571 97.678 487.381 97.957 487.887 98.6232C488.323 99.1976 489.289 98.9537 489.652 99.2406C490.839 100.178 491.348 101.907 491.359 103.877C491.366 105.256 491.186 105.952 490.785 107.692C490.481 109.012 489.07 110.719 488.293 111.481C488.084 111.685 487.499 112.258 487.088 112.084C486.698 111.919 486.686 111.177 486.686 111.079C486.684 110.743 486.773 110.326 487.489 109.271C488.24 108.163 488.538 108.036 488.492 107.663C488.412 107.004 487.358 106.401 486.885 106.66Z" fill="#2F2E41"/>
<path d="M460.956 175.962C460.725 177.899 461.537 179.589 462.77 179.736C464.003 179.884 465.19 178.432 465.421 176.495C465.522 175.647 465.424 174.846 465.177 174.201L466.055 165.979L462.187 165.65L461.733 173.79C461.342 174.359 461.057 175.114 460.956 175.962Z" fill="#A0616A"/>
<path d="M472.072 121.358C472.072 121.358 470.068 121.386 468.742 123.977C468.037 125.354 464.266 151.098 464.266 151.098L460.792 172.188L466.709 172.218L471.321 152.246L475.2 140.662L472.072 121.358Z" fill="#E6E6E6"/>
<path d="M488.726 172.867C488.159 174.734 488.663 176.54 489.851 176.901C491.039 177.261 492.462 176.04 493.029 174.173C493.277 173.356 493.32 172.55 493.19 171.872L495.492 163.931L491.742 162.93L489.871 170.865C489.386 171.356 488.974 172.05 488.726 172.867Z" fill="#A0616A"/>
<path d="M492.845 119.971C492.845 119.971 495.751 117.79 498.175 121.181C500.599 124.572 501.577 152.43 501.577 152.43L494.8 169.633L489.712 167.939L494.55 146.861L486.066 130.875L492.845 119.971Z" fill="#E6E6E6"/>
<path d="M419.351 232.865C433.809 232.865 445.53 221.144 445.53 206.685C445.53 192.227 433.809 180.506 419.351 180.506C404.893 180.506 393.172 192.227 393.172 206.685C393.172 221.144 404.893 232.865 419.351 232.865Z" fill="#DF5031"/>
<path d="M419.356 222.734C420.683 222.734 421.76 221.657 421.76 220.33C421.76 219.002 420.683 217.926 419.356 217.926C418.028 217.926 416.952 219.002 416.952 220.33C416.952 221.657 418.028 222.734 419.356 222.734Z" fill="white"/>
<path d="M419.346 190.637C419.125 192.104 419.52 192.411 419.523 198.737C419.525 205.062 420.837 213.543 419.354 213.543C417.87 213.544 417.327 196.041 412.175 194.492C406.118 192.671 420.06 185.888 419.346 190.637Z" fill="white"/>
<path d="M384.215 220.051L381.849 225.049C384.709 222.998 389.175 221.231 392.729 220.284C389.418 218.685 385.366 216.106 382.945 213.552L384.305 218.833C368.356 215.584 356.902 203.349 356.898 189.333L356.322 189.135C356.327 203.775 367.622 216.735 384.215 220.051Z" fill="#3F3D56"/>
</svg>
